<svg width="201" height="57" viewBox="0 0 201 57" fill="none" xmlns="http://www.w3.org/2000/svg">
<path d="M44.4837 11.3091C44.2842 11.2917 40.3759 11.2323 40.3759 11.2323C40.3759 11.2323 37.1072 8.05806 36.7842 7.73597C36.6591 7.6197 36.5 7.54658 36.3303 7.52734L36.3312 56.083L50.9808 52.4431C50.9808 52.4431 45.0035 12.0338 44.965 11.7566C44.9464 11.6388 44.8889 11.5307 44.8017 11.4494C44.7144 11.3681 44.6025 11.3184 44.4837 11.3082V11.3091Z" fill="#E3E3E3"/>
<path fill-rule="evenodd" clip-rule="evenodd" d="M44.8005 11.448C44.8877 11.5292 44.9453 11.6372 44.9639 11.7549C45.0014 12.0321 50.9796 52.4432 50.9796 52.4432L36.3292 56.085L2.52612 50.238C2.52612 50.238 6.5598 19.0512 6.70987 17.9532C6.91119 16.4993 6.95969 16.4526 8.5016 15.9685L13.7368 14.3462C14.0635 12.0111 15.2128 8.99515 16.7245 6.59413C18.8722 3.18292 21.5214 1.26229 24.1806 1.18634C25.5587 1.14517 26.7099 1.61183 27.6067 2.5726C27.6702 2.64257 27.7321 2.71396 27.7924 2.78672C27.811 2.78518 27.8295 2.78361 27.848 2.78204C27.9726 2.7715 28.0955 2.7611 28.2198 2.7611H28.228C30.2869 2.76476 31.9926 3.93873 33.1548 6.15949C33.475 6.77793 33.7384 7.42415 33.9418 8.09019C34.2281 8.00153 34.4821 7.92295 34.6995 7.85566C35.2631 7.68127 35.5814 7.58276 35.5834 7.58144C35.8287 7.50824 36.4591 7.41124 36.7822 7.73425C37.1052 8.05633 40.3739 11.2315 40.3739 11.2315C40.3739 11.2315 44.2831 11.2909 44.4826 11.3074C44.6013 11.3174 44.7132 11.3669 44.8005 11.448ZM29.6253 9.42612L32.2479 8.6145C31.8288 7.25295 30.836 4.96996 28.8182 4.58748C29.446 6.20616 29.6052 8.08013 29.6253 9.42612ZM22.2132 11.7219L27.8565 9.97422C27.8748 8.50378 27.7155 6.33152 26.9798 4.79611C26.1965 5.11911 25.5358 5.68368 25.0636 6.19152C23.7926 7.55399 22.7586 9.63383 22.2132 11.7219ZM25.8323 3.37508C25.383 3.07953 24.8578 2.94227 24.2328 2.956C20.1277 3.07495 16.5461 9.4856 15.631 13.7578C16.6833 13.4332 17.8012 13.0869 18.9506 12.7308C19.3854 12.5961 19.8248 12.46 20.2668 12.3231C20.7829 9.60913 22.0777 6.79543 23.767 4.98369C24.4185 4.28461 25.1131 3.74841 25.8323 3.37508ZM26.5076 25.2057L28.2097 18.8408C28.2097 18.8408 26.7428 18.1097 23.8758 18.2945C16.4344 18.763 13.0623 23.9667 13.3872 29.1009C13.6036 32.5284 15.6231 33.9615 17.3932 35.2175C18.774 36.1974 20.003 37.0695 20.1057 38.6968C20.1624 39.5935 19.6042 40.8626 18.044 40.9615C15.6557 41.1124 12.6725 38.8615 12.6725 38.8615L11.5314 43.7139C11.5314 43.7139 14.4953 46.889 19.8806 46.5504C24.3663 46.2668 27.4794 42.6781 27.1491 37.4322C26.8945 33.3988 24.0543 31.5777 21.8096 30.1383C20.343 29.1979 19.1306 28.4205 19.0598 27.2956C19.0259 26.7731 19.0607 24.6933 22.3605 24.4837C24.6097 24.3428 26.5076 25.2057 26.5076 25.2057Z" fill="#E3E3E3"/>
<path d="M70.2714 32.17C68.5877 31.255 67.7211 30.4854 67.7211 29.4258C67.7211 28.0789 68.9235 27.2133 70.8022 27.2133C72.9883 27.2133 74.9402 28.1274 74.9402 28.1274L76.4793 23.4105C76.4793 23.4105 75.0637 22.3033 70.8973 22.3033C65.0985 22.3033 61.0794 25.6239 61.0794 30.2914C61.0794 32.9386 62.9553 34.9599 65.4599 36.4029C67.4813 37.5567 68.2033 38.3757 68.2033 39.578C68.2033 40.8288 67.1922 41.8399 65.3162 41.8399C62.5198 41.8399 59.8788 40.396 59.8788 40.396L58.2427 45.1121C58.2427 45.1121 60.6823 46.7481 64.7873 46.7481C70.7546 46.7481 75.0381 43.8127 75.0381 38.5193C75.0362 35.6828 72.8721 33.6615 70.2714 32.17ZM94.0461 22.2566C91.1105 22.2566 88.8 23.652 87.0201 25.7685L86.9241 25.72L89.4744 12.3908H82.8327L76.3841 46.3162H83.0258L85.2403 34.7192C86.106 30.339 88.368 27.6461 90.4855 27.6461C91.9771 27.6461 92.5555 28.6563 92.5555 30.1002C92.5555 31.0152 92.4594 32.1224 92.2672 33.0356L89.7654 46.3172H96.407L99.0049 32.6028C99.2941 31.158 99.4872 29.4277 99.4872 28.2711C99.4844 24.5167 97.5115 22.2557 94.047 22.2557L94.0461 22.2566ZM114.498 22.2566C106.509 22.2566 101.217 29.4743 101.217 37.5101C101.217 42.6589 104.392 46.7966 110.36 46.7966C118.204 46.7966 123.498 39.772 123.498 31.5432C123.498 26.7796 120.706 22.2557 114.498 22.2557V22.2566ZM111.226 41.6981C108.964 41.6981 108.001 39.7729 108.001 37.3664C108.001 33.5654 109.975 27.3579 113.584 27.3579C115.942 27.3579 116.711 29.3801 116.711 31.352C116.711 35.4421 114.74 41.6981 111.226 41.6981ZM140.486 22.2566C136.003 22.2566 133.459 26.2022 133.459 26.2022H133.363L133.749 22.6418H127.878C127.589 25.0484 127.059 28.7039 126.531 31.4471L121.91 55.7474H128.552L130.379 45.931H130.525C130.525 45.931 131.887 46.7966 134.423 46.7966C142.219 46.7966 147.319 38.8094 147.319 30.7242C147.319 26.2507 145.346 22.2566 140.486 22.2566ZM134.133 41.7924C132.409 41.7924 131.389 40.8307 131.389 40.8307L132.496 34.6232C133.266 30.4854 135.432 27.7422 137.742 27.7422C139.764 27.7422 140.389 29.618 140.389 31.3995C140.389 35.6818 137.838 41.7924 134.133 41.7924ZM156.8 12.7285C154.683 12.7285 152.998 14.4121 152.998 16.5771C152.998 18.5508 154.249 19.8986 156.126 19.8986H156.222C158.292 19.8986 160.072 18.5023 160.12 16.0491C160.12 14.1239 158.821 12.7285 156.8 12.7285ZM147.512 46.3162H154.152L158.677 22.7864H151.987L147.512 46.3162ZM175.569 22.7379H170.949L171.188 21.6307C171.574 19.3688 172.922 17.3484 175.135 17.3484C175.854 17.3501 176.568 17.4637 177.252 17.6852L178.551 12.4878C178.551 12.4878 177.396 11.9114 174.941 11.9114C172.583 11.9114 170.227 12.5848 168.445 14.1239C166.183 16.0491 165.124 18.839 164.595 21.6307L164.404 22.7379H161.323L160.36 27.7431H163.441L159.928 46.3181H166.57L170.083 27.7431H174.655L175.569 22.7379ZM191.545 22.7873C191.545 22.7873 187.394 33.246 185.529 38.9549H185.433C185.306 37.1157 183.796 22.7864 183.796 22.7864H176.818L180.814 44.391C180.911 44.8723 180.863 45.1624 180.669 45.4982C179.898 46.9897 178.6 48.4345 177.059 49.4932C175.809 50.4073 174.413 50.9847 173.307 51.369L175.135 57C176.483 56.7118 179.273 55.6037 181.631 53.3912C184.664 50.5519 187.454 46.1726 190.341 40.2057L198.474 22.7846H191.545V22.7873Z" fill="#E3E3E3"/>
</svg>
