<svg width="99" height="100" viewBox="0 0 99 100" fill="none" xmlns="http://www.w3.org/2000/svg">
<path d="M83.6125 45.7183C81.3081 26.7261 64.0437 13.1981 45.0516 15.5026C26.0594 17.807 12.5313 35.0714 14.8358 54.0635C17.1403 73.0557 34.4046 86.5838 53.3968 84.2793C72.389 81.9748 85.917 64.7105 83.6125 45.7183Z" fill="#456ECA"/>
<path d="M30.7254 51.7478C30.808 47.3936 31.6505 44.3606 33.253 42.6486C34.8555 40.9367 37.2607 40.1112 40.4685 40.172C41.7599 40.1577 43.0435 40.3746 44.2585 40.8123C45.1529 41.1528 45.9692 41.6705 46.6585 42.3344C47.2344 42.9065 47.7198 43.563 48.0981 44.2812C48.4685 45.0343 48.7436 45.8306 48.9169 46.6518C49.3167 48.4103 49.4983 50.2115 49.4575 52.0144C49.3788 56.1669 48.6175 59.1966 47.1738 61.1035C45.73 63.0104 43.2886 63.9287 39.8496 63.8586C38.2375 63.8966 36.6396 63.55 35.1882 62.8474C33.9904 62.2066 32.9882 61.254 32.2874 60.0903C31.6702 59.01 31.2549 57.8263 31.0617 56.5972C30.7856 54.9963 30.6729 53.3715 30.7254 51.7478ZM37.0427 51.8676C36.9874 54.7852 37.1956 56.7825 37.6673 57.8594C37.8244 58.3209 38.1166 58.7244 38.506 59.0175C38.8955 59.3106 39.3641 59.4797 39.851 59.5029C40.4793 59.5191 41.0887 59.2866 41.5465 58.8558C42.1044 58.2645 42.482 57.5264 42.6352 56.7281C42.9285 55.2205 43.0689 53.6872 43.0542 52.1514C43.112 49.101 42.9048 47.0496 42.4326 45.9973C42.2585 45.5288 41.947 45.1239 41.5388 44.8355C41.1306 44.5472 40.6448 44.3889 40.1451 44.3814C39.6428 44.3637 39.1478 44.5056 38.7312 44.7869C38.3147 45.0682 37.9981 45.4743 37.8268 45.9468C37.3586 47.0158 37.0971 48.9968 37.0423 51.8898L37.0427 51.8676Z" fill="#FAFAFA"/>
<path d="M62.1862 33.2862L68.6778 55.7204L62.4878 57.5115L58.2408 42.8343C57.5345 43.8024 56.7407 44.7035 55.8692 45.5261C54.886 46.4043 53.8304 47.1982 52.7138 47.8991L51.2633 42.8861C52.8675 41.8753 54.2739 40.5804 55.4135 39.0649C56.2953 37.7875 56.8762 36.3268 57.1126 34.7927L62.1862 33.2862Z" fill="#FAFAFA"/>
</svg>
