<svg width="265" height="64" viewBox="0 0 265 64" fill="none" xmlns="http://www.w3.org/2000/svg">
<path d="M55.2785 36.8773V48.9038H47.3324V36.785L33.9387 14.9155H42.436L51.6735 30.041L60.9111 14.9155H68.7647L55.2785 36.8773Z" fill="#E3E3E3"/>
<path d="M66.5479 35.8738C66.5479 28.0381 72.7357 22.3901 81.1446 22.3901C89.5493 22.3901 95.6488 27.9499 95.6488 35.8738C95.6488 43.7095 89.5535 49.3574 81.1446 49.3574C72.7399 49.3574 66.5479 43.8019 66.5479 35.8738ZM87.8877 35.8738C87.8877 31.3176 85.023 28.584 81.1446 28.584C77.2661 28.584 74.3089 31.3176 74.3089 35.8738C74.3089 40.4299 77.2661 43.1636 81.1446 43.1636C84.9347 43.1636 87.8877 40.4299 87.8877 35.8738Z" fill="#E3E3E3"/>
<path d="M127.518 22.8435V48.9919H120.219V45.8929C118.187 48.1689 115.23 49.3573 111.995 49.3573C105.345 49.3573 100.634 45.62 100.634 37.6037V22.8435H108.302V36.5119C108.302 40.8875 110.241 42.7981 113.661 42.7981C117.174 42.7981 119.757 40.5221 119.757 35.7812V22.8435H127.518Z" fill="#E3E3E3"/>
<path d="M133.062 31.9559C133.062 21.6594 141.008 14.3696 151.815 14.3696C157.817 14.3696 162.806 16.465 166.041 20.3829L160.867 25.0314C158.558 22.3901 155.601 21.0212 152.185 21.0212C145.719 21.0212 141.101 25.4849 141.101 31.9559C141.101 38.3345 145.719 42.8906 152.185 42.8906C155.605 42.8906 158.558 41.5258 160.867 38.8804L166.041 43.5289C162.806 47.4467 157.817 49.6345 151.815 49.6345C141.008 49.5421 133.062 42.2523 133.062 31.9559Z" fill="#E3E3E3"/>
<path d="M194.124 34.0513V48.9921H186.918V45.7125C185.534 48.0808 182.762 49.3574 178.787 49.3574C172.599 49.3574 168.902 45.9854 168.902 41.4293C168.902 36.7808 172.229 33.5936 180.264 33.5936H186.359C186.359 30.314 184.42 28.3992 180.264 28.3992C177.491 28.3992 174.534 29.3104 172.595 30.8599L169.823 25.5773C172.688 23.5743 177.029 22.3901 181.277 22.3901C189.413 22.3901 194.124 26.1232 194.124 34.0513ZM186.367 40.7028V38.0615H181.101C177.496 38.0615 176.389 39.3381 176.389 41.1606C176.389 43.0754 178.051 44.3477 180.73 44.3477C183.317 44.2554 185.534 43.0712 186.367 40.7028Z" fill="#E3E3E3"/>
<path d="M228.214 33.959V48.8997H220.55V35.1432C220.55 30.9524 218.61 28.9493 215.191 28.9493C211.497 28.9493 208.818 31.2253 208.818 35.9662V48.9039H201.149V22.7513H208.54V25.8503C210.572 23.5744 213.714 22.386 217.315 22.386C223.41 22.3902 228.214 26.0309 228.214 33.959Z" fill="#E3E3E3"/>
</svg>
