<svg width="84" height="84" viewBox="0 0 84 84" fill="none" xmlns="http://www.w3.org/2000/svg">
<path d="M75.3858 50.1998C79.7805 31.5799 68.2487 12.923 49.6289 8.52827C31.009 4.13358 12.352 15.6654 7.95729 34.2852C3.5626 52.9051 15.0944 71.5621 33.7143 75.9568C52.3342 80.3515 70.9911 68.8197 75.3858 50.1998Z" fill="#456ECA"/>
<path d="M20.0719 39.9667C19.4402 35.6577 19.7745 32.5276 21.075 30.5764C22.3755 28.6251 24.613 27.4168 27.7874 26.9514C29.0591 26.7258 30.3608 26.7295 31.6311 26.9623C32.5676 27.1501 33.4557 27.5277 34.2407 28.0718C34.904 28.5401 35.4906 29.1084 35.9797 29.7565C36.4685 30.4387 36.8702 31.1793 37.1758 31.9609C37.8582 33.6303 38.3323 35.3773 38.5874 37.1626C39.1899 41.2719 38.9351 44.3854 37.8231 46.503C36.7112 48.6206 34.4532 49.9265 31.0491 50.4205C29.4651 50.7229 27.8318 50.6427 26.285 50.1864C24.9985 49.7505 23.8538 48.9749 22.9719 47.9417C22.1861 46.9771 21.5825 45.8774 21.1906 44.6966C20.6584 43.1619 20.2836 41.5771 20.0719 39.9667ZM26.3235 39.0501C26.7468 41.9374 27.2793 43.8736 27.9211 44.8587C28.1515 45.2882 28.5059 45.6384 28.9381 45.8638C29.3703 46.0891 29.8603 46.1792 30.3444 46.1223C30.6518 46.0801 30.9478 45.9775 31.2154 45.8205C31.483 45.6634 31.7169 45.4551 31.9037 45.2074C32.3633 44.5357 32.6156 43.7438 32.6292 42.9301C32.6789 41.3946 32.5687 39.8581 32.3003 38.3455C31.8577 35.3268 31.3051 33.3388 30.6426 32.3816C30.3935 31.9469 30.0186 31.5978 29.5672 31.3803C29.1159 31.1629 28.6092 31.0872 28.114 31.1633C27.617 31.2295 27.1537 31.4511 26.7903 31.7965C26.4269 32.1418 26.182 32.5933 26.0907 33.0862C25.8464 34.2187 25.907 36.2092 26.3267 39.0721L26.3235 39.0501Z" fill="#FAFAFA"/>
<path d="M59.0298 54.9134L40.2896 51.1332C40.8917 49.3072 41.9253 47.6533 43.3027 46.3118C44.716 44.9052 47.1456 43.3873 50.5917 41.7581C52.0681 41.1458 53.4579 40.3427 54.7256 39.3692C55.303 38.8931 55.7134 38.2451 55.8969 37.5196C55.9718 37.1941 55.9777 36.8564 55.9141 36.5284C55.8506 36.2005 55.7191 35.8894 55.528 35.6154C55.0931 35.0324 54.4582 34.6304 53.7452 34.4866C53.0321 34.3427 52.2911 34.4672 51.6642 34.836C50.9029 35.4704 50.3589 36.3269 50.1083 37.2857L43.9589 35.5182C44.3937 34.0911 45.1394 32.7783 46.1424 31.674C47.0266 30.8008 48.1466 30.205 49.3647 29.9596C51.0619 29.6872 52.7964 29.758 54.4657 30.1678C56.2221 30.4384 57.9125 31.0348 59.4498 31.9262C60.5365 32.6186 61.3843 33.6281 61.8785 34.8181C62.3696 35.9868 62.4902 37.2779 62.2241 38.5173C61.9354 39.9126 61.2426 41.1922 60.232 42.1967C58.7221 43.5836 56.9693 44.68 55.0616 45.4308C53.6275 46.0451 52.6655 46.4836 52.1758 46.7463C51.6861 47.0089 51.0949 47.3641 50.4022 47.8117L60.1558 49.7791L59.0298 54.9134Z" fill="#FAFAFA"/>
</svg>
