<svg width="244" height="50" viewBox="0 0 244 50" fill="none" xmlns="http://www.w3.org/2000/svg">
<path d="M51.4159 41.6766C52.497 44.3347 53.5234 46.8542 54.5498 49.3737C54.5161 49.4115 54.4867 49.4451 54.453 49.4829C54.167 49.3317 53.8851 49.1805 53.6033 49.0252C49.3968 46.6904 45.1986 44.3431 40.9795 42.0293C40.5882 41.8151 40.0961 41.6934 39.646 41.6892C29.3568 41.6724 19.0633 41.6766 8.77411 41.6724C4.9167 41.6724 1.8964 39.241 1.12239 35.4827C1.01302 34.962 1.00882 34.4119 1.00882 33.8786C1.0004 25.5054 1.05088 17.1364 0.983576 8.76323C0.949924 4.82018 3.75149 1.81776 6.92322 1.20048C7.53738 1.0829 8.16836 0.990516 8.79514 0.990516C30.9763 0.977918 53.1532 0.982117 75.3343 0.982117C79.1665 0.982117 82.1868 3.37986 83.0029 7.09195C83.1501 7.76382 83.1964 8.46929 83.1964 9.16216C83.209 17.2624 83.209 25.3669 83.2048 33.4671C83.2048 36.4444 82.1616 38.8967 79.5493 40.5344C78.3168 41.307 76.9581 41.664 75.5152 41.6682C67.813 41.6766 60.115 41.6724 52.4129 41.6724C52.131 41.6766 51.8492 41.6766 51.4159 41.6766ZM22.2435 22.7592C22.7777 24.2793 23.2404 25.7196 23.7915 27.1305C25.1544 30.6243 26.9001 33.9038 29.5418 36.6291C30.0424 37.1456 30.6818 37.5991 31.3422 37.8763C32.621 38.4096 33.883 37.8427 34.3752 36.5577C34.5855 36.0076 34.6949 35.382 34.6738 34.7941C34.556 30.9938 34.8169 27.2187 35.389 23.473C36.1251 18.6523 36.8318 13.8191 39.0108 9.35112C39.7091 7.91919 39.0192 6.35289 37.5511 5.63063C36.1293 4.92936 34.5518 5.37448 33.7484 6.73082C33.4539 7.23053 33.1931 7.75962 32.9576 8.29292C31.2834 12.1016 30.4841 16.137 29.8531 20.2145C29.6218 21.701 29.4493 23.2001 29.2306 24.8378C29.1002 24.5144 29.0118 24.3339 28.9571 24.1449C28.2042 21.5204 27.4386 18.9043 26.715 16.2714C26.3953 15.1082 26.2649 13.8905 25.8737 12.7525C25.1754 10.7159 22.9081 10.3295 21.4821 11.9546C21.175 12.3032 20.9142 12.7105 20.6955 13.122C19.2737 15.7969 17.8729 18.4802 16.4595 21.1593C15.4878 22.9985 14.5118 24.8336 13.5107 26.7316C13.4392 26.53 13.3803 26.4083 13.355 26.2781C12.3118 20.7435 11.2644 15.2048 10.2296 9.66606C10.0445 8.67085 9.93932 7.60845 8.90872 7.07935C7.7393 6.47467 6.53202 6.56285 5.45935 7.30191C4.45819 7.99898 4.17214 9.06558 4.36985 10.2288C5.05972 14.2642 5.72856 18.2996 6.49416 22.3182C7.28919 26.4965 8.16416 30.6621 9.58597 34.6807C9.89726 35.5583 10.3053 36.4276 10.8227 37.2002C11.4495 38.1408 12.4212 38.3004 13.3635 37.6747C13.9524 37.2842 14.495 36.7803 14.9493 36.2344C16.4595 34.4245 17.4648 32.3123 18.4996 30.2211C19.7195 27.752 20.9689 25.2955 22.2435 22.7592ZM47.3986 34.4077C47.8025 34.3783 48.2063 34.3742 48.6059 34.3196C51.2729 33.929 53.2205 32.4383 54.7223 30.2925C56.3923 27.9032 57.4355 25.2661 57.8183 22.3644C58.1674 19.7021 58.0538 17.1028 57.0989 14.5665C54.718 8.24253 46.877 7.18014 42.9229 11.6691C38.5523 16.6325 37.3071 22.398 39.3473 28.6926C40.5504 32.3963 43.6001 34.3867 47.3986 34.4077ZM59.564 23.494C59.5177 25.6104 59.8921 27.6386 60.8091 29.5577C62.5086 33.1186 66.1052 34.9452 69.9836 34.2692C72.6253 33.8073 74.5014 32.2662 75.9527 30.1288C78.5355 26.3201 79.5325 22.1041 78.9856 17.5522C78.7164 15.3098 77.9088 13.248 76.365 11.5473C73.4919 8.38111 67.3966 7.57906 63.6191 12.089C60.8554 15.3854 59.585 19.2234 59.564 23.494Z" fill="#E3E3E3"/>
<path d="M128.816 10.1784C131.462 10.1784 134.024 10.1784 136.678 10.1784C137.537 14.302 138.395 18.4214 139.274 22.6332C139.716 20.479 140.124 18.4088 140.574 16.3512C140.99 14.4489 141.449 12.5509 141.924 10.6613C141.975 10.4639 142.227 10.1784 142.391 10.1784C144.911 10.149 147.43 10.1574 150.043 10.1574C151.073 17.7705 152.104 25.3543 153.143 33.0262C151.889 33.0262 150.703 33.0262 149.513 33.0262C148.861 33.0262 148.204 33.001 147.552 33.0346C147.115 33.0556 146.968 32.8876 146.926 32.4719C146.715 30.3303 146.48 28.1887 146.257 26.0471C145.971 23.2799 145.685 20.5168 145.31 17.7201C145.256 17.8881 145.188 18.0519 145.146 18.224C143.981 22.9691 142.812 27.71 141.667 32.4593C141.562 32.8918 141.402 33.0514 140.952 33.0388C139.939 33.0094 138.925 33.001 137.915 33.043C137.415 33.064 137.276 32.8498 137.171 32.4215C135.972 27.6638 134.756 22.9103 133.54 18.1526C133.503 18.0057 133.448 17.8629 133.296 17.7159C132.783 22.797 132.27 27.878 131.753 32.9926C129.801 32.9926 127.895 32.9926 125.889 32.9926C126.873 25.3795 127.841 17.8083 128.816 10.1784Z" fill="#E3E3E3"/>
<path d="M161.358 17.6612C160.845 22.7632 160.328 27.8653 159.814 32.9883C157.837 32.9883 155.932 32.9883 153.955 32.9883C154.152 31.422 154.338 29.8977 154.535 28.3734C155.196 23.2126 155.856 18.0517 156.516 12.8951C156.613 12.1393 156.723 11.3834 156.798 10.6234C156.836 10.2496 157.009 10.1447 157.366 10.1447C159.642 10.1573 161.913 10.174 164.189 10.1363C164.824 10.1237 164.787 10.5562 164.862 10.9173C165.641 14.6462 166.406 18.3793 167.18 22.1082C167.201 22.209 167.235 22.3013 167.39 22.4063C167.634 21.1508 167.853 19.8868 168.131 18.6354C168.724 15.9689 169.355 13.3067 169.952 10.6402C170.036 10.258 170.205 10.1405 170.587 10.1447C172.905 10.1615 175.227 10.1573 177.545 10.1447C177.928 10.1447 178.083 10.2496 178.142 10.6612C179.11 17.8838 180.094 25.1022 181.074 32.3248C181.1 32.5222 181.1 32.7237 181.112 32.9715C179.093 32.9715 177.099 32.9715 175.021 32.9715C174.483 27.8863 173.948 22.7884 173.41 17.6948C173.372 17.6906 173.334 17.6864 173.296 17.6864C172.06 22.78 170.827 27.8779 169.578 33.0219C168.261 33.0219 166.982 33.0429 165.704 32.9967C165.54 32.9925 165.304 32.6356 165.245 32.4088C164.034 27.7225 162.843 23.032 161.648 18.3415C161.59 18.1147 161.522 17.888 161.459 17.6612C161.426 17.657 161.392 17.6612 161.358 17.6612Z" fill="#E3E3E3"/>
<path d="M124.618 26.8491C123.306 31.3423 119.941 33.6938 115.246 33.6056C110.459 33.5175 107.304 31.1827 105.996 26.7357C105.777 25.9841 105.6 25.2114 105.5 24.4388C105.138 21.6589 105.134 18.8874 105.966 16.1748C107.245 12.005 110.459 9.61141 114.83 9.53162C117.808 9.48123 120.504 10.1615 122.595 12.4333C124.105 14.0794 124.82 16.0992 125.144 18.2618C125.308 19.3284 125.897 23.1874 124.618 26.8491ZM118.788 22.0536C118.788 21.6505 118.838 21.239 118.78 20.8443C118.578 19.5215 118.443 18.1778 118.081 16.897C117.774 15.801 117.004 14.9822 115.772 14.789C114.072 14.5245 112.848 15.3433 112.352 17.2749C111.586 20.2354 111.675 23.2252 112.369 26.1898C112.609 27.2145 113.273 27.9913 114.358 28.2769C116.125 28.7472 117.745 27.8359 118.229 25.9631C118.561 24.6949 118.817 22.0578 118.788 22.0536Z" fill="#E3E3E3"/>
<path d="M215.139 33.0179C212.968 33.0179 210.945 33.0347 208.922 32.9927C208.724 32.9885 208.455 32.6987 208.35 32.4762C206.865 29.4359 205.401 26.3831 203.929 23.3345C203.836 23.1413 203.731 22.9524 203.508 22.7802C203.508 26.169 203.508 29.5535 203.508 32.9801C201.409 32.9801 199.394 32.9801 197.337 32.9801C197.337 25.3795 197.337 17.8042 197.337 10.2288C197.413 10.2036 197.476 10.1616 197.535 10.1616C200.706 10.2204 203.878 10.2078 207.046 10.3716C208.703 10.4556 210.234 11.1232 211.563 12.152C214.954 14.7807 214.659 20.0465 211 22.2889C210.773 22.4275 210.533 22.5535 210.213 22.734C211.837 26.1312 213.456 29.5115 215.139 33.0179ZM203.478 20.1263C204.488 19.8954 205.418 19.7736 206.284 19.4628C207.222 19.1269 207.618 18.3207 207.555 17.3213C207.433 15.4106 205.552 14.1803 203.478 14.68C203.478 16.4058 203.478 18.1443 203.478 20.1263Z" fill="#E3E3E3"/>
<path d="M231.536 10.1909C235.684 10.1909 239.815 10.1909 244 10.1909C244 11.7908 244 13.3655 244 15.0284C241.922 15.0284 239.844 15.0284 237.724 15.0284C237.724 16.4477 237.724 17.7873 237.724 19.2108C239.512 19.2108 241.295 19.2108 243.113 19.2108C243.113 20.8191 243.113 22.335 243.113 23.9391C241.329 23.9391 239.545 23.9391 237.72 23.9391C237.72 25.3584 237.72 26.698 237.72 28.1089C239.798 28.1089 241.876 28.1089 244.009 28.1089C244.009 29.7592 244.009 31.3381 244.009 32.9674C239.865 32.9674 235.717 32.9674 231.532 32.9674C231.536 25.3794 231.536 17.8083 231.536 10.1909Z" fill="#E3E3E3"/>
<path d="M189.164 15.0621C189.164 16.5024 189.164 17.821 189.164 19.2277C190.968 19.2277 192.752 19.2277 194.582 19.2277C194.582 20.8444 194.582 22.3771 194.582 23.9854C193.059 23.9854 191.557 23.9854 190.055 23.9854C189.147 23.9854 189.147 23.9854 189.147 24.8882C189.147 25.959 189.147 27.0298 189.147 28.1678C191.292 28.1678 193.353 28.1678 195.524 28.1678C195.524 28.4953 195.524 28.7557 195.524 29.0118C195.524 30.1792 195.52 31.3466 195.528 32.514C195.528 32.8331 195.52 33.0767 195.078 33.0767C191.094 33.0599 187.111 33.0557 183.127 33.0473C183.11 33.0473 183.089 33.0263 183.014 32.9759C183.014 25.4425 183.014 17.8714 183.014 10.2456C187.123 10.2456 191.25 10.2456 195.423 10.2456C195.423 11.8287 195.423 13.4076 195.423 15.0579C193.345 15.0621 191.284 15.0621 189.164 15.0621Z" fill="#E3E3E3"/>
<path d="M229.753 10.0062C229.753 11.6817 229.753 13.3194 229.753 14.9529C229.753 15.0831 229.736 15.2174 229.727 15.3728C229.037 15.2552 228.377 15.1419 227.721 15.0285C223.401 14.281 221.1 17.4808 220.843 20.6218C220.734 21.995 220.835 23.3555 221.369 24.653C222.387 27.118 224.793 28.4617 227.536 28.0712C228.247 27.9704 228.949 27.8192 229.706 27.6807C229.706 29.4611 229.706 31.2374 229.706 33.0136C226.455 34.2146 220.435 33.8493 216.864 29.4821C213.663 25.5643 213.25 18.9001 216.039 14.7009C219.165 9.98524 224.532 8.74228 229.753 10.0062Z" fill="#E3E3E3"/>
<path d="M103.939 27.6764C103.939 29.4946 103.939 31.2625 103.939 33.0177C100.321 34.2775 94.2596 33.719 90.8102 29.1335C87.6848 24.9805 87.5754 18.245 90.6167 14.1675C93.9651 9.67019 99.4589 8.81356 103.943 10.0355C103.943 11.795 103.943 13.5587 103.943 15.3727C103.278 15.2593 102.643 15.1501 102.008 15.0368C97.6543 14.2557 95.3028 17.4387 95.0546 20.6847C94.9537 22.0158 95.0631 23.326 95.5678 24.5857C96.5732 27.0927 98.9836 28.4574 101.76 28.0669C102.467 27.9703 103.169 27.8191 103.939 27.6764Z" fill="#E3E3E3"/>
<path d="M52.1647 20.2522C52.0679 22.5995 51.5632 24.8209 50.0236 26.6853C49.6281 27.1599 49.136 27.584 48.6186 27.9241C47.2514 28.8227 46.0231 28.491 45.2323 27.0549C44.3742 25.4886 44.1386 23.7921 44.3069 22.0452C44.5088 19.9708 45.2786 18.0938 46.5784 16.4603C46.9654 15.9774 47.4239 15.5155 47.9413 15.1837C49.0897 14.4447 50.3138 14.7344 51.0289 15.8934C51.8576 17.2204 52.2152 18.6817 52.1647 20.2522Z" fill="#E3E3E3"/>
<path d="M73.2731 19.765C73.2142 22.5071 72.7346 24.6613 71.3002 26.4669C70.7702 27.1346 70.0551 27.7057 69.3147 28.134C68.2673 28.7429 67.2241 28.4112 66.5678 27.3908C65.6298 25.9294 65.2806 24.296 65.3774 22.5827C65.512 20.2143 66.3449 18.0895 67.855 16.2461C68.1621 15.8682 68.5365 15.5238 68.9361 15.2509C70.135 14.4278 71.4222 14.6966 72.1794 15.9396C72.9828 17.2581 73.3194 18.7026 73.2731 19.765Z" fill="#E3E3E3"/>
</svg>
