<svg width="85" height="86" viewBox="0 0 85 86" fill="none" xmlns="http://www.w3.org/2000/svg">
<path d="M33.4602 76.6227C51.9398 81.5743 70.9345 70.6077 75.8861 52.1281C80.8377 33.6485 69.8711 14.6538 51.3915 9.70222C32.9119 4.75063 13.9172 15.7172 8.96563 34.1968C4.01404 52.6764 14.9806 71.6711 33.4602 76.6227Z" fill="#456ECA"/>
<path d="M24.7414 35.5419C25.9945 31.3679 27.6216 28.6733 29.6225 27.4583C31.6234 26.2432 34.1664 26.0896 37.2516 26.9974C38.4999 27.3316 39.6776 27.8885 40.728 28.6413C41.5001 29.2072 42.1451 29.9286 42.6216 30.7589C43.0243 31.4637 43.3158 32.2264 43.4859 33.0201C43.643 33.846 43.6969 34.6882 43.6463 35.5274C43.5565 37.3274 43.2461 39.1096 42.7223 40.834C41.5335 44.8194 39.9855 47.5337 38.0782 48.977C36.171 50.4202 33.5635 50.661 30.2558 49.6992C28.6949 49.2959 27.25 48.5329 26.0367 47.4713C25.071 46.526 24.3724 45.342 24.012 44.0396C23.7112 42.8357 23.6297 41.5875 23.7714 40.3547C23.9302 38.7216 24.2552 37.109 24.7414 35.5419ZM30.7929 37.3751C29.9494 40.1703 29.64 42.1439 29.8147 43.3222C29.8429 43.814 30.0195 44.2856 30.3213 44.675C30.623 45.0643 31.0357 45.353 31.5049 45.5029C31.8024 45.5963 32.1155 45.6297 32.426 45.6011C32.7366 45.5725 33.0383 45.4825 33.3137 45.3363C34.0125 44.9203 34.5746 44.3094 34.9312 43.5785C35.6262 42.2077 36.1768 40.7683 36.5741 39.2836C37.4431 36.3634 37.783 34.3289 37.5939 33.1801C37.5515 32.6815 37.3589 32.2074 37.0414 31.8206C36.724 31.4338 36.2967 31.1525 35.8159 31.0137C35.3401 30.8677 34.8303 30.8752 34.359 31.0353C33.8877 31.1953 33.4788 31.4997 33.1902 31.9052C32.4245 32.7858 31.6254 34.6091 30.7929 37.3751Z" fill="#FAFAFA"/>
<path d="M51.6337 41.0114L46.1291 38.3441C46.9954 36.7552 48.401 35.5282 50.0923 34.8845C51.7345 34.2951 53.8064 34.3543 56.308 35.0621C59.193 35.867 61.1416 36.97 62.1129 38.4237C62.5898 39.0766 62.9094 39.8309 63.0468 40.6278C63.1841 41.4246 63.1355 42.2424 62.9047 43.0173C62.6602 43.9453 62.1328 44.7742 61.3957 45.3888C60.5383 46.0717 59.5298 46.5391 58.4545 46.7519C59.098 47.0917 59.6877 47.5247 60.2045 48.037C60.8005 48.6721 61.2171 49.4541 61.4116 50.3031C61.6118 51.2364 61.5671 52.2055 61.2816 53.1163C60.9136 54.415 60.2083 55.5932 59.2374 56.5311C58.2354 57.5233 56.9565 58.189 55.5689 58.4404C53.8007 58.7005 51.9962 58.5462 50.2979 57.9898C48.6665 57.6003 47.1229 56.9075 45.7476 55.9474C44.7572 55.1994 43.9715 54.2139 43.463 53.0818C42.9475 51.842 42.6885 50.5106 42.7016 49.168L49.0588 50.075C48.9001 51.0533 49.0391 52.0567 49.4575 52.9551C49.8479 53.5862 50.4718 54.0373 51.1934 54.2104C51.5791 54.3275 51.9858 54.3588 52.385 54.3019C52.7841 54.245 53.1659 54.1014 53.5036 53.8812C54.2628 53.3748 54.7984 52.596 54.9996 51.7059C55.2952 50.8543 55.2492 49.9214 54.8714 49.103C54.6799 48.7379 54.4129 48.4176 54.0882 48.1635C53.7634 47.9094 53.3884 47.7273 52.9879 47.6291C52.3028 47.4735 51.6001 47.409 50.8981 47.4372L52.4406 43.1424C52.6935 43.258 52.9533 43.358 53.2185 43.4419C53.9588 43.6666 54.7578 43.5918 55.4435 43.2335C55.7639 43.0769 56.0471 42.8534 56.2738 42.5782C56.5005 42.3029 56.6656 41.9822 56.7579 41.6377C56.8574 41.3477 56.8956 41.0402 56.8701 40.7347C56.8446 40.4291 56.756 40.1322 56.6097 39.8628C56.4479 39.5924 56.2325 39.3581 55.9767 39.1741C55.721 38.9901 55.4303 38.8603 55.1226 38.7928C54.8035 38.6894 54.4671 38.6507 54.1328 38.6788C53.7986 38.7069 53.4734 38.8014 53.1761 38.9566C52.4564 39.46 51.9161 40.1798 51.6337 41.0114Z" fill="#FAFAFA"/>
</svg>
