<svg width="251" height="42" viewBox="0 0 251 42" fill="none" xmlns="http://www.w3.org/2000/svg">
<path d="M10.495 10.269L27.8765 19.3603C28.1036 19.4737 28.3686 19.4737 28.5958 19.3603L45.9772 10.269C46.318 10.0801 46.318 9.62654 45.9772 9.43758L28.6 0.342114C28.3728 0.228735 28.1078 0.228735 27.8807 0.342114L10.495 9.43338C10.1543 9.62234 10.1543 10.0801 10.495 10.269ZM5.67429 18.68L27.8765 30.274C28.1036 30.3874 28.3686 30.3874 28.5958 30.274L50.7979 18.68C51.1387 18.4911 51.1387 18.0375 50.7979 17.8486L44.4208 14.5144L28.6 22.8078C28.3728 22.9212 28.1078 22.9212 27.8807 22.8078L12.0514 14.548L5.67429 17.8822C5.33356 18.0333 5.33356 18.4911 5.67429 18.68ZM55.8879 26.7467L48.905 23.1102L28.6 33.7551C28.3728 33.8685 28.1078 33.8685 27.8807 33.7551L7.53359 23.1102L0.550714 26.7467C0.209983 26.9356 0.209983 27.3892 0.550714 27.5781L27.8386 41.8638C28.0658 41.9772 28.3308 41.9772 28.5579 41.8638L55.8458 27.5781C56.2286 27.3934 56.2286 26.9398 55.8879 26.7467Z" fill="#E3E3E3"/>
<path d="M161.855 30.5386C160.639 31.5254 159.007 32.1679 156.959 32.1679C154.569 32.1679 152.668 31.3365 151.721 30.1985V39.2898H146.901V11.6674H151.036L151.339 13.8636C152.517 12.0076 154.754 11.2097 156.954 11.2097C158.965 11.2097 160.559 11.89 161.813 12.9146C164.202 14.884 165.38 17.878 165.38 21.6279C165.422 25.5374 164.244 28.5692 161.855 30.5386ZM159.272 16.824C158.591 15.9506 157.527 15.2326 156.046 15.2326C152.289 15.2326 151.49 18.7935 151.49 21.6741C151.49 24.5548 152.247 28.0779 156.046 28.0779C157.564 28.0779 158.591 27.3976 159.272 26.4864C160.261 25.1972 160.526 23.379 160.526 21.6363C160.526 19.965 160.261 18.1468 159.272 16.824Z" fill="#E3E3E3"/>
<path d="M68.0701 31.6345V4.43213H73.0422V26.9734H82.4565L85.1907 31.6723L68.0701 31.6345Z" fill="#E3E3E3"/>
<path d="M139.043 31.6345L138.74 29.4384C137.562 31.2944 135.324 32.0923 133.124 32.0923C131.114 32.0923 129.481 31.412 128.266 30.4252C125.876 28.4557 124.736 25.4617 124.736 21.7118C124.736 17.8108 125.914 14.779 128.304 12.8095C129.519 11.8227 131.151 11.218 133.162 11.218C135.707 11.218 137.529 12.0495 138.399 13.1119V4.43213H143.182V31.6345H139.043ZM134.113 15.2325C132.632 15.2325 131.568 15.9127 130.886 16.7862C129.898 18.0753 129.633 19.8936 129.633 21.5985C129.633 23.3033 129.898 25.1594 130.886 26.4485C131.568 27.322 132.632 28.0022 134.113 28.0022C137.869 28.0022 138.631 24.4413 138.631 21.5607C138.631 18.68 137.869 15.2325 134.113 15.2325Z" fill="#E3E3E3"/>
<path d="M204.552 29.476C202.654 28.1869 200.072 28.1491 198.061 28.1491H194.759C193.77 28.1491 192.559 27.8845 192.559 26.7088C192.559 26.0663 193.089 25.5708 193.547 25.3062C194.536 25.6464 195.672 25.8353 196.774 25.8353C201.064 25.8353 204.745 23.2192 204.745 19.0158C204.745 15.8706 202.28 14.888 202.242 14.8082H206.377L208.464 11.2473H196.774C192.294 11.2473 188.613 13.8256 188.613 18.5581C188.613 20.6031 189.37 22.2324 190.624 23.446C189.029 24.4328 188.234 25.7933 188.234 27.4604C188.234 28.7496 188.954 30.1899 190.245 30.8702C187.931 32.0082 187.208 34.998 188.499 37.5385C190.737 40.6081 194.153 40.9482 197.342 40.9482C201.784 40.9482 206.983 39.5457 206.983 34.2799C206.983 32.3567 206.259 30.6896 204.552 29.476ZM196.811 14.8124C199.012 14.8124 200.341 16.3661 200.341 18.5245C200.341 20.6829 199.012 22.1988 196.811 22.1988C194.611 22.1988 193.282 20.6829 193.282 18.5245C193.282 16.3661 194.611 14.8124 196.811 14.8124ZM197.152 37.169C195.255 37.169 192.104 36.9422 192.104 34.4017C192.104 33.1503 192.862 32.2433 193.926 31.941H197.682C199.504 31.941 202.427 31.941 202.427 34.4017C202.427 37.0556 199.049 37.169 197.152 37.169Z" fill="#E3E3E3"/>
<path d="M248.237 16.1018C246.832 16.1018 245.772 15.0016 245.772 13.6033C245.772 12.2049 246.836 11.1047 248.237 11.1047C249.642 11.1047 250.702 12.2049 250.702 13.6033C250.702 15.0016 249.679 16.1018 248.237 16.1018ZM248.237 11.5163C247.021 11.5163 246.226 12.3897 246.226 13.5991C246.226 14.8126 247.021 15.6819 248.237 15.6819C249.452 15.6819 250.247 14.8084 250.247 13.5991C250.252 12.3897 249.452 11.5163 248.237 11.5163ZM248.809 14.8504L248.354 13.9014H247.824V14.8504H247.408V12.2343H248.359C248.851 12.2343 249.271 12.5367 249.271 13.0658C249.271 13.4059 249.12 13.6704 248.817 13.8216L249.309 14.8462H248.809V14.8504ZM248.35 12.692H247.82V13.4857H248.35C248.615 13.4857 248.804 13.3723 248.804 13.07C248.809 12.8054 248.619 12.692 248.35 12.692Z" fill="#E3E3E3"/>
<path d="M235.903 32.1679C234.801 32.1679 233.514 32.0167 232.449 31.6766C229.904 30.8452 227.78 28.9471 227.212 26.2974L231.12 24.8949C231.537 27.2045 233.779 28.3047 235.941 28.3047C237.157 28.3047 238.065 28.1535 238.789 27.7378C239.432 27.3598 239.777 26.8265 239.777 26.1463C239.777 24.9327 239.02 24.2902 237.729 24.0635L232.942 23.2236C229.677 22.6567 227.894 20.343 227.894 17.8445C227.894 13.9434 231.423 11.2517 235.941 11.2517C239.811 11.2517 242.924 12.881 243.874 16.4797L239.924 17.9956C239.508 15.9884 237.687 15.0394 235.979 15.0394C235.335 15.0394 234.687 15.0772 234.006 15.3417C233.131 15.6819 232.487 16.2907 232.487 17.2734C232.487 18.6759 233.703 18.9027 234.801 19.0916L238.784 19.8475C241.935 20.4522 244.324 22.4636 244.324 25.5668C244.253 29.5896 241.027 32.1679 235.903 32.1679Z" fill="#E3E3E3"/>
<path d="M102.231 22.8834H88.6064C88.6442 25.8774 90.92 27.9224 93.6921 27.9224C96.3885 27.9224 97.7893 26.5577 98.5128 24.7772L102.269 26.3687C101.281 29.3628 98.2856 31.9747 93.7678 31.9747C87.9628 31.9747 83.7478 27.7293 83.7478 21.5187C83.7478 15.9127 87.2014 10.9871 93.3135 10.9871C96.6535 10.9871 99.3878 12.4274 100.982 15.1527C102.046 16.9709 102.387 19.0537 102.349 21.2163C102.345 22.2409 102.231 22.8834 102.231 22.8834ZM96.3843 16.0639C95.7028 15.3458 94.6386 14.8881 93.2714 14.8881C90.7265 14.8881 88.7915 16.7064 88.5643 19.4359H97.52C97.5243 18.0333 97.1457 16.8995 96.3843 16.0639Z" fill="#E3E3E3"/>
<path d="M121.661 26.709C121.661 27.6202 122.191 27.9603 122.991 27.9603C123.294 27.9603 123.559 27.8847 123.559 27.8847V31.2567C123.029 31.6346 122.457 31.937 121.283 31.937C119.196 31.937 117.754 30.6478 117.602 29.1319C116.5 30.799 114.376 32.1259 111.528 32.1259C106.745 32.1259 104.318 29.1319 104.318 25.8733C104.318 22.0856 107.279 19.8853 111.074 19.6207L116.954 19.205V18.4113C116.954 16.2907 115.549 15.0772 113.198 15.0772C110.501 15.0772 109.214 16.3663 108.869 18.3736L104.848 17.5001C105.151 14.166 108.339 11.2097 113.349 11.2097C118.549 11.2097 121.699 13.7502 121.699 18.7893L121.661 26.709ZM116.954 22.7701L111.869 23.148C110.426 23.2614 108.983 24.1349 108.983 25.7641C108.983 27.3178 110.236 28.2627 111.831 28.2627C114.83 28.2627 116.954 26.6334 116.954 23.6771V22.7701Z" fill="#E3E3E3"/>
<path d="M184.247 26.709C184.247 27.6202 184.777 27.9603 185.576 27.9603C185.879 27.9603 186.144 27.8847 186.144 27.8847V31.2567C185.614 31.6346 185.042 31.937 183.868 31.937C181.782 31.937 180.339 30.6478 180.187 29.1319C179.085 30.799 176.961 32.1259 174.113 32.1259C169.33 32.1259 166.903 29.1319 166.903 25.8733C166.903 22.0856 169.864 19.8853 173.659 19.6207L179.539 19.205V18.4113C179.539 16.2907 178.134 15.0772 175.783 15.0772C173.087 15.0772 171.799 16.3663 171.454 18.3736L167.433 17.5001C167.736 14.166 170.924 11.2097 175.934 11.2097C181.134 11.2097 184.284 13.7502 184.284 18.7893L184.247 26.709ZM179.581 22.7701L174.496 23.148C173.053 23.2614 171.61 24.1349 171.61 25.7641C171.61 27.3178 172.864 28.2627 174.458 28.2627C177.457 28.2627 179.581 26.6334 179.581 23.6771V22.7701Z" fill="#E3E3E3"/>
<path d="M225.883 22.8834H212.258C212.296 25.8774 214.572 27.9224 217.344 27.9224C220.04 27.9224 221.441 26.5577 222.164 24.7772L225.921 26.3687C224.932 29.3628 221.937 31.9747 217.419 31.9747C211.614 31.9747 207.399 27.7293 207.399 21.5187C207.399 15.9127 210.853 10.9871 216.965 10.9871C220.305 10.9871 223.039 12.4274 224.634 15.1527C225.698 16.9709 226.039 19.0537 226.001 21.2163C225.997 22.2409 225.883 22.8834 225.883 22.8834ZM220.04 16.0639C219.359 15.3458 218.294 14.8881 216.927 14.8881C214.382 14.8881 212.447 16.7064 212.22 19.4359H221.214C221.176 18.0333 220.797 16.8995 220.04 16.0639Z" fill="#E3E3E3"/>
</svg>
