<svg width="100" height="100" viewBox="0 0 100 100" fill="none" xmlns="http://www.w3.org/2000/svg">
<path d="M84.5553 50.1535C84.6867 31.0225 69.2845 15.4072 50.1535 15.2758C31.0225 15.1444 15.4072 30.5466 15.2758 49.6776C15.1444 68.8086 30.5466 84.4239 49.6776 84.5553C68.8086 84.6867 84.4239 69.2845 84.5553 50.1535Z" fill="#456ECA"/>
<path d="M29.496 53.9889C28.5247 49.7436 28.61 46.5968 29.7517 44.5486C30.8934 42.5004 33.0281 41.1185 36.1557 40.403C37.4054 40.0773 38.7034 39.9779 39.9881 40.1093C40.9366 40.2223 41.8518 40.5283 42.6775 41.0084C43.3758 41.4227 44.0056 41.9427 44.5446 42.55C45.0858 43.1914 45.545 43.8977 45.9115 44.6527C46.7241 46.2627 47.3352 47.9667 47.731 49.7262C48.6573 53.7748 48.6501 56.8987 47.7095 59.0977C46.7688 61.2968 44.6225 62.7823 41.2706 63.5542C39.7155 63.9812 38.0809 64.0307 36.5029 63.6985C35.1859 63.3658 33.9833 62.6834 33.0222 61.7234C32.1625 60.8241 31.4736 59.7757 30.9893 58.6296C30.3351 57.1375 29.8348 55.5825 29.496 53.9889ZM35.6553 52.5798C36.3061 55.4243 37.0024 57.3095 37.7442 58.2352C38.008 58.6451 38.389 58.9661 38.8377 59.1565C39.2864 59.3469 39.782 59.3978 40.2601 59.3028C40.5631 59.2363 40.8501 59.1106 41.1044 58.9328C41.3587 58.7551 41.5754 58.5288 41.742 58.2671C42.1469 57.5611 42.3356 56.7517 42.2847 55.9395C42.2125 54.4049 41.9808 52.882 41.5934 51.3954C40.913 48.4213 40.2046 46.4834 39.4682 45.5816C39.1855 45.168 38.7841 44.8498 38.3169 44.6688C37.8497 44.4877 37.3387 44.4525 36.851 44.5676C36.3609 44.6729 35.9166 44.9306 35.5817 45.3037C35.2469 45.6768 35.0385 46.1462 34.9865 46.6448C34.7951 47.7941 35.0197 49.7796 35.6602 52.6014L35.6553 52.5798Z" fill="#FAFAFA"/>
<path d="M62.6134 53.8784L51.3023 56.4662L50.1335 51.3574L58.368 35.3214L63.7789 34.0835L66.9215 47.8195L69.7277 47.1775L70.8306 51.9984L68.0244 52.6405L68.9874 56.8498L63.5765 58.0877L62.6134 53.8784ZM61.5105 49.0575L59.9022 42.0275L55.5311 50.4254L61.5105 49.0575Z" fill="#FAFAFA"/>
</svg>
