<svg width="42" height="42" viewBox="0 0 42 42" fill="none" xmlns="http://www.w3.org/2000/svg">
<path d="M32.7774 9.46742L30.5374 11.2174L20.9999 18.3049L11.4624 11.1474L9.22242 9.39742C8.69471 8.96088 8.05053 8.68874 7.36967 8.61474C6.68881 8.54073 6.0012 8.6681 5.39203 8.98107C4.78286 9.29404 4.27889 9.77886 3.94256 10.3755C3.60623 10.972 3.45233 11.6542 3.49992 12.3374V32.6199C3.49992 33.2511 3.75066 33.8565 4.197 34.3028C4.64334 34.7492 5.2487 34.9999 5.87992 34.9999H11.4624V21.4899L20.9999 28.6474L30.5374 21.4899V34.9999H36.1199C36.7511 34.9999 37.3565 34.7492 37.8028 34.3028C38.2492 33.8565 38.4999 33.2511 38.4999 32.6199V12.3374C38.5328 11.6601 38.3682 10.9878 38.0261 10.4023C37.684 9.8168 37.1793 9.34325 36.5731 9.03925C35.9669 8.73525 35.2855 8.61388 34.6117 8.68989C33.9379 8.7659 33.3006 9.03602 32.7774 9.46742Z" fill="white"/>
</svg>
