<svg width="562" height="56" viewBox="0 0 562 56" fill="none" xmlns="http://www.w3.org/2000/svg">
<rect x="44" y="27.0002" width="139" height="4" rx="2" fill="#525FE1"/>
<rect x="216" y="27.0002" width="137" height="4" rx="2" fill="#6C757D"/>
<rect x="383" y="27.0002" width="137" height="4" rx="2" fill="#6C757D"/>
<path d="M218.438 33.3493C220.859 23.0884 214.504 12.8071 204.244 10.3853C193.983 7.9635 183.701 14.3183 181.28 24.5792C178.858 34.8401 185.213 45.1215 195.474 47.5432C205.734 49.965 216.016 43.6102 218.438 33.3493Z" fill="#525FE1"/>
<path d="M187.957 27.7101C187.609 25.3355 187.794 23.6106 188.51 22.5353C189.227 21.46 190.46 20.7942 192.209 20.5377C192.91 20.4134 193.627 20.4154 194.327 20.5437C194.843 20.6472 195.333 20.8553 195.765 21.1551C196.131 21.4132 196.454 21.7264 196.724 22.0835C196.993 22.4595 197.214 22.8676 197.383 23.2983C197.759 24.2182 198.02 25.181 198.161 26.1648C198.493 28.4294 198.352 30.1451 197.74 31.312C197.127 32.479 195.883 33.1986 194.007 33.4709C193.134 33.6375 192.234 33.5933 191.381 33.3419C190.672 33.1016 190.041 32.6742 189.555 32.1049C189.122 31.5733 188.79 30.9673 188.574 30.3166C188.281 29.4709 188.074 28.5975 187.957 27.7101ZM191.402 27.205C191.636 28.796 191.929 29.863 192.283 30.4059C192.41 30.6426 192.605 30.8356 192.843 30.9598C193.081 31.084 193.352 31.1336 193.618 31.1023C193.788 31.079 193.951 31.0224 194.098 30.9359C194.246 30.8494 194.375 30.7346 194.478 30.5981C194.731 30.2279 194.87 29.7915 194.877 29.3431C194.905 28.4969 194.844 27.6502 194.696 26.8167C194.452 25.1532 194.148 24.0576 193.783 23.5301C193.645 23.2906 193.439 23.0982 193.19 22.9784C192.941 22.8585 192.662 22.8168 192.389 22.8588C192.115 22.8952 191.86 23.0174 191.66 23.2077C191.459 23.398 191.325 23.6468 191.274 23.9184C191.14 24.5425 191.173 25.6394 191.404 27.2171L191.402 27.205Z" fill="#FAFAFA"/>
<path d="M209.425 35.9468L199.098 33.8636C199.43 32.8574 199.999 31.946 200.759 31.2067C201.537 30.4316 202.876 29.5951 204.775 28.6973C205.589 28.3599 206.355 27.9173 207.053 27.3808C207.372 27.1185 207.598 26.7614 207.699 26.3616C207.74 26.1822 207.743 25.9961 207.708 25.8154C207.673 25.6346 207.601 25.4632 207.496 25.3122C207.256 24.9909 206.906 24.7694 206.513 24.6902C206.12 24.6109 205.712 24.6795 205.366 24.8827C204.947 25.2323 204.647 25.7043 204.509 26.2327L201.12 25.2586C201.36 24.4722 201.771 23.7488 202.323 23.1403C202.811 22.6591 203.428 22.3307 204.099 22.1955C205.034 22.0453 205.99 22.0844 206.91 22.3102C207.878 22.4593 208.81 22.788 209.657 23.2792C210.256 23.6608 210.723 24.2171 210.995 24.8729C211.266 25.5169 211.332 26.2284 211.186 26.9114C211.026 27.6803 210.645 28.3854 210.088 28.939C209.256 29.7033 208.29 30.3074 207.238 30.7212C206.448 31.0598 205.918 31.3014 205.648 31.4461C205.378 31.5909 205.053 31.7866 204.671 32.0332L210.046 33.1175L209.425 35.9468Z" fill="#FAFAFA"/>
<path d="M362.308 46.8189C372.491 49.5476 382.959 43.5042 385.687 33.3207C388.416 23.1371 382.373 12.6696 372.189 9.94096C362.005 7.21228 351.538 13.2557 348.809 23.4392C346.081 33.6228 352.124 44.0903 362.308 46.8189Z" fill="#6C757D"/>
<path d="M357.502 24.1805C358.192 21.8804 359.089 20.3955 360.191 19.7259C361.294 19.0563 362.695 18.9716 364.396 19.4719C365.084 19.6561 365.733 19.963 366.311 20.3778C366.737 20.6897 367.092 21.0872 367.355 21.5448C367.577 21.9332 367.737 22.3535 367.831 22.7909C367.918 23.246 367.947 23.7101 367.92 24.1726C367.87 25.1645 367.699 26.1466 367.41 27.0969C366.755 29.2931 365.902 30.7889 364.851 31.5842C363.8 32.3796 362.363 32.5122 360.54 31.9823C359.68 31.76 358.884 31.3395 358.215 30.7545C357.683 30.2336 357.298 29.5811 357.1 28.8634C356.934 28.2 356.889 27.5121 356.967 26.8327C357.055 25.9328 357.234 25.0441 357.502 24.1805ZM360.836 25.1908C360.372 26.7311 360.201 27.8187 360.297 28.4681C360.313 28.7391 360.41 28.999 360.577 29.2135C360.743 29.4281 360.97 29.5872 361.229 29.6698C361.393 29.7213 361.565 29.7396 361.736 29.7239C361.908 29.7081 362.074 29.6585 362.226 29.578C362.611 29.3487 362.92 29.0121 363.117 28.6093C363.5 27.8539 363.803 27.0607 364.022 26.2425C364.501 24.6332 364.688 23.5121 364.584 22.879C364.561 22.6042 364.455 22.343 364.28 22.1299C364.105 21.9167 363.869 21.7617 363.604 21.6852C363.342 21.6047 363.061 21.6089 362.802 21.6971C362.542 21.7853 362.317 21.953 362.158 22.1765C361.736 22.6617 361.295 23.6665 360.836 25.1908Z" fill="#FAFAFA"/>
<path d="M372.323 27.1945L369.29 25.7247C369.767 24.8491 370.542 24.1729 371.474 23.8182C372.379 23.4934 373.52 23.526 374.899 23.9161C376.489 24.3596 377.563 24.9675 378.098 25.7685C378.361 26.1284 378.537 26.544 378.613 26.9831C378.688 27.4222 378.661 27.8729 378.534 28.2999C378.4 28.8113 378.109 29.2681 377.703 29.6068C377.23 29.9831 376.674 30.2407 376.082 30.358C376.436 30.5452 376.761 30.7838 377.046 31.0661C377.375 31.4161 377.604 31.8471 377.711 32.315C377.822 32.8292 377.797 33.3633 377.64 33.8652C377.437 34.5809 377.048 35.2302 376.513 35.747C375.961 36.2938 375.256 36.6606 374.492 36.7992C373.517 36.9425 372.523 36.8575 371.587 36.5508C370.688 36.3362 369.837 35.9544 369.079 35.4254C368.534 35.0132 368.101 34.47 367.821 33.8462C367.536 33.163 367.394 32.4293 367.401 31.6894L370.904 32.1892C370.817 32.7284 370.893 33.2813 371.124 33.7764C371.339 34.1241 371.683 34.3728 372.08 34.4681C372.293 34.5327 372.517 34.5499 372.737 34.5186C372.957 34.4872 373.167 34.4081 373.354 34.2867C373.772 34.0077 374.067 33.5785 374.178 33.088C374.341 32.6187 374.316 32.1046 374.107 31.6536C374.002 31.4524 373.855 31.2759 373.676 31.1359C373.497 30.9958 373.29 30.8955 373.069 30.8414C372.692 30.7556 372.305 30.7201 371.918 30.7356L372.768 28.3689C372.907 28.4326 373.05 28.4877 373.196 28.5339C373.604 28.6578 374.045 28.6165 374.423 28.4191C374.599 28.3328 374.755 28.2096 374.88 28.0579C375.005 27.9062 375.096 27.7295 375.147 27.5397C375.202 27.3799 375.223 27.2104 375.209 27.042C375.195 26.8737 375.146 26.7101 375.065 26.5616C374.976 26.4126 374.857 26.2834 374.716 26.182C374.576 26.0806 374.415 26.0091 374.246 25.9719C374.07 25.915 373.885 25.8936 373.7 25.9091C373.516 25.9246 373.337 25.9767 373.173 26.0622C372.777 26.3396 372.479 26.7363 372.323 27.1945Z" fill="#FAFAFA"/>
<path d="M553.579 28.3957C553.651 17.8531 545.163 9.24795 534.621 9.17553C524.078 9.10312 515.473 17.5909 515.401 28.1334C515.328 38.676 523.816 47.2811 534.359 47.3535C544.901 47.426 553.506 38.9382 553.579 28.3957Z" fill="#6C757D"/>
<path d="M523.24 30.5092C522.705 28.1698 522.752 26.4357 523.381 25.307C524.01 24.1783 525.187 23.4168 526.91 23.0225C527.599 22.843 528.314 22.7882 529.022 22.8606C529.545 22.9229 530.049 23.0915 530.504 23.3561C530.889 23.5844 531.236 23.8709 531.533 24.2056C531.831 24.559 532.084 24.9483 532.286 25.3644C532.734 26.2516 533.071 27.1906 533.289 28.1602C533.799 30.3913 533.796 32.1127 533.277 33.3246C532.759 34.5364 531.576 35.3551 529.729 35.7804C528.872 36.0157 527.971 36.043 527.102 35.8599C526.376 35.6766 525.713 35.3006 525.183 34.7715C524.71 34.2759 524.33 33.6982 524.063 33.0666C523.703 32.2444 523.427 31.3875 523.24 30.5092ZM526.634 29.7327C526.993 31.3003 527.377 32.3391 527.786 32.8493C527.931 33.0751 528.141 33.252 528.388 33.357C528.635 33.4619 528.909 33.49 529.172 33.4376C529.339 33.4009 529.497 33.3317 529.637 33.2337C529.777 33.1358 529.897 33.0111 529.989 32.8669C530.212 32.4778 530.316 32.0318 530.288 31.5842C530.248 30.7385 530.12 29.8993 529.907 29.08C529.532 27.4411 529.141 26.3732 528.736 25.8763C528.58 25.6483 528.359 25.4729 528.101 25.3732C527.844 25.2734 527.562 25.254 527.293 25.3174C527.023 25.3755 526.778 25.5175 526.594 25.7231C526.409 25.9287 526.295 26.1874 526.266 26.4622C526.16 27.0955 526.284 28.1897 526.637 29.7446L526.634 29.7327Z" fill="#FAFAFA"/>
<path d="M541.491 30.4484L535.258 31.8744L534.613 29.0591L539.151 20.2221L542.133 19.5399L543.865 27.1095L545.411 26.7557L546.019 29.4124L544.473 29.7662L545.003 32.0858L542.022 32.768L541.491 30.4484ZM540.883 27.7917L539.997 23.9177L537.588 28.5455L540.883 27.7917Z" fill="#FAFAFA"/>
<path d="M46.0781 25.6517C44.8081 15.1856 35.2942 7.73069 24.8282 9.00062C14.3622 10.2705 6.90722 19.7844 8.17715 30.2505C9.44708 40.7165 18.961 48.1714 29.427 46.9015C39.8931 45.6316 47.348 36.1177 46.0781 25.6517Z" fill="#525FE1"/>
<path d="M16.933 28.9742C16.9785 26.5747 17.4428 24.9033 18.3259 23.9599C19.209 23.0165 20.5344 22.5616 22.3021 22.5951C23.0138 22.5872 23.7211 22.7068 24.3907 22.948C24.8835 23.1356 25.3334 23.4209 25.7132 23.7867C26.0306 24.102 26.2981 24.4638 26.5066 24.8596C26.7107 25.2746 26.8623 25.7134 26.9578 26.1659C27.1781 27.135 27.2782 28.1276 27.2557 29.1211C27.2123 31.4095 26.7928 33.079 25.9972 34.1298C25.2016 35.1807 23.8562 35.6868 21.961 35.6481C21.0727 35.6691 20.1921 35.478 19.3923 35.0909C18.7322 34.7377 18.1799 34.2128 17.7937 33.5715C17.4536 32.9762 17.2248 32.3239 17.1183 31.6466C16.9661 30.7644 16.904 29.869 16.933 28.9742ZM20.4142 29.0402C20.3838 30.648 20.4985 31.7487 20.7585 32.3421C20.845 32.5964 21.006 32.8188 21.2206 32.9803C21.4353 33.1418 21.6935 33.235 21.9618 33.2478C22.3081 33.2568 22.6439 33.1286 22.8962 32.8912C23.2036 32.5654 23.4117 32.1586 23.4961 31.7187C23.6577 30.8879 23.7351 30.0429 23.727 29.1966C23.7589 27.5156 23.6447 26.3852 23.3845 25.8052C23.2885 25.5471 23.1168 25.3239 22.8919 25.165C22.667 25.0061 22.3993 24.9189 22.1239 24.9148C21.8471 24.905 21.5743 24.9833 21.3448 25.1383C21.1152 25.2933 20.9407 25.517 20.8463 25.7775C20.5884 26.3665 20.4442 27.4582 20.414 29.0524L20.4142 29.0402Z" fill="#FAFAFA"/>
<path d="M34.2676 18.8005L37.8449 31.1633L34.4338 32.1504L32.0934 24.0622C31.7042 24.5957 31.2667 25.0922 30.7865 25.5456C30.2446 26.0295 29.6629 26.467 29.0476 26.8533L28.2483 24.0908C29.1323 23.5337 29.9073 22.8201 30.5353 21.985C31.0213 21.281 31.3414 20.4761 31.4717 19.6307L34.2676 18.8005Z" fill="#FAFAFA"/>
</svg>
