<svg width="152" height="193" viewBox="0 0 152 193" fill="none" xmlns="http://www.w3.org/2000/svg">
<ellipse cx="82.5" cy="183.5" rx="41.5" ry="9.5" fill="#D9D9D9" fill-opacity="0.7"/>
<path d="M111.538 178.318L106.575 177.748L105.292 167.748L111.357 169.548L111.538 178.318Z" fill="#B16668"/>
<path d="M100.665 186.475C100.593 186.672 100.563 186.882 100.578 187.091C100.593 187.3 100.651 187.504 100.75 187.689C101.282 188.307 102.656 189.031 104.53 189.164C106.325 189.292 107.922 189.052 108.971 188.387C109.427 188.151 109.818 187.806 110.108 187.382C110.398 186.958 110.578 186.469 110.632 185.959C110.734 184.942 110.632 183.957 111.106 183.174C111.58 182.391 112.267 181.63 112.422 181.236C112.606 180.556 112.606 179.839 112.422 179.159L100.665 186.475Z" fill="#263238"/>
<path d="M105.569 177.572C105.553 177.958 105.483 178.34 105.361 178.706C105.086 179.495 104.718 180.247 104.264 180.948C104.041 181.32 103.792 181.676 103.519 182.013C102.986 182.657 102.305 183.19 101.729 183.807C101.119 184.39 100.728 185.164 100.622 186.001C100.547 187.407 102.784 187.886 103.961 188.094C105.23 188.315 106.532 188.25 107.773 187.902C108.424 187.732 109.013 187.378 109.468 186.882C109.924 186.387 110.226 185.77 110.34 185.106C110.409 184.712 110.382 184.313 110.43 183.924C110.585 183.027 110.96 182.182 111.522 181.464C111.848 181.05 112.128 180.602 112.358 180.128C112.725 179.26 112.432 178.28 112.198 177.418C111.996 176.667 111.751 175.82 111.484 175.879C111.484 176.267 111.484 176.321 111.223 176.582C110.963 176.843 110.861 177.418 110.489 177.71C110.608 177.386 110.695 177.051 110.75 176.709C110.773 176.573 110.744 176.432 110.67 176.315C110.546 176.205 110.398 176.125 110.238 176.081C109.685 175.896 109.114 175.766 108.534 175.692C107.744 175.602 106.945 175.602 106.154 175.692C105.99 175.722 105.841 175.809 105.734 175.937C105.638 176.079 105.586 176.246 105.585 176.417C105.558 176.619 105.579 177.199 105.569 177.572Z" fill="#455A64"/>
<path d="M104.072 181.246C104.605 180.852 106.484 180.847 107.123 180.916C107.775 180.972 108.401 181.191 108.944 181.555C109.024 181.612 109.121 181.638 109.218 181.631C109.316 181.623 109.407 181.581 109.477 181.512C109.517 181.472 109.548 181.424 109.568 181.371C109.588 181.318 109.597 181.261 109.593 181.204C109.589 181.148 109.572 181.093 109.545 181.043C109.518 180.993 109.48 180.95 109.434 180.916C108.838 180.476 108.129 180.212 107.39 180.155C106.467 180.087 105.54 180.141 104.631 180.314C104.631 180.314 103.918 180.778 104.072 181.246Z" fill="#F5F5F5"/>
<path d="M102.869 182.705C103.529 182.316 105.531 182.37 106.176 182.439C106.814 182.504 107.424 182.738 107.943 183.115C108.023 183.171 108.12 183.197 108.217 183.189C108.314 183.181 108.406 183.14 108.476 183.072C108.516 183.032 108.548 182.984 108.567 182.931C108.587 182.878 108.596 182.821 108.592 182.764C108.588 182.708 108.571 182.653 108.544 182.603C108.517 182.553 108.479 182.51 108.433 182.476C107.56 182.024 106.607 181.745 105.627 181.656C104.03 181.544 103.641 181.864 103.641 181.864C103.458 181.938 103.293 182.051 103.16 182.197C103.026 182.343 102.927 182.516 102.869 182.705Z" fill="#F5F5F5"/>
<path d="M108.018 178.648C107.117 178.545 106.205 178.6 105.324 178.813C105.047 178.967 104.86 179.409 105.041 179.521C105.846 179.304 106.681 179.221 107.512 179.276C108.102 179.335 108.679 179.493 109.216 179.744C109.355 179.808 109.514 179.888 109.653 179.968C109.697 179.996 109.747 180.015 109.8 180.022C109.852 180.029 109.905 180.025 109.955 180.01C110.006 179.995 110.053 179.969 110.092 179.934C110.132 179.899 110.164 179.856 110.185 179.808C110.223 179.73 110.23 179.64 110.206 179.556C110.181 179.473 110.126 179.401 110.052 179.356C109.432 178.977 108.739 178.736 108.018 178.648Z" fill="#F5F5F5"/>
<path d="M93.0341 173.77L88.3164 172.455V162.918L94.1683 163.174L93.0341 173.77Z" fill="#B16668"/>
<path d="M78.3486 178.877C78.2155 179.288 78.2402 179.734 78.4178 180.128C78.5935 180.49 80.5051 181.571 83.0822 181.395C84.9912 181.258 86.8292 180.615 88.407 179.532C89.3867 178.882 90.409 178.759 91.687 178.69C92.9649 178.621 94.6369 177.977 94.9191 177.38C95.0628 176.846 95.048 176.282 94.8765 175.756L78.3486 178.877Z" fill="#263238"/>
<path d="M88.7317 170.836L88.5294 170.794C88.4173 170.767 88.3007 170.767 88.1886 170.794C88.0648 170.834 87.9543 170.908 87.8691 171.007C87.6177 171.331 87.3983 171.679 87.2142 172.045C86.6817 172.924 85.5369 173.642 84.3016 174.319C83.4603 174.771 82.6349 175.123 81.767 175.511C80.8991 175.9 79.701 176.156 79.0088 176.624C77.9971 177.306 77.864 179.015 79.0088 179.691C79.9992 180.277 82.619 180.911 85.3612 180.133C86.8521 179.707 88.5134 178.115 90.4729 177.961C91.7189 177.86 94.0777 177.514 94.8818 176.566C95.18 176.145 94.7806 174.814 94.4558 173.664C94.099 172.407 93.7636 170.469 93.3483 170.559C93.3518 170.649 93.3339 170.739 93.2959 170.82C93.2579 170.902 93.201 170.973 93.1299 171.028C92.9755 171.188 92.7679 171.289 92.5975 171.433C92.3068 171.719 92.072 172.056 91.9053 172.428C91.8375 172.594 91.7129 172.73 91.5538 172.812C91.3408 172.886 91.1864 172.759 91.0214 172.673C90.7875 172.566 90.5227 172.547 90.2759 172.62C90.3017 172.37 90.3462 172.123 90.409 171.88C90.4328 171.804 90.4328 171.722 90.409 171.646C90.3788 171.568 90.3222 171.504 90.2493 171.465C89.793 171.151 89.276 170.937 88.7317 170.836Z" fill="#455A64"/>
<path d="M85.4838 173.621C85.5728 173.449 85.7039 173.302 85.865 173.194C86.026 173.086 86.2118 173.02 86.4049 173.003C86.9694 172.897 87.9704 173.318 88.5934 173.829C88.6528 173.876 88.6996 173.938 88.7297 174.007C88.7598 174.077 88.7722 174.153 88.7659 174.229C88.7596 174.305 88.7347 174.378 88.6935 174.442C88.6523 174.506 88.5959 174.559 88.5295 174.596C88.4458 174.643 88.3494 174.663 88.2538 174.652C88.1582 174.642 88.0684 174.601 87.997 174.537C87.3098 173.917 86.4086 173.589 85.4838 173.621Z" fill="#F5F5F5"/>
<path d="M83.7213 174.606C83.8448 174.432 84.0085 174.289 84.1984 174.191C84.3883 174.093 84.5991 174.042 84.8129 174.042C85.6884 174.08 86.5292 174.395 87.2143 174.942C87.2704 174.988 87.3144 175.048 87.3425 175.115C87.3705 175.183 87.3819 175.256 87.3757 175.328C87.3694 175.401 87.3456 175.471 87.3064 175.533C87.2672 175.594 87.2137 175.645 87.1504 175.682C87.0675 175.732 86.9705 175.753 86.8743 175.742C86.7781 175.732 86.6881 175.69 86.618 175.623C86.2413 175.249 85.7858 174.963 85.2846 174.787C84.7835 174.611 84.2494 174.549 83.7213 174.606Z" fill="#F5F5F5"/>
<path d="M81.8097 175.49C81.9502 175.33 82.1239 175.201 82.3187 175.114C82.5136 175.026 82.725 174.982 82.9385 174.984C83.7815 175.036 84.5865 175.353 85.2388 175.89C85.2949 175.937 85.3388 175.997 85.3668 176.065C85.3949 176.132 85.4062 176.206 85.4 176.279C85.3937 176.352 85.37 176.422 85.3308 176.484C85.2917 176.546 85.2382 176.598 85.1749 176.635C85.092 176.685 84.995 176.706 84.8988 176.696C84.8026 176.685 84.7125 176.643 84.6424 176.577C84.2865 176.189 83.8454 175.889 83.3538 175.7C82.8623 175.512 82.3337 175.44 81.8097 175.49Z" fill="#F5F5F5"/>
<path d="M110.451 111.551C110.776 121.386 110.797 142.685 110.797 142.685C110.899 143.909 111.005 146.082 111.096 150.491C111.229 156.88 111.538 172.657 111.538 172.657C111.538 172.657 108.487 174.09 105.68 172.924C105.68 172.924 101.783 150.741 100.984 144.415C100.286 138.893 98.95 125.944 98.95 125.944L97.1076 142.381C97.1076 142.381 97.1076 146.641 96.8574 150.4C96.6497 153.329 93.8063 168.414 93.8063 168.414C91.9492 168.907 89.9879 168.842 88.1674 168.227C88.1674 168.227 87.9118 145.07 87.8586 142.381C87.8 139.325 88.5881 106.28 88.5881 106.28L110.451 111.551Z" fill="#455A64"/>
<path d="M98.9607 125.944L98.2578 120.369C95.9881 119.788 93.8416 118.804 91.9214 117.461C91.9214 117.461 93.2739 119.272 97.2461 121.189L98.1407 126.247L97.129 142.381L98.9607 125.944Z" fill="#37474F"/>
<path d="M88.3379 83.953C86.9002 85.8379 79.5042 95.9868 79.5042 95.9868L72.6726 90.6941C71.0752 89.4428 70.6013 87.8027 69.6002 86.6686C68.5992 85.5344 67.5023 85.2629 66.3788 84.3151C65.2552 83.3673 64.824 82.6484 64.4406 83.4578C64.0572 84.2671 65.2979 85.6782 65.5055 86.019C65.7132 86.3597 66.9964 87.1744 65.3032 87.0839C63.6099 86.9934 60.3512 85.0605 59.5631 84.7038C58.7751 84.347 58.7538 85.3214 59.1265 85.9604C59.4992 86.5994 59.3129 88.3778 59.7495 89.5226C60.1861 90.6674 60.9529 91.3703 62.513 92.1424C63.9667 92.8665 67.5023 93.3191 68.6524 94.0433C71.1763 96.6311 75.9366 101.461 77.14 102.355C78.796 103.585 80.3987 104.719 82.9333 102.281C85.4679 99.8419 92.8106 90.2734 92.8106 90.2734L94.3282 81.1735C91.8362 81.083 90.0737 81.6793 88.3379 83.953Z" fill="#B16668"/>
<path d="M79.504 95.9869C80.4412 96.6791 81.4156 98.2339 81.5061 98.9315C81.4951 98.2706 81.3476 97.6191 81.0727 97.0179C80.7978 96.4168 80.4015 95.8791 79.9087 95.4385L79.504 95.9869Z" fill="#9A4A4D"/>
<path d="M94.9138 80.9499C94.9138 80.9499 91.3995 80.9073 89.8554 81.9883C88.3112 83.0692 87.1664 84.6506 84.6585 88.298C82.4594 91.4929 81.3944 93.0264 81.3944 93.0264C82.834 95.1558 84.9301 96.7564 87.3634 97.5843L93.9235 89.4588L94.9138 80.9499Z" fill="#FF6600"/>
<path d="M101.713 80.7795C103.705 80.9712 106.506 80.9925 108.476 81.1948C109.844 81.7592 112.485 84.0595 112.288 85.6995C111.554 91.8283 110.068 101.876 110.068 101.876L110.558 112.525C107.816 115.262 94.983 116.333 88.3698 111.956C88.3698 111.956 88.5827 92.8293 89.0407 89.5919C89.8553 83.7933 90.5689 81.6421 93.5613 81.1309C96.5538 80.6197 101.713 80.7795 101.713 80.7795Z" fill="#FF6600"/>
<path d="M112.991 84.1073C114.429 85.9922 121.83 96.1411 121.83 96.1411L128.667 90.8484C130.265 89.5917 130.738 87.9517 131.739 86.8229C132.74 85.694 133.837 85.4171 134.961 84.4694C136.084 83.5216 136.516 82.8027 136.899 83.6068C137.282 84.4108 136.042 85.8325 135.834 86.1733C135.626 86.514 134.343 87.3287 136.036 87.2382C137.73 87.1477 140.983 85.2095 141.777 84.8527C142.57 84.496 142.581 85.4704 142.213 86.1094C141.846 86.7483 142.021 88.5321 141.59 89.6769C141.159 90.8217 140.387 91.5193 138.827 92.2967C137.373 93.0208 133.837 93.4734 132.687 94.1976C130.163 96.7801 125.403 101.615 124.2 102.504C122.544 103.734 120.941 104.868 118.406 102.435C115.872 100.002 110.079 92.4245 110.079 92.4245L107.011 81.3278C109.498 81.2373 111.261 81.8336 112.991 84.1073Z" fill="#B16668"/>
<path d="M121.83 96.1414C120.893 96.8336 119.919 98.3884 119.828 99.086C119.838 98.4242 119.986 97.7716 120.261 97.1695C120.535 96.5674 120.932 96.0288 121.426 95.5876L121.83 96.1414Z" fill="#9A4A4D"/>
<path d="M106.66 81.0619C106.66 81.0619 109.818 80.8649 111.479 82.1269C112.975 83.277 114.141 84.7892 116.676 88.4367C118.875 91.6315 119.94 93.165 119.94 93.165C118.497 95.2937 116.4 96.8939 113.966 97.723L109.498 92.2172C107.171 89.2673 104.866 84.7786 106.66 81.0619Z" fill="#FF6600"/>
<path d="M102.209 66.3602C102.219 67.5818 101.867 68.779 101.197 69.8006C100.527 70.8221 99.5695 71.622 98.445 72.0992C97.3204 72.5764 96.0796 72.7094 94.8795 72.4814C93.6793 72.2534 92.5737 71.6746 91.7025 70.8183C90.8313 69.962 90.2336 68.8665 89.9849 67.6705C89.7362 66.4744 89.8478 65.2315 90.3056 64.0989C90.7633 62.9663 91.5466 61.9949 92.5564 61.3074C93.5662 60.62 94.7572 60.2474 95.9788 60.2368C96.7899 60.2298 97.5945 60.3826 98.3466 60.6865C99.0987 60.9905 99.7835 61.4396 100.362 62.0082C100.941 62.5768 101.401 63.2538 101.718 64.0005C102.035 64.7473 102.202 65.5491 102.209 66.3602Z" fill="#263238"/>
<path d="M106.751 70.7158C106.751 70.7158 105.787 75.4282 105.393 76.2003C105.131 76.6798 104.694 77.0401 104.174 77.2066L104.211 73.8947L106.751 70.7158Z" fill="#263238"/>
<path d="M105.435 63.9904C105.785 63.9456 106.139 63.9814 106.473 64.0949C106.806 64.2084 107.109 64.3967 107.358 64.6454C108.188 65.4814 107.752 68.1224 106.751 70.7155L104.866 70.9498L105.435 63.9904Z" fill="#263238"/>
<path d="M104.301 70.9554C104.679 71.179 105.212 70.4229 105.675 69.9544C106.138 69.4858 107.651 68.7829 108.428 70.375C109.205 71.9671 107.789 74.1662 106.596 74.5496C104.536 75.2205 104.211 73.8946 104.211 73.8946L104.126 81.5729C101.591 84.8902 94.4612 84.6719 97.4005 81.2108V78.9425C96.4825 79.0964 95.5507 79.1518 94.621 79.1075C93.0981 78.8892 92.1343 77.6965 91.6551 76.0565C90.8937 73.4261 90.5901 71.2962 91.1759 66.0939C91.8148 60.3965 98.4335 60.2794 102.028 62.4998C105.622 64.7202 104.301 70.9554 104.301 70.9554Z" fill="#B16668"/>
<path d="M104.307 71.5891C104.493 71.5891 105.206 70.3857 105.675 69.9544C106.319 69.3527 105.435 63.9907 105.435 63.9907C105.657 63.5149 105.729 62.9835 105.644 62.4658C105.558 61.9481 105.319 61.4682 104.956 61.0887C104.056 60.1143 102.8 58.9269 98.7529 59.4381C95.8616 59.8055 92.7253 60.7373 90.1748 59.5126C89.9477 60.3429 89.9734 61.2221 90.2484 62.0378C90.5235 62.8534 91.0355 63.5686 91.719 64.0919C91.719 64.0919 92.6455 64.6776 95.0682 64.9492C97.302 65.0961 99.5446 65.0337 101.767 64.7628C102.47 64.6616 102.624 65.3379 103.018 67.1962C103.364 68.8202 103.668 71.5837 104.307 71.5891Z" fill="#263238"/>
<path d="M105.435 64.4059L107.709 63.1599C107.635 63.0061 107.531 62.8688 107.402 62.7566C107.274 62.6444 107.124 62.5596 106.961 62.5073C106.799 62.455 106.627 62.4363 106.458 62.4524C106.288 62.4684 106.123 62.519 105.973 62.6008C105.668 62.7747 105.443 63.0593 105.342 63.3955C105.242 63.7317 105.276 64.0936 105.435 64.4059Z" fill="#263238"/>
<path d="M97.3845 78.9425C97.3845 78.9425 100.771 78.229 101.948 77.59C102.642 77.2212 103.208 76.6514 103.572 75.9553C103.4 76.6489 103.09 77.3008 102.661 77.8722C101.804 78.9904 97.3952 79.8424 97.3952 79.8424L97.3845 78.9425Z" fill="#9A4A4D"/>
<path d="M97.113 70.4122C97.1116 70.5028 97.1281 70.5929 97.1617 70.6771C97.1953 70.7613 97.2452 70.8381 97.3085 70.9029C97.3719 70.9677 97.4474 71.0194 97.5309 71.0549C97.6143 71.0904 97.7039 71.109 97.7946 71.1097C97.9361 71.115 98.076 71.0778 98.1961 71.0028C98.3163 70.9278 98.4112 70.8185 98.4686 70.689C98.5259 70.5595 98.5432 70.4158 98.5181 70.2764C98.493 70.1371 98.4266 70.0084 98.3276 69.9071C98.2287 69.8058 98.1016 69.7365 97.9628 69.7082C97.8241 69.6798 97.68 69.6938 97.5492 69.7481C97.4184 69.8025 97.307 69.8948 97.2292 70.0132C97.1515 70.1316 97.111 70.2706 97.113 70.4122Z" fill="#263238"/>
<path d="M99.131 68.0748L97.6187 67.3879C97.5309 67.5948 97.5261 67.8275 97.6054 68.0378C97.6848 68.248 97.8421 68.4196 98.0447 68.5168C98.1448 68.5611 98.2528 68.5848 98.3622 68.5865C98.4717 68.5882 98.5803 68.5678 98.6817 68.5265C98.7831 68.4853 98.8751 68.424 98.9523 68.3464C99.0295 68.2688 99.0903 68.1764 99.131 68.0748Z" fill="#263238"/>
<path d="M92.6615 67.2385L91.3463 68.2715C91.4085 68.3611 91.4884 68.4369 91.5812 68.4942C91.6739 68.5515 91.7775 68.5891 91.8854 68.6046C91.9934 68.62 92.1033 68.6131 92.2084 68.5842C92.3136 68.5553 92.4116 68.5051 92.4965 68.4366C92.6711 68.2952 92.7853 68.0927 92.816 67.8702C92.8466 67.6477 92.7914 67.4218 92.6615 67.2385Z" fill="#263238"/>
<path d="M91.868 70.247C91.8743 70.3742 91.9178 70.4967 91.9931 70.5993C92.0684 70.702 92.1722 70.7802 92.2916 70.8244C92.4111 70.8685 92.5408 70.8766 92.6648 70.8476C92.7888 70.8186 92.9015 70.7538 92.9889 70.6613C93.0764 70.5688 93.1347 70.4526 93.1567 70.3272C93.1787 70.2018 93.1633 70.0727 93.1126 69.956C93.0618 69.8392 92.9778 69.74 92.8711 69.6705C92.7644 69.6011 92.6396 69.5646 92.5123 69.5654C92.4251 69.5675 92.3392 69.5868 92.2596 69.6223C92.1799 69.6577 92.108 69.7086 92.0481 69.7719C91.9882 69.8353 91.9415 69.9099 91.9106 69.9915C91.8796 70.073 91.8652 70.1599 91.868 70.247Z" fill="#263238"/>
<path d="M95.393 69.6987L95.0096 73.7721L92.9064 72.9628L95.393 69.6987Z" fill="#9A4A4D"/>
<path d="M96.5486 75.3002C96.5476 75.43 96.5851 75.5572 96.6564 75.6656C96.7277 75.774 96.8296 75.8587 96.9492 75.9091C97.0688 75.9595 97.2006 75.9732 97.328 75.9486C97.4554 75.9239 97.5726 75.8619 97.6648 75.7706C97.7569 75.6792 97.8198 75.5625 97.8455 75.4353C97.8712 75.3081 97.8585 75.1762 97.8091 75.0562C97.7597 74.9362 97.6758 74.8336 97.568 74.7614C97.4602 74.6892 97.3333 74.6506 97.2036 74.6506C97.0308 74.6506 96.865 74.7189 96.7423 74.8406C96.6196 74.9622 96.55 75.1275 96.5486 75.3002Z" fill="#9A4A4D"/>
<path d="M113.172 31.92C114.188 32.1461 115.166 32.5135 116.08 33.0116C116.953 33.4817 117.735 34.1038 118.39 34.8486C119.021 35.5702 119.486 36.4206 119.754 37.3405C120.034 38.3157 120.056 39.3468 119.817 40.333C119.66 41.1159 119.349 41.8597 118.902 42.5215C118.5 43.0909 118.018 43.5985 117.469 44.0284C116.933 44.4448 116.361 44.8136 115.76 45.1306L114.067 46.0252C113.556 46.2919 113.071 46.6056 112.618 46.9623C112.21 47.2725 111.896 47.6913 111.713 48.171C111.621 48.3849 111.472 48.5692 111.282 48.7035C111.191 48.7732 111.085 48.8214 110.972 48.8445C110.86 48.8675 110.744 48.8648 110.632 48.8366L108.14 48.3041C108.021 48.2789 107.907 48.2301 107.807 48.1607C107.706 48.0912 107.621 48.0024 107.555 47.8995C107.485 47.8031 107.439 47.6916 107.421 47.5741C107.402 47.4566 107.411 47.3364 107.448 47.2232C107.656 46.4486 108.018 45.7241 108.513 45.0933C108.959 44.5367 109.475 44.0392 110.047 43.6131C110.599 43.2088 111.185 42.8525 111.798 42.5481C112.405 42.2446 112.97 41.9517 113.492 41.6642C113.969 41.4121 114.417 41.1086 114.828 40.759C115.187 40.4571 115.436 40.0453 115.536 39.5876C115.628 39.1878 115.622 38.7716 115.518 38.3748C115.415 37.9779 115.216 37.6121 114.94 37.3086C114.252 36.5562 113.331 36.0557 112.326 35.8869C110.466 35.4716 108.893 36.0981 107.608 37.7665C107.485 37.9492 107.327 38.1065 107.145 38.2298C107.046 38.2801 106.938 38.3103 106.827 38.3185C106.717 38.3267 106.606 38.3129 106.5 38.2777L103.838 37.6867C103.744 37.6686 103.655 37.6319 103.575 37.5789C103.496 37.5259 103.428 37.4575 103.375 37.3778C103.317 37.2963 103.278 37.2028 103.26 37.1043C103.243 37.0058 103.247 36.9046 103.274 36.8081C103.497 35.9897 103.918 35.2384 104.498 34.6196C105.15 33.9005 105.923 33.302 106.783 32.8518C107.725 32.3573 108.741 32.0192 109.791 31.8508C110.912 31.6536 112.06 31.6771 113.172 31.92ZM110.361 50.844C110.478 50.869 110.588 50.9178 110.685 50.9874C110.782 51.0571 110.864 51.146 110.925 51.2487C110.991 51.3481 111.035 51.4597 111.056 51.5769C111.077 51.6941 111.075 51.8143 111.048 51.9303L110.409 54.8163C110.355 55.0466 110.214 55.2472 110.015 55.3754C109.817 55.5036 109.576 55.5494 109.344 55.5031L106.522 54.8802C106.405 54.8552 106.296 54.807 106.199 54.7383C106.102 54.6697 106.019 54.5821 105.957 54.4808C105.891 54.3818 105.846 54.2702 105.825 54.1528C105.804 54.0355 105.807 53.9151 105.835 53.7992L106.474 50.9079C106.527 50.6775 106.668 50.477 106.867 50.3488C107.066 50.2206 107.307 50.1748 107.539 50.221L110.361 50.844Z" fill="#525FE1"/>
<path d="M121.543 59.0707C122.247 58.9546 122.964 58.9403 123.673 59.0281C124.354 59.1054 125.016 59.3038 125.627 59.6138C126.211 59.9125 126.723 60.3339 127.128 60.8492C127.558 61.4014 127.836 62.0569 127.932 62.7501C128.043 63.2894 128.043 63.8455 127.932 64.3848C127.822 64.854 127.642 65.3044 127.4 65.7213C127.163 66.1232 126.892 66.5044 126.591 66.8608L125.733 67.8724C125.475 68.1751 125.244 68.4993 125.041 68.8416C124.861 69.1458 124.769 69.4943 124.775 69.8479C124.774 70.0141 124.726 70.1765 124.636 70.3165C124.596 70.3835 124.541 70.4406 124.475 70.4839C124.41 70.5271 124.336 70.5554 124.258 70.5668L122.517 70.8543C122.349 70.8807 122.177 70.8406 122.038 70.7425C121.97 70.6979 121.913 70.6382 121.871 70.568C121.83 70.4979 121.805 70.4191 121.798 70.3378C121.726 69.7921 121.767 69.2371 121.921 68.7084C122.059 68.234 122.261 67.7807 122.523 67.3613C122.772 66.9597 123.055 66.5803 123.369 66.2271C123.683 65.8757 123.966 65.5456 124.232 65.2261C124.472 64.9422 124.681 64.6333 124.855 64.3049C125.007 64.0197 125.062 63.6922 125.009 63.3731C124.966 63.0926 124.855 62.8268 124.686 62.5986C124.517 62.3704 124.296 62.1867 124.04 62.0632C123.409 61.7549 122.692 61.6686 122.006 61.8183C121.385 61.9098 120.808 62.1905 120.352 62.6221C119.897 63.0538 119.586 63.6154 119.461 64.2303C119.427 64.3805 119.366 64.5232 119.28 64.651C119.177 64.7642 119.033 64.833 118.88 64.8427L117.027 65.1462C116.896 65.1679 116.761 65.1394 116.649 65.0663C116.591 65.0286 116.542 64.9785 116.505 64.9196C116.468 64.8607 116.445 64.7945 116.436 64.7255C116.372 64.1439 116.451 63.5554 116.665 63.011C116.897 62.3816 117.239 61.799 117.677 61.2911C118.155 60.7337 118.719 60.2572 119.349 59.8801C120.021 59.4704 120.766 59.1955 121.543 59.0707ZM124.583 71.9512C124.665 71.9375 124.748 71.9403 124.829 71.9595C124.909 71.9787 124.985 72.0139 125.052 72.063C125.118 72.1103 125.175 72.1705 125.218 72.24C125.261 72.3095 125.289 72.3869 125.302 72.4677L125.632 74.4804C125.646 74.562 125.643 74.6456 125.624 74.7261C125.605 74.8066 125.569 74.8824 125.52 74.949C125.474 75.0163 125.414 75.0732 125.344 75.1162C125.274 75.1593 125.197 75.1876 125.116 75.1993L123.146 75.5241C123.065 75.5373 122.982 75.5343 122.903 75.5151C122.823 75.4959 122.748 75.4609 122.682 75.4122C122.614 75.3661 122.556 75.3063 122.512 75.2367C122.468 75.167 122.439 75.089 122.427 75.0076L122.097 72.9895C122.072 72.8236 122.114 72.6548 122.214 72.5201C122.314 72.3853 122.463 72.2957 122.629 72.2707L124.583 71.9512Z" fill="#407BFF"/>
<g opacity="0.2">
<path d="M121.543 59.0707C122.247 58.9546 122.964 58.9403 123.673 59.0281C124.354 59.1054 125.016 59.3038 125.627 59.6138C126.211 59.9125 126.723 60.3339 127.128 60.8492C127.558 61.4014 127.836 62.0569 127.932 62.7501C128.043 63.2894 128.043 63.8455 127.932 64.3848C127.822 64.854 127.642 65.3044 127.4 65.7213C127.163 66.1232 126.892 66.5044 126.591 66.8608L125.733 67.8724C125.475 68.1751 125.244 68.4993 125.041 68.8416C124.861 69.1458 124.769 69.4943 124.775 69.8479C124.774 70.0141 124.726 70.1765 124.636 70.3165C124.596 70.3835 124.541 70.4406 124.475 70.4839C124.41 70.5271 124.336 70.5554 124.258 70.5668L122.517 70.8543C122.349 70.8807 122.177 70.8406 122.038 70.7425C121.97 70.6979 121.913 70.6382 121.871 70.568C121.83 70.4979 121.805 70.4191 121.798 70.3378C121.726 69.7921 121.767 69.2371 121.921 68.7084C122.059 68.234 122.261 67.7807 122.523 67.3613C122.772 66.9597 123.055 66.5803 123.369 66.2271C123.683 65.8757 123.966 65.5456 124.232 65.2261C124.472 64.9422 124.681 64.6333 124.855 64.3049C125.007 64.0197 125.062 63.6922 125.009 63.3731C124.966 63.0926 124.855 62.8268 124.686 62.5986C124.517 62.3704 124.296 62.1867 124.04 62.0632C123.409 61.7549 122.692 61.6686 122.006 61.8183C121.385 61.9098 120.808 62.1905 120.352 62.6221C119.897 63.0538 119.586 63.6154 119.461 64.2303C119.427 64.3805 119.366 64.5232 119.28 64.651C119.177 64.7642 119.033 64.833 118.88 64.8427L117.027 65.1462C116.896 65.1679 116.761 65.1394 116.649 65.0663C116.591 65.0286 116.542 64.9785 116.505 64.9196C116.468 64.8607 116.445 64.7945 116.436 64.7255C116.372 64.1439 116.451 63.5554 116.665 63.011C116.897 62.3816 117.239 61.799 117.677 61.2911C118.155 60.7337 118.719 60.2572 119.349 59.8801C120.021 59.4704 120.766 59.1955 121.543 59.0707ZM124.583 71.9512C124.665 71.9375 124.748 71.9403 124.829 71.9595C124.909 71.9787 124.985 72.0139 125.052 72.063C125.118 72.1103 125.175 72.1705 125.218 72.24C125.261 72.3095 125.289 72.3869 125.302 72.4677L125.632 74.4804C125.646 74.562 125.643 74.6456 125.624 74.7261C125.605 74.8066 125.569 74.8824 125.52 74.949C125.474 75.0163 125.414 75.0732 125.344 75.1162C125.274 75.1593 125.197 75.1876 125.116 75.1993L123.146 75.5241C123.065 75.5373 122.982 75.5343 122.903 75.5151C122.823 75.4959 122.748 75.4609 122.682 75.4122C122.614 75.3661 122.556 75.3063 122.512 75.2367C122.468 75.167 122.439 75.089 122.427 75.0076L122.097 72.9895C122.072 72.8236 122.114 72.6548 122.214 72.5201C122.314 72.3853 122.463 72.2957 122.629 72.2707L124.583 71.9512Z" fill="#9595FF"/>
</g>
<path d="M139.7 64.7839C139.858 64.8992 139.965 65.0717 139.998 65.2647C140.031 65.4577 139.987 65.6558 139.876 65.8169L138.47 67.7871C138.355 67.9452 138.182 68.0521 137.989 68.0849C137.796 68.1177 137.598 68.0739 137.437 67.9628L135.509 66.5943C135.43 66.5387 135.362 66.4676 135.311 66.3852C135.26 66.3028 135.226 66.211 135.211 66.1151C135.183 65.9285 135.227 65.7382 135.334 65.5826L136.739 63.6072C136.853 63.4484 137.026 63.3412 137.219 63.309C137.406 63.2808 137.597 63.3266 137.751 63.4368L139.7 64.7839ZM147.836 51.4242C148.531 51.9146 149.152 52.5028 149.678 53.1707C150.187 53.8063 150.578 54.5276 150.834 55.3006C151.078 56.0394 151.16 56.8222 151.073 57.5956C150.974 58.419 150.662 59.2024 150.168 59.8692C149.8 60.4084 149.33 60.8697 148.784 61.227C148.298 61.5285 147.771 61.7564 147.218 61.9033C146.683 62.0462 146.136 62.1424 145.584 62.1908L144.018 62.3239C143.551 62.3668 143.088 62.4487 142.634 62.5688C142.228 62.6761 141.859 62.8936 141.569 63.1972C141.429 63.333 141.257 63.4303 141.068 63.4794C140.977 63.5011 140.882 63.5023 140.79 63.483C140.698 63.4636 140.611 63.4242 140.536 63.3676L138.832 62.1588C138.669 62.0418 138.559 61.8661 138.523 61.669C138.503 61.576 138.504 61.4795 138.527 61.3871C138.55 61.2948 138.595 61.209 138.656 61.1365C139.052 60.6169 139.551 60.1838 140.121 59.8639C140.633 59.5828 141.181 59.3715 141.75 59.2356C142.295 59.1037 142.851 59.0182 143.411 58.98C143.944 58.948 144.476 58.9054 144.966 58.8575C145.406 58.8196 145.84 58.732 146.26 58.5966C146.626 58.4851 146.945 58.2546 147.165 57.9417C147.363 57.6705 147.492 57.3551 147.54 57.0229C147.588 56.6907 147.555 56.3517 147.442 56.0354C147.164 55.2507 146.632 54.5815 145.93 54.1345C144.663 53.2293 143.278 53.1991 141.777 54.044C141.625 54.1407 141.457 54.2093 141.281 54.2463C141.19 54.2528 141.098 54.2411 141.011 54.2118C140.924 54.1826 140.844 54.1364 140.775 54.0759L138.965 52.7873C138.833 52.6977 138.742 52.5602 138.709 52.404C138.694 52.3241 138.696 52.2418 138.715 52.1628C138.735 52.0837 138.771 52.0098 138.821 51.946C139.243 51.4014 139.791 50.9682 140.419 50.6841C141.139 50.3509 141.912 50.1473 142.703 50.0824C143.569 50.0118 144.441 50.0801 145.286 50.2847C146.203 50.4917 147.07 50.8791 147.836 51.4242Z" fill="#407BFF"/>
<g opacity="0.6">
<path d="M139.7 64.7839C139.858 64.8992 139.965 65.0717 139.998 65.2647C140.031 65.4577 139.987 65.6558 139.876 65.8169L138.47 67.7871C138.355 67.9452 138.182 68.0521 137.989 68.0849C137.796 68.1177 137.598 68.0739 137.437 67.9628L135.509 66.5943C135.43 66.5387 135.362 66.4676 135.311 66.3852C135.26 66.3028 135.226 66.211 135.211 66.1151C135.183 65.9285 135.227 65.7382 135.334 65.5826L136.739 63.6072C136.853 63.4484 137.026 63.3412 137.219 63.309C137.406 63.2808 137.597 63.3266 137.751 63.4368L139.7 64.7839ZM147.836 51.4242C148.531 51.9146 149.152 52.5028 149.678 53.1707C150.187 53.8063 150.578 54.5276 150.834 55.3006C151.078 56.0394 151.16 56.8222 151.073 57.5956C150.974 58.419 150.662 59.2024 150.168 59.8692C149.8 60.4084 149.33 60.8697 148.784 61.227C148.298 61.5285 147.771 61.7564 147.218 61.9033C146.683 62.0462 146.136 62.1424 145.584 62.1908L144.018 62.3239C143.551 62.3668 143.088 62.4487 142.634 62.5688C142.228 62.6761 141.859 62.8936 141.569 63.1972C141.429 63.333 141.257 63.4303 141.068 63.4794C140.977 63.5011 140.882 63.5023 140.79 63.483C140.698 63.4636 140.611 63.4242 140.536 63.3676L138.832 62.1588C138.669 62.0418 138.559 61.8661 138.523 61.669C138.503 61.576 138.504 61.4795 138.527 61.3871C138.55 61.2948 138.595 61.209 138.656 61.1365C139.052 60.6169 139.551 60.1838 140.121 59.8639C140.633 59.5828 141.181 59.3715 141.75 59.2356C142.295 59.1037 142.851 59.0182 143.411 58.98C143.944 58.948 144.476 58.9054 144.966 58.8575C145.406 58.8196 145.84 58.732 146.26 58.5966C146.626 58.4851 146.945 58.2546 147.165 57.9417C147.363 57.6705 147.492 57.3551 147.54 57.0229C147.588 56.6907 147.555 56.3517 147.442 56.0354C147.164 55.2507 146.632 54.5815 145.93 54.1345C144.663 53.2293 143.278 53.1991 141.777 54.044C141.625 54.1407 141.457 54.2093 141.281 54.2463C141.19 54.2528 141.098 54.2411 141.011 54.2118C140.924 54.1826 140.844 54.1364 140.775 54.0759L138.965 52.7873C138.833 52.6977 138.742 52.5602 138.709 52.404C138.694 52.3241 138.696 52.2418 138.715 52.1628C138.735 52.0837 138.771 52.0098 138.821 51.946C139.243 51.4014 139.791 50.9682 140.419 50.6841C141.139 50.3509 141.912 50.1473 142.703 50.0824C143.569 50.0118 144.441 50.0801 145.286 50.2847C146.203 50.4917 147.07 50.8791 147.836 51.4242Z" fill="white"/>
</g>
<path d="M42.6412 101.583C41.1237 100.715 34.734 97.0198 32.5615 95.7632C32.1302 95.5183 31.8587 95.3585 31.8374 95.3425C30.7572 94.7404 29.4951 94.5512 28.2858 94.8101C27.2478 95.0208 26.2536 95.408 25.3466 95.9549C25.1975 96.0401 25.0484 96.1412 24.9046 96.2371C22.4499 97.7866 20.3413 100.225 18.5842 103.58C16.795 106.847 15.8351 110.504 15.7887 114.229C15.7887 117.758 16.7294 120.234 18.6108 121.657C18.8013 121.799 19.0005 121.929 19.2072 122.046C20.9696 123.047 29.8087 128.169 30.0057 128.281H30.0536C29.8361 128.162 29.6279 128.027 29.4306 127.877C27.5457 126.457 26.605 123.982 26.6085 120.454C26.6549 116.729 27.6148 113.072 29.404 109.804C31.2605 106.255 33.5129 103.711 36.161 102.174C38.6814 100.719 40.8574 100.529 42.6891 101.604L42.6412 101.583Z" fill="#525FE1"/>
<path opacity="0.4" d="M42.6891 101.615C40.8574 100.55 38.6814 100.738 36.161 102.18C33.701 103.6 31.58 105.907 29.798 109.102L18.9781 102.835C20.6501 99.8475 22.6256 97.6484 24.8992 96.216C25.043 96.1255 25.1921 96.019 25.3412 95.9338C26.2473 95.3862 27.2419 95.0006 28.2804 94.7943C29.4896 94.5324 30.7528 94.7218 31.832 95.3268L32.5562 95.7474C34.7287 96.9987 41.1183 100.694 42.6358 101.562L42.6891 101.615Z" fill="black"/>
<path opacity="0.3" d="M30.0536 128.265H30.0057C29.8087 128.153 20.9537 123.031 19.2072 122.03C19.0005 121.913 18.8013 121.783 18.6108 121.641C16.7294 120.221 15.7887 117.747 15.7887 114.219C15.8337 110.493 16.7937 106.836 18.5842 103.569C18.712 103.319 18.8451 103.074 18.9835 102.84L29.798 109.085C29.6649 109.32 29.5318 109.565 29.404 109.81C27.6148 113.077 26.6549 116.734 26.6085 120.459C26.6085 123.988 27.5492 126.462 29.4306 127.882C29.6286 128.025 29.8368 128.153 30.0536 128.265Z" fill="black"/>
<path d="M37.9234 10.2112C43.1736 7.17614 47.6428 5.88578 51.3311 6.34016C52.8322 6.51948 54.2813 7.00131 55.5909 7.75653C55.5542 7.73721 55.5187 7.71587 55.4844 7.69264C54.2171 6.97913 46.5814 2.57559 44.8349 1.54792C43.5026 0.769258 42.023 0.27605 40.49 0.0995979C36.7982 -0.351228 32.3272 0.937353 27.077 3.96534C18.9125 8.67593 12.3453 15.5981 7.37558 24.7317C2.40585 33.8654 -0.0524004 43.1889 0.000846685 52.7024L10.8153 58.9483C10.7408 49.4277 13.199 40.1024 18.1901 30.9723C23.1811 21.8422 29.7589 14.9218 37.9234 10.2112Z" fill="#525FE1"/>
<path opacity="0.2" d="M55.5056 7.69785C54.2152 6.97908 52.7974 6.51793 51.331 6.34005C47.6463 5.88568 43.1771 7.17603 37.9234 10.2111C29.7588 14.9182 23.1917 21.8403 18.2219 30.9775C18.0143 31.3556 17.8119 31.7389 17.6149 32.117L6.7738 25.8605C6.97082 25.4824 7.17316 25.099 7.38082 24.721C12.3719 15.5944 18.939 8.67228 27.0823 3.95458C32.3395 0.923044 36.8105 -0.365536 40.4952 0.0888392C42.0286 0.267083 43.5082 0.7621 44.8402 1.54249C46.6027 2.5808 54.2383 6.98967 55.5056 7.69785Z" fill="black"/>
<path opacity="0.3" d="M17.5883 32.1062C13.0055 40.8707 10.7496 49.8145 10.8206 58.9375L0.00610714 52.6916C-0.0613392 43.565 2.19457 34.6213 6.77382 25.8604L17.5883 32.1062Z" fill="black"/>
<path d="M45.2716 27.9103C43.3086 26.8667 40.687 27.2749 37.407 29.135C37.2962 31.0865 36.8942 33.0105 36.2143 34.8431C35.3943 37.0511 33.0088 41.6055 29.0579 48.5063C24.9649 55.6414 22.0044 62.4553 20.1762 68.9479C18.363 75.3581 17.442 81.9876 17.4393 88.6493L17.4926 91.9666L24.8726 96.2264L28.3124 98.2125L28.2538 94.8899V94.8473C28.2655 88.2072 29.1864 81.6 30.9907 75.2097C32.8189 68.7171 35.7812 61.9051 39.8777 54.7735C43.8251 47.8727 46.2088 43.3165 47.0288 41.1049C47.8476 38.9186 48.2661 36.6027 48.2641 34.268C48.2641 31.0909 47.2666 28.9717 45.2716 27.9103Z" fill="#525FE1"/>
<path opacity="0.3" d="M45.9691 43.4958C44.748 46.0375 42.7175 49.7896 39.8777 54.7523C35.7776 61.8874 32.8153 68.7012 30.9907 75.1938C29.1845 81.5891 28.2636 88.2019 28.2538 94.8474V94.9326L28.3124 98.2552L24.8726 96.2744L17.4926 92.0146L17.4393 88.692C17.4424 82.0303 18.3634 75.4008 20.1762 68.9905C22.0044 62.4979 24.9649 55.6841 29.0579 48.549C31.8977 43.5792 33.9318 39.8289 35.16 37.2979L45.9691 43.4958Z" fill="black"/>
<path opacity="0.4" d="M48.264 34.268C48.2652 36.5952 47.8485 38.9037 47.034 41.0836C46.8051 41.7066 46.4483 42.5107 45.9691 43.4957L35.1599 37.2552C35.632 36.2683 35.987 35.4643 36.2249 34.8431C36.9048 33.0105 37.3068 31.0865 37.4176 29.135C40.6976 27.2749 43.3191 26.8667 45.2822 27.9103C47.2452 28.9539 48.2392 31.0732 48.264 34.268Z" fill="black"/>
<path d="M25.4583 50.4817L10.8206 58.9373C10.7461 49.4168 13.2043 40.0914 18.1953 30.9613C23.1864 21.8312 29.7535 14.9091 37.8968 10.1949C43.1469 7.15984 47.6162 5.86948 51.3044 6.32386C54.9927 6.77823 57.9443 8.79985 60.1594 12.3887C62.378 15.9776 63.4874 20.4539 63.4874 25.8176C63.4654 28.9317 63.1083 32.0343 62.4224 35.072C61.5927 38.7057 60.4726 42.2669 59.0732 45.7214C58.1786 47.9791 56.0363 52.1466 52.6462 58.2238C49.4053 64.0171 47.3748 67.9592 46.5548 70.05C45.6446 72.5319 44.9689 75.0937 44.5367 77.7016C43.892 81.5997 43.5361 85.5401 43.4718 89.4906L28.3336 98.2337L28.275 94.9111C28.2781 88.2494 29.1991 81.6199 31.0119 75.2097C32.8401 68.7171 35.8024 61.905 39.8989 54.7734C43.8463 47.8726 46.23 43.3164 47.05 41.1049C47.8616 38.9172 48.2728 36.6013 48.264 34.268C48.264 31.0731 47.2683 28.9539 45.2768 27.9102C43.2854 26.8666 40.6124 27.3032 37.2578 29.2201C33.8287 31.2009 31.0155 34.1721 28.8181 38.1337C26.6692 41.8982 25.513 46.1474 25.4583 50.4817Z" fill="#525FE1"/>
<path d="M36.1343 102.211C38.8499 100.639 41.1679 100.541 43.0883 101.918C45.0088 103.296 45.969 105.747 45.969 109.272C45.9109 113.017 44.9326 116.691 43.1203 119.969C41.2247 123.572 38.9333 126.149 36.2461 127.701C33.5589 129.252 31.2764 129.316 29.3985 127.892C27.5171 126.473 26.5764 123.997 26.5764 120.464C26.6228 116.739 27.5827 113.083 29.3719 109.815C31.2355 106.272 33.4897 103.738 36.1343 102.211Z" fill="#525FE1"/>
</svg>
