<svg width="562" height="56" viewBox="0 0 562 56" fill="none" xmlns="http://www.w3.org/2000/svg">
<rect x="44" y="26" width="139" height="4" rx="2" fill="#525FE1"/>
<rect x="216" y="26" width="137" height="4" rx="2" fill="#525FE1"/>
<rect x="383" y="26" width="137" height="4" rx="2" fill="#6C757D"/>
<path d="M218.438 32.0724C220.859 21.8116 214.504 11.5302 204.244 9.10844C193.983 6.68665 183.701 13.0415 181.28 23.3024C178.858 33.5633 185.213 43.8446 195.474 46.2664C205.734 48.6882 216.016 42.3333 218.438 32.0724Z" fill="#525FE1"/>
<path d="M187.957 26.4332C187.609 24.0587 187.794 22.3338 188.51 21.2585C189.227 20.1832 190.46 19.5173 192.209 19.2608C192.91 19.1365 193.627 19.1386 194.327 19.2669C194.843 19.3704 195.333 19.5784 195.765 19.8783C196.131 20.1363 196.454 20.4495 196.724 20.8066C196.993 21.1826 197.214 21.5907 197.383 22.0215C197.759 22.9414 198.02 23.9041 198.161 24.888C198.493 27.1525 198.352 28.8682 197.74 30.0352C197.127 31.2021 195.883 31.9218 194.007 32.194C193.134 32.3607 192.234 32.3164 191.381 32.065C190.672 31.8248 190.041 31.3974 189.555 30.828C189.122 30.2964 188.79 29.6904 188.574 29.0397C188.281 28.194 188.074 27.3207 187.957 26.4332ZM191.402 25.9281C191.636 27.5192 191.929 28.5862 192.283 29.1291C192.41 29.3657 192.605 29.5587 192.843 29.6829C193.081 29.8071 193.352 29.8568 193.618 29.8254C193.788 29.8021 193.951 29.7456 194.098 29.6591C194.246 29.5725 194.375 29.4577 194.478 29.3212C194.731 28.9511 194.87 28.5147 194.877 28.0662C194.905 27.2201 194.844 26.3734 194.696 25.5398C194.452 23.8763 194.148 22.7808 193.783 22.2533C193.645 22.0137 193.439 21.8214 193.19 21.7015C192.941 21.5817 192.662 21.54 192.389 21.5819C192.115 21.6184 191.86 21.7405 191.66 21.9308C191.459 22.1212 191.325 22.3699 191.274 22.6416C191.14 23.2657 191.173 24.3626 191.404 25.9402L191.402 25.9281Z" fill="#FAFAFA"/>
<path d="M209.425 34.6699L199.098 32.5868C199.43 31.5805 199.999 30.6691 200.759 29.9299C201.537 29.1547 202.876 28.3182 204.775 27.4204C205.589 27.083 206.355 26.6404 207.053 26.104C207.372 25.8416 207.598 25.4845 207.699 25.0847C207.74 24.9053 207.743 24.7193 207.708 24.5385C207.673 24.3578 207.601 24.1864 207.496 24.0354C207.256 23.7141 206.906 23.4926 206.513 23.4133C206.12 23.334 205.712 23.4026 205.366 23.6059C204.947 23.9555 204.647 24.4275 204.509 24.9558L201.12 23.9818C201.36 23.1954 201.771 22.4719 202.323 21.8634C202.811 21.3822 203.428 21.0538 204.099 20.9186C205.034 20.7685 205.99 20.8075 206.91 21.0333C207.878 21.1825 208.81 21.5111 209.657 22.0023C210.256 22.3839 210.723 22.9402 210.995 23.596C211.266 24.24 211.332 24.9515 211.186 25.6345C211.026 26.4035 210.645 27.1086 210.088 27.6621C209.256 28.4264 208.29 29.0306 207.238 29.4444C206.448 29.7829 205.918 30.0245 205.648 30.1693C205.378 30.314 205.053 30.5097 204.671 30.7564L210.046 31.8406L209.425 34.6699Z" fill="#FAFAFA"/>
<path d="M362.308 46.0821C372.491 48.8108 382.959 42.7674 385.687 32.5838C388.416 22.4003 382.373 11.9328 372.189 9.20414C362.005 6.47546 351.538 12.5188 348.809 22.7024C346.081 32.886 352.124 43.3534 362.308 46.0821Z" fill="#525FE1"/>
<path d="M357.502 23.4437C358.192 21.1435 359.089 19.6587 360.191 18.9891C361.294 18.3195 362.695 18.2348 364.396 18.7351C365.084 18.9193 365.733 19.2262 366.311 19.641C366.737 19.9529 367.092 20.3504 367.355 20.808C367.577 21.1964 367.737 21.6167 367.831 22.054C367.918 22.5092 367.947 22.9733 367.92 23.4358C367.87 24.4277 367.699 25.4098 367.41 26.36C366.755 28.5563 365.902 30.0521 364.851 30.8474C363.8 31.6427 362.363 31.7754 360.54 31.2454C359.68 31.0232 358.884 30.6027 358.215 30.0177C357.683 29.4967 357.298 28.8443 357.1 28.1266C356.934 27.4631 356.889 26.7753 356.967 26.0959C357.055 25.196 357.234 24.3073 357.502 23.4437ZM360.836 24.454C360.372 25.9943 360.201 27.0819 360.297 27.7312C360.313 28.0022 360.41 28.2622 360.577 28.4767C360.743 28.6913 360.97 28.8503 361.229 28.933C361.393 28.9844 361.565 29.0028 361.736 28.987C361.908 28.9713 362.074 28.9217 362.226 28.8411C362.611 28.6119 362.92 28.2752 363.117 27.8725C363.5 27.117 363.803 26.3239 364.022 25.5057C364.501 23.8964 364.688 22.7753 364.584 22.1422C364.561 21.8674 364.455 21.6062 364.28 21.3931C364.105 21.1799 363.869 21.0248 363.604 20.9484C363.342 20.8679 363.061 20.8721 362.802 20.9602C362.542 21.0484 362.317 21.2162 362.158 21.4397C361.736 21.9249 361.295 22.9297 360.836 24.454Z" fill="#FAFAFA"/>
<path d="M372.323 26.4577L369.29 24.9879C369.767 24.1123 370.542 23.4361 371.474 23.0814C372.379 22.7565 373.52 22.7892 374.899 23.1793C376.489 23.6228 377.563 24.2306 378.098 25.0317C378.361 25.3915 378.537 25.8072 378.613 26.2463C378.688 26.6854 378.661 27.1361 378.534 27.5631C378.4 28.0745 378.109 28.5313 377.703 28.87C377.23 29.2463 376.674 29.5039 376.082 29.6212C376.436 29.8084 376.761 30.047 377.046 30.3293C377.375 30.6793 377.604 31.1103 377.711 31.5781C377.822 32.0924 377.797 32.6265 377.64 33.1284C377.437 33.8441 377.048 34.4933 376.513 35.0102C375.961 35.557 375.256 35.9238 374.492 36.0623C373.517 36.2057 372.523 36.1207 371.587 35.814C370.688 35.5994 369.837 35.2176 369.079 34.6885C368.534 34.2764 368.101 33.7332 367.821 33.1094C367.536 32.4262 367.394 31.6925 367.401 30.9526L370.904 31.4524C370.817 31.9915 370.893 32.5445 371.124 33.0396C371.339 33.3873 371.683 33.6359 372.08 33.7313C372.293 33.7959 372.517 33.8131 372.737 33.7817C372.957 33.7504 373.167 33.6713 373.354 33.5499C373.772 33.2708 374.067 32.8417 374.178 32.3511C374.341 31.8819 374.316 31.3678 374.107 30.9168C374.002 30.7156 373.855 30.5391 373.676 30.399C373.497 30.259 373.29 30.1586 373.069 30.1046C372.692 30.0188 372.305 29.9832 371.918 29.9988L372.768 27.6321C372.907 27.6958 373.05 27.7509 373.196 27.7971C373.604 27.9209 374.045 27.8797 374.423 27.6823C374.599 27.596 374.755 27.4728 374.88 27.3211C375.005 27.1694 375.096 26.9927 375.147 26.8029C375.202 26.6431 375.223 26.4736 375.209 26.3052C375.195 26.1369 375.146 25.9732 375.065 25.8247C374.976 25.6758 374.857 25.5466 374.716 25.4452C374.576 25.3438 374.415 25.2723 374.246 25.2351C374.07 25.1781 373.885 25.1568 373.7 25.1723C373.516 25.1878 373.337 25.2399 373.173 25.3254C372.777 25.6028 372.479 25.9995 372.323 26.4577Z" fill="#FAFAFA"/>
<path d="M553.579 27.6383C553.651 17.0958 545.163 8.49063 534.621 8.41821C524.078 8.34579 515.473 16.8335 515.401 27.3761C515.328 37.9187 523.816 46.5238 534.359 46.5962C544.901 46.6686 553.506 38.1809 553.579 27.6383Z" fill="#6C757D"/>
<path d="M523.24 29.7519C522.705 27.4125 522.752 25.6784 523.381 24.5497C524.01 23.421 525.187 22.6594 526.91 22.2651C527.599 22.0857 528.314 22.0308 529.022 22.1033C529.545 22.1656 530.049 22.3342 530.504 22.5988C530.889 22.827 531.236 23.1136 531.533 23.4483C531.831 23.8017 532.084 24.191 532.286 24.607C532.734 25.4943 533.071 26.4333 533.289 27.4029C533.799 29.634 533.796 31.3554 533.277 32.5673C532.759 33.7791 531.576 34.5977 529.729 35.0231C528.872 35.2584 527.971 35.2857 527.102 35.1026C526.376 34.9193 525.713 34.5432 525.183 34.0142C524.71 33.5186 524.33 32.9409 524.063 32.3093C523.703 31.487 523.427 30.6301 523.24 29.7519ZM526.634 28.9754C526.993 30.543 527.377 31.5818 527.786 32.092C527.931 32.3178 528.141 32.4947 528.388 32.5996C528.635 32.7046 528.909 32.7326 529.172 32.6802C529.339 32.6436 529.497 32.5743 529.637 32.4764C529.777 32.3784 529.897 32.2538 529.989 32.1095C530.212 31.7205 530.316 31.2745 530.288 30.8268C530.248 29.9812 530.12 29.142 529.907 28.3227C529.532 26.6838 529.141 25.6158 528.736 25.1189C528.58 24.891 528.359 24.7156 528.101 24.6159C527.844 24.5161 527.562 24.4967 527.293 24.5601C527.023 24.6182 526.778 24.7601 526.594 24.9657C526.409 25.1713 526.295 25.43 526.266 25.7048C526.16 26.3382 526.284 27.4323 526.637 28.9873L526.634 28.9754Z" fill="#FAFAFA"/>
<path d="M541.491 29.691L535.258 31.1171L534.613 28.3018L539.151 19.4648L542.133 18.7826L543.865 26.3522L545.411 25.9984L546.019 28.6551L544.473 29.0089L545.003 31.3285L542.022 32.0107L541.491 29.691ZM540.883 27.0344L539.997 23.1604L537.588 27.7882L540.883 27.0344Z" fill="#FAFAFA"/>
<path d="M46.0781 25.1941C44.8081 14.7281 35.2942 7.27317 24.8282 8.5431C14.3622 9.81302 6.90722 19.3269 8.17715 29.793C9.44708 40.259 18.961 47.7139 29.427 46.444C39.8931 45.1741 47.348 35.6602 46.0781 25.1941Z" fill="#525FE1"/>
<path d="M16.933 28.5167C16.9785 26.1172 17.4428 24.4458 18.3259 23.5024C19.209 22.559 20.5344 22.1041 22.3021 22.1376C23.0138 22.1297 23.7211 22.2492 24.3907 22.4905C24.8835 22.6781 25.3334 22.9634 25.7132 23.3292C26.0306 23.6445 26.2981 24.0063 26.5066 24.402C26.7107 24.817 26.8623 25.2559 26.9578 25.7084C27.1781 26.6775 27.2782 27.67 27.2557 28.6636C27.2123 30.9519 26.7928 32.6215 25.9972 33.6723C25.2016 34.7232 23.8562 35.2293 21.961 35.1906C21.0727 35.2116 20.1921 35.0205 19.3923 34.6333C18.7322 34.2802 18.1799 33.7553 17.7937 33.114C17.4536 32.5187 17.2248 31.8664 17.1183 31.1891C16.9661 30.3069 16.904 29.4115 16.933 28.5167ZM20.4142 28.5827C20.3838 30.1905 20.4985 31.2911 20.7585 31.8846C20.845 32.1389 21.006 32.3613 21.2206 32.5228C21.4353 32.6843 21.6935 32.7775 21.9618 32.7903C22.3081 32.7992 22.6439 32.6711 22.8962 32.4337C23.2036 32.1079 23.4117 31.7011 23.4961 31.2612C23.6577 30.4304 23.7351 29.5854 23.727 28.7391C23.7589 27.0581 23.6447 25.9276 23.3845 25.3477C23.2885 25.0896 23.1168 24.8664 22.8919 24.7075C22.667 24.5486 22.3993 24.4614 22.1239 24.4573C21.8471 24.4475 21.5743 24.5257 21.3448 24.6807C21.1152 24.8357 20.9407 25.0595 20.8463 25.3199C20.5884 25.909 20.4442 27.0007 20.414 28.5949L20.4142 28.5827Z" fill="#FAFAFA"/>
<path d="M34.2676 18.343L37.8449 30.7058L34.4338 31.6929L32.0934 23.6047C31.7042 24.1382 31.2667 24.6347 30.7865 25.088C30.2446 25.572 29.6629 26.0095 29.0476 26.3957L28.2483 23.6332C29.1323 23.0762 29.9073 22.3626 30.5353 21.5275C31.0213 20.8235 31.3414 20.0186 31.4717 19.1732L34.2676 18.343Z" fill="#FAFAFA"/>
</svg>
