<svg width="33" height="33" viewBox="0 0 33 33" fill="none" xmlns="http://www.w3.org/2000/svg">
<g clip-path="url(#clip0_52_632)">
<path fill-rule="evenodd" clip-rule="evenodd" d="M2.43891 0.065918C1.09235 0.065918 0 1.12078 0 2.42035V30.5803C0 31.88 1.09248 32.9339 2.43891 32.9339H30.5611C31.9082 32.9339 33 31.8798 33 30.5799V2.42035C33 1.12078 31.9082 0.065918 30.5611 0.065918H2.43891ZM10.0284 12.7749V27.5722H5.09025V12.7749H10.0284ZM10.3539 8.19866C10.3539 9.61866 9.28202 10.7549 7.56035 10.7549L7.55996 10.7548H7.528C5.87065 10.7548 4.79918 9.61853 4.79918 8.19853C4.79918 6.7463 5.903 5.64176 7.59309 5.64176C9.28202 5.64176 10.3217 6.7463 10.3539 8.19866ZM17.6995 27.5722H12.7617L12.7616 27.5727C12.7616 27.5727 12.8264 14.1636 12.762 12.7754H17.6999V14.8699C18.3563 13.8618 19.5311 12.428 22.1503 12.428C25.3992 12.428 27.835 14.543 27.835 19.0879V27.5722H22.8974V19.6569C22.8974 17.6675 22.1823 16.3106 20.3959 16.3106C19.0315 16.3106 18.219 17.2257 17.8622 18.1096C17.7317 18.4251 17.6995 18.8679 17.6995 19.3096V27.5722Z" fill="white"/>
</g>
<defs>
<clipPath id="clip0_52_632">
<rect width="33" height="33" fill="white"/>
</clipPath>
</defs>
</svg>
