<svg width="71" height="61" viewBox="0 0 71 61" fill="none" xmlns="http://www.w3.org/2000/svg">
<path d="M50.4901 22.7294C50.4699 23.7252 50.4766 24.7278 50.4901 25.7235C50.4901 25.9886 50.4057 26.077 50.1458 26.077C49.2883 26.0634 48.4376 26.0838 47.5868 26.0702C46.5977 26.0566 46.0305 25.5196 45.8651 24.5374C45.8381 24.3573 45.6794 24.1398 45.5208 24.0515C42.506 22.2842 39.4913 20.5306 36.4699 18.777C36.1525 18.5968 35.8217 18.4235 35.5145 18.2196C35.2377 18.0327 35.0013 18.0395 34.711 18.2128C32.8644 19.3003 31.0042 20.3777 29.1542 21.455C27.6823 22.3046 26.2172 23.1678 24.7351 24.0005C24.4448 24.1738 24.3334 24.3777 24.3401 24.7108C24.3536 25.7065 24.3536 26.7091 24.3334 27.7049C24.3199 28.0651 24.4245 28.1841 24.7959 28.1841C27.0578 28.1637 29.3163 28.1705 31.5849 28.1705C32.8002 28.1705 33.6442 29.0065 33.651 30.2232C33.6577 30.7601 33.705 31.3005 33.4079 31.7899C32.9927 32.4798 32.3917 32.7992 31.6119 32.806C29.35 32.806 27.0848 32.8128 24.8229 32.7992C24.4414 32.7992 24.3199 32.9046 24.3334 33.292V33.5231C24.3401 33.9479 24.3469 34.366 24.3469 34.784C24.3469 34.8791 24.3469 34.9743 24.3469 35.0661C24.3435 35.5011 24.3401 35.9327 24.3334 36.3609C24.3334 36.4221 24.3401 36.4696 24.3469 36.5172V42.118C24.0093 41.9243 23.6683 41.7272 23.3375 41.5266C22.4125 40.9829 21.4841 40.4391 20.5591 39.8988C20.0189 39.5793 19.7354 39.0831 19.7354 38.4442V30.4951C19.7354 27.9122 19.7489 25.3327 19.7286 22.7498C19.7219 21.9342 20.046 21.3734 20.7448 20.969C23.6548 19.2901 26.5649 17.6011 29.4682 15.9086C31.0177 15.0114 32.5707 14.121 34.1135 13.2068C34.7785 12.8092 35.4132 12.8092 36.085 13.2C40.5581 15.8101 45.038 18.4065 49.5179 21.003C50.1931 21.3904 50.5036 21.9478 50.4901 22.7294Z" fill="white"/>
<path d="M50.48 31.5723C50.48 30.981 50.4767 30.3897 50.4767 29.7983C50.4767 29.2851 50.2471 28.8331 49.8859 28.5375C49.6057 28.3098 49.2512 28.1738 48.8596 28.1738H38.303C37.5502 28.1738 36.8716 28.5986 36.686 29.3157C36.5543 29.8085 36.6016 30.3523 36.5543 30.8689C36.4429 31.9768 37.4118 32.8468 38.4887 32.823C40.8046 32.7822 43.1137 32.8162 45.4296 32.8094C45.747 32.8026 45.8854 32.8842 45.8786 33.2342C45.8685 33.7474 45.8618 34.264 45.8618 34.7805C45.8618 35.3141 45.8651 35.8477 45.8786 36.3812C45.8786 36.6531 45.7672 36.7925 45.5478 36.9182C42.1449 38.8894 38.752 40.8571 35.3559 42.835C35.1769 42.9404 35.0655 42.954 34.8798 42.8418C34.0932 42.383 33.3033 41.9242 32.5167 41.4722C29.9037 39.9497 27.2975 38.4374 24.6778 36.9216C24.671 36.9216 24.6643 36.9216 24.6575 36.9148C24.6103 36.8876 24.5664 36.8604 24.5326 36.8231C24.5123 36.8095 24.4921 36.7925 24.4786 36.7755C24.4583 36.7551 24.4381 36.7313 24.4246 36.7041C24.3976 36.6633 24.3773 36.6123 24.3706 36.5648C24.3638 36.5512 24.3571 36.5376 24.3571 36.524V36.5206V42.1213C24.7723 42.366 25.1875 42.6005 25.6028 42.8452C25.6264 42.8588 25.6534 42.8724 25.677 42.8894C26.0518 43.1069 26.4299 43.3278 26.8046 43.5487C26.9093 43.6031 27.0105 43.6677 27.1152 43.7288C27.5709 43.9939 28.0267 44.259 28.4824 44.5207C29.8294 45.299 31.1731 46.0806 32.5201 46.8589C33.067 47.1783 33.6206 47.4978 34.1641 47.8207C34.8056 48.1877 35.4369 48.1877 36.0715 47.8139C37.6279 46.9099 39.1842 46.0058 40.7371 45.0984C43.2893 43.6133 45.8449 42.1247 48.4005 40.643C48.836 40.3915 49.2748 40.1366 49.7103 39.8851C50.1931 39.5996 50.4834 39.202 50.4834 38.6243C50.4834 36.2725 50.4834 33.9241 50.48 31.5723Z" fill="white"/>
<path d="M14.6242 13.4038C17.065 13.4072 19.0028 15.3716 18.9994 17.8457C18.9961 20.262 17.0313 22.223 14.6175 22.223C12.1936 22.223 10.2355 20.245 10.2389 17.7981C10.2389 15.3682 12.2037 13.4038 14.6242 13.4038Z" fill="white"/>
<path d="M59.9867 43.2022C59.9833 45.6559 58.0152 47.5999 55.5372 47.5965C53.1268 47.5931 51.2194 45.5948 51.2228 43.0901C51.2295 40.7213 53.2247 38.7671 55.6284 38.7739C58.0388 38.7841 59.9901 40.7621 59.9867 43.2022Z" fill="white"/>
<path d="M56.2597 14.5693C58.6971 14.5693 60.6518 16.5337 60.6484 18.9772C60.6484 21.4241 58.6903 23.3885 56.2563 23.3851C53.802 23.3817 51.8844 21.4106 51.8878 18.8923C51.8946 16.5269 53.8729 14.5693 56.2597 14.5693Z" fill="white"/>
<path d="M13.9457 46.4305C11.5285 46.4305 9.57385 44.4593 9.57385 42.0226C9.57385 39.5723 11.5285 37.6079 13.9626 37.6113C16.4202 37.6147 18.3378 39.5825 18.3344 42.1008C18.3277 44.4797 16.3494 46.4305 13.9457 46.4305Z" fill="white"/>
<path d="M34.4241 59.0832C32.0306 59.0832 30.0894 57.1257 30.0995 54.7127C30.1063 52.2216 32.0474 50.3083 34.4511 50.3218C36.9527 50.3354 38.7926 52.2862 38.7993 54.7161C38.8061 57.1257 36.8278 59.1172 34.4241 59.0832Z" fill="white"/>
<path d="M35.7982 1.92027C38.1917 1.92027 40.1329 3.87442 40.1261 6.29076C40.1194 8.80567 38.1478 10.6918 35.7779 10.685C33.327 10.6749 31.4398 8.76149 31.423 6.30436C31.4061 3.88461 33.3878 1.88968 35.7982 1.92027Z" fill="white"/>
<path d="M12.9296 36.2181C12.2611 36.4662 11.6231 36.7041 10.958 36.9522C10.3436 34.6378 10.06 32.2452 10.1276 29.8085C10.1951 27.3684 10.6137 24.9928 11.3496 22.7124C11.9944 22.9945 12.6224 23.2732 13.2739 23.562C12.6494 25.5875 12.278 27.7048 12.2139 29.8731C12.1531 32.0311 12.4164 34.1586 12.9296 36.2181Z" fill="white"/>
<path d="M53.6872 13.6858C53.1133 14.1106 52.5631 14.5184 51.9891 14.9432C49.0521 11.7452 45.4668 9.50221 41.2841 8.29913C41.4022 7.60923 41.5204 6.93293 41.6453 6.21924C46.3648 7.52767 50.3856 10.0426 53.6872 13.6858Z" fill="white"/>
<path d="M16.5114 47.2906C16.8354 47.0799 17.1359 46.9032 17.4127 46.6993C17.6828 46.4954 17.9326 46.2643 18.2061 46.0298C21.1735 49.2618 24.7588 51.498 28.9719 52.7147C28.8875 53.0647 28.793 53.3978 28.7322 53.7376C28.6748 54.0741 28.658 54.4139 28.6175 54.798C23.8608 53.4759 19.84 50.961 16.5114 47.2906Z" fill="white"/>
<path d="M58.8625 38.3284C58.535 38.1585 58.2345 37.9818 57.9206 37.8424C57.6066 37.7031 57.2758 37.6011 56.9348 37.4754C57.5695 35.4125 57.9408 33.302 58.005 31.1405C58.0691 28.9791 57.8092 26.8516 57.2927 24.7853C57.9577 24.5338 58.6025 24.2925 59.2676 24.0444C60.5099 28.8194 60.3749 33.5841 58.8625 38.3284Z" fill="white"/>
<path d="M29.9308 5.88965C30.0084 6.59314 30.0827 7.27624 30.1637 7.99333C28.1078 8.45553 26.1058 9.2032 24.2153 10.2364C22.3282 11.2695 20.6199 12.5507 19.1109 14.0325C18.5707 13.5737 18.0441 13.1319 17.4972 12.6697C20.9845 9.2134 25.1471 6.93299 29.9308 5.88965Z" fill="white"/>
<path d="M51.1114 46.9712C51.6651 47.4368 52.1883 47.8752 52.7285 48.3272C49.2378 51.7869 45.0752 54.0673 40.2915 55.1106C40.2139 54.4071 40.1362 53.7172 40.0586 53.007C44.2954 52.0452 47.9954 50.0095 51.1114 46.9712Z" fill="white"/>
</svg>
