<svg width="40" height="40" viewBox="0 0 40 40" fill="none" xmlns="http://www.w3.org/2000/svg">
<path d="M16.6666 25.0002L25.3166 20.0002L16.6666 15.0002V25.0002ZM35.9333 11.9502C36.15 12.7335 36.3 13.7835 36.4 15.1168C36.5166 16.4502 36.5667 17.6002 36.5667 18.6002L36.6666 20.0002C36.6666 23.6502 36.4 26.3335 35.9333 28.0502C35.5166 29.5502 34.55 30.5168 33.05 30.9335C32.2666 31.1502 30.8333 31.3002 28.6333 31.4002C26.4666 31.5168 24.4833 31.5668 22.65 31.5668L20 31.6668C13.0166 31.6668 8.66665 31.4002 6.94998 30.9335C5.44998 30.5168 4.48331 29.5502 4.06665 28.0502C3.84998 27.2668 3.69998 26.2168 3.59998 24.8835C3.48331 23.5502 3.43331 22.4002 3.43331 21.4002L3.33331 20.0002C3.33331 16.3502 3.59998 13.6668 4.06665 11.9502C4.48331 10.4502 5.44998 9.4835 6.94998 9.06683C7.73331 8.85016 9.16665 8.70016 11.3666 8.60016C13.5333 8.4835 15.5166 8.4335 17.35 8.4335L20 8.3335C26.9833 8.3335 31.3333 8.60016 33.05 9.06683C34.55 9.4835 35.5166 10.4502 35.9333 11.9502Z" fill="white"/>
</svg>
