<svg width="36" height="36" viewBox="0 0 36 36" fill="none" xmlns="http://www.w3.org/2000/svg">
<g clip-path="url(#clip0_52_624)">
<path fill-rule="evenodd" clip-rule="evenodd" d="M18 3C9.7155 3 3 9.7155 3 18C3 20.835 3.7875 23.49 5.157 25.752L3.819 30.3C3.74218 30.5611 3.73712 30.8381 3.80437 31.1019C3.87161 31.3656 4.00867 31.6064 4.20114 31.7989C4.39361 31.9913 4.63437 32.1284 4.89813 32.1956C5.16188 32.2629 5.43888 32.2578 5.7 32.181L10.248 30.843C12.586 32.2576 15.2673 33.0037 18 33C26.2845 33 33 26.2845 33 18C33 9.7155 26.2845 3 18 3ZM14.607 21.3945C17.6415 24.4275 20.538 24.828 21.561 24.8655C23.1165 24.9225 24.6315 23.7345 25.221 22.356C25.2954 22.1845 25.3224 21.9962 25.2992 21.8107C25.276 21.6252 25.2034 21.4494 25.089 21.3015C24.267 20.2515 23.1555 19.497 22.0695 18.747C21.8428 18.5902 21.5641 18.5273 21.292 18.5715C21.0199 18.6157 20.7755 18.7635 20.61 18.984L19.71 20.3565C19.6627 20.4303 19.589 20.4832 19.5039 20.5044C19.4188 20.5256 19.3289 20.5135 19.2525 20.4705C18.642 20.121 17.7525 19.527 17.1135 18.888C16.4745 18.249 15.9165 17.4 15.603 16.8285C15.5641 16.7559 15.5529 16.6717 15.5714 16.5914C15.5899 16.5111 15.6368 16.4403 15.7035 16.392L17.0895 15.363C17.2873 15.191 17.4149 14.9523 17.4481 14.6923C17.4813 14.4323 17.4177 14.1692 17.2695 13.953C16.5975 12.969 15.8145 11.718 14.679 10.8885C14.5325 10.7823 14.3608 10.7161 14.1809 10.6964C14.001 10.6766 13.8191 10.7041 13.653 10.776C12.273 11.367 11.079 12.882 11.136 14.4405C11.1735 15.4635 11.574 18.36 14.607 21.3945Z" fill="white"/>
</g>
<defs>
<clipPath id="clip0_52_624">
<rect width="36" height="36" fill="white"/>
</clipPath>
</defs>
</svg>
