<svg width="479" height="475" viewBox="0 0 479 475" fill="none" xmlns="http://www.w3.org/2000/svg">
<g filter="url(#filter0_d_49_616)">
<rect x="30" y="26" width="419" height="415" rx="20" fill="white"/>
<path d="M288.669 105.088C287.864 102.431 286.798 99.8601 285.484 97.4141L287.462 90.9366L274.675 78.14L268.198 80.1179C265.752 78.8044 263.181 77.7377 260.524 76.9335L257.34 71H239.242L236.068 76.9335C233.41 77.7358 230.839 78.8026 228.394 80.1179L221.916 78.14L209.12 90.9366L211.098 97.4141C209.792 99.8624 208.728 102.433 207.923 105.088L201.94 108.272V126.37L207.923 129.544C208.726 132.2 209.79 134.771 211.098 137.218L209.12 143.696L221.916 156.492L228.394 154.514C230.841 155.822 233.412 156.886 236.068 157.689L239.242 163.622H257.34L260.524 157.689C263.179 156.884 265.75 155.82 268.198 154.514L274.675 156.492L287.472 143.696L285.494 137.218C286.809 134.773 287.876 132.202 288.678 129.544L294.661 126.37V108.272L288.669 105.088ZM248.291 143.023C243.206 143.023 238.234 141.515 234.006 138.69C229.778 135.865 226.482 131.849 224.536 127.151C222.59 122.452 222.081 117.283 223.073 112.295C224.065 107.307 226.514 102.726 230.11 99.1301C233.706 95.5342 238.287 93.0854 243.275 92.0933C248.262 91.1012 253.432 91.6104 258.13 93.5564C262.829 95.5025 266.844 98.7981 269.67 103.026C272.495 107.255 274.003 112.226 274.003 117.311C274.003 124.13 271.294 130.67 266.472 135.492C261.65 140.314 255.11 143.023 248.291 143.023Z" fill="#456ECA"/>
<path opacity="0.2" d="M288.669 105.088C287.864 102.431 286.798 99.8601 285.484 97.4141L287.462 90.9366L274.675 78.14L268.198 80.1179C265.752 78.8044 263.181 77.7377 260.524 76.9335L257.34 71H239.242L236.068 76.9335C233.41 77.7358 230.839 78.8026 228.394 80.1179L221.916 78.14L209.12 90.9366L211.098 97.4141C209.792 99.8624 208.728 102.433 207.923 105.088L201.94 108.272V126.37L207.923 129.544C208.726 132.2 209.79 134.771 211.098 137.218L209.12 143.696L221.916 156.492L228.394 154.514C230.841 155.822 233.412 156.886 236.068 157.689L239.242 163.622H257.34L260.524 157.689C263.179 156.884 265.75 155.82 268.198 154.514L274.675 156.492L287.472 143.696L285.494 137.218C286.809 134.773 287.876 132.202 288.678 129.544L294.661 126.37V108.272L288.669 105.088ZM248.291 143.023C243.206 143.023 238.234 141.515 234.006 138.69C229.778 135.865 226.482 131.849 224.536 127.151C222.59 122.452 222.081 117.283 223.073 112.295C224.065 107.307 226.514 102.726 230.11 99.1301C233.706 95.5342 238.287 93.0854 243.275 92.0933C248.262 91.1012 253.432 91.6104 258.13 93.5564C262.829 95.5025 266.844 98.7981 269.67 103.026C272.495 107.255 274.003 112.226 274.003 117.311C274.003 124.13 271.294 130.67 266.472 135.492C261.65 140.314 255.11 143.023 248.291 143.023Z" fill="white"/>
<path d="M248.291 108.797C246.605 108.797 244.957 109.297 243.555 110.233C242.153 111.17 241.06 112.501 240.415 114.059C239.77 115.617 239.601 117.331 239.93 118.984C240.259 120.638 241.071 122.157 242.263 123.349C243.455 124.541 244.974 125.353 246.628 125.682C248.281 126.011 249.995 125.842 251.553 125.197C253.111 124.552 254.442 123.459 255.379 122.057C256.315 120.655 256.815 119.007 256.815 117.321C256.815 115.06 255.917 112.892 254.319 111.293C252.72 109.695 250.552 108.797 248.291 108.797Z" fill="#456ECA"/>
<path d="M417.456 133.797C416.307 129.997 414.786 126.321 412.917 122.819L415.745 113.563L397.48 95.2978L388.213 98.136C384.724 96.2451 381.049 94.7206 377.246 93.587L372.707 85.0427H346.847L342.298 93.587C338.496 94.7242 334.821 96.2485 331.331 98.136L322.074 95.2978L303.789 113.583L306.618 122.839C304.74 126.337 303.219 130.014 302.078 133.816L293.524 138.355V164.216L302.068 168.765C303.207 172.564 304.728 176.239 306.608 179.732L303.779 188.978L322.064 207.263L331.321 204.435C334.815 206.317 338.493 207.834 342.298 208.964L346.847 217.519H372.707L377.246 208.974C381.046 207.832 384.721 206.308 388.213 204.425L397.48 207.254L415.765 188.968L412.936 179.712C414.801 176.214 416.315 172.541 417.456 168.745L426 164.196V138.336L417.456 133.797ZM359.772 198.146C350.499 198.146 341.434 195.396 333.724 190.244C326.014 185.092 320.005 177.77 316.456 169.203C312.908 160.636 311.979 151.209 313.788 142.114C315.597 133.019 320.063 124.665 326.619 118.108C333.176 111.551 341.53 107.086 350.625 105.277C359.72 103.468 369.147 104.396 377.714 107.945C386.281 111.494 393.603 117.503 398.755 125.213C403.907 132.923 406.657 141.988 406.657 151.261C406.657 157.418 405.444 163.515 403.088 169.203C400.732 174.891 397.278 180.06 392.924 184.413C388.571 188.767 383.402 192.221 377.714 194.577C372.026 196.933 365.929 198.146 359.772 198.146Z" fill="#456ECA"/>
<path d="M359.772 110.952C351.798 110.954 344.004 113.321 337.375 117.752C330.746 122.183 325.58 128.481 322.53 135.848C319.48 143.216 318.683 151.322 320.239 159.142C321.796 166.963 325.637 174.146 331.276 179.784C336.915 185.421 344.099 189.26 351.92 190.815C359.74 192.37 367.847 191.571 375.213 188.519C382.58 185.467 388.876 180.299 393.306 173.669C397.736 167.039 400.1 159.244 400.1 151.271C400.087 140.58 395.834 130.331 388.273 122.772C380.713 115.214 370.463 110.963 359.772 110.952ZM359.772 186.219C352.859 186.221 346.101 184.173 340.353 180.334C334.604 176.495 330.123 171.038 327.477 164.652C324.83 158.266 324.137 151.239 325.484 144.459C326.831 137.679 330.159 131.451 335.046 126.562C339.933 121.673 346.161 118.344 352.94 116.994C359.72 115.645 366.747 116.337 373.134 118.982C379.521 121.626 384.979 126.106 388.82 131.853C392.661 137.601 394.71 144.358 394.71 151.271C394.7 160.535 391.016 169.416 384.466 175.968C377.917 182.519 369.036 186.206 359.772 186.219Z" fill="#456ECA"/>
<path opacity="0.2" d="M359.772 110.952C351.798 110.954 344.004 113.321 337.375 117.752C330.746 122.183 325.58 128.481 322.53 135.848C319.48 143.216 318.683 151.322 320.239 159.142C321.796 166.963 325.637 174.146 331.276 179.784C336.915 185.421 344.099 189.26 351.92 190.815C359.74 192.37 367.847 191.571 375.213 188.519C382.58 185.467 388.876 180.299 393.306 173.669C397.736 167.039 400.1 159.244 400.1 151.271C400.087 140.58 395.834 130.331 388.273 122.772C380.713 115.214 370.463 110.963 359.772 110.952ZM359.772 186.219C352.859 186.221 346.101 184.173 340.353 180.334C334.604 176.495 330.123 171.038 327.477 164.652C324.83 158.266 324.137 151.239 325.484 144.459C326.831 137.679 330.159 131.451 335.046 126.562C339.933 121.673 346.161 118.344 352.94 116.994C359.72 115.645 366.747 116.337 373.134 118.982C379.521 121.626 384.979 126.106 388.82 131.853C392.661 137.601 394.71 144.358 394.71 151.271C394.7 160.535 391.016 169.416 384.466 175.968C377.917 182.519 369.036 186.206 359.772 186.219Z" fill="black"/>
<path d="M267.14 220.06C266.878 220.06 266.626 219.956 266.441 219.77C266.255 219.585 266.151 219.333 266.151 219.071V217.093C266.151 216.831 266.255 216.579 266.441 216.394C266.626 216.208 266.878 216.104 267.14 216.104C267.402 216.104 267.654 216.208 267.839 216.394C268.025 216.579 268.129 216.831 268.129 217.093V219.071C268.129 219.333 268.025 219.585 267.839 219.77C267.654 219.956 267.402 220.06 267.14 220.06Z" fill="#456ECA"/>
<path d="M251.742 194.506C250.834 193.923 250.124 193.078 249.705 192.083C249.602 191.842 249.406 191.652 249.162 191.554C248.919 191.457 248.646 191.461 248.405 191.564C248.163 191.668 247.973 191.863 247.876 192.107C247.778 192.351 247.782 192.623 247.885 192.865C248.466 194.215 249.433 195.364 250.664 196.168C250.824 196.27 251.009 196.325 251.198 196.326C251.412 196.327 251.621 196.26 251.793 196.132C251.966 196.005 252.092 195.825 252.153 195.62C252.215 195.415 252.208 195.196 252.134 194.995C252.059 194.794 251.922 194.622 251.742 194.506Z" fill="#456ECA"/>
<path d="M248.291 182.155C248.553 182.155 248.805 182.05 248.99 181.865C249.176 181.679 249.28 181.428 249.28 181.166V177.378C249.28 177.116 249.176 176.864 248.99 176.679C248.805 176.493 248.553 176.389 248.291 176.389C248.029 176.389 247.777 176.493 247.592 176.679C247.406 176.864 247.302 177.116 247.302 177.378V181.166C247.302 181.428 247.406 181.679 247.592 181.865C247.777 182.05 248.029 182.155 248.291 182.155Z" fill="#456ECA"/>
<path d="M258.586 195.377H254.788C254.526 195.377 254.274 195.481 254.089 195.666C253.903 195.852 253.799 196.103 253.799 196.366C253.799 196.628 253.903 196.879 254.089 197.065C254.274 197.25 254.526 197.355 254.788 197.355H258.586C258.848 197.355 259.099 197.25 259.285 197.065C259.47 196.879 259.574 196.628 259.574 196.366C259.574 196.103 259.47 195.852 259.285 195.666C259.099 195.481 258.848 195.377 258.586 195.377Z" fill="#456ECA"/>
<path d="M249.28 188.751V184.963C249.28 184.701 249.176 184.449 248.99 184.264C248.805 184.079 248.553 183.974 248.291 183.974C248.029 183.974 247.777 184.079 247.592 184.264C247.406 184.449 247.302 184.701 247.302 184.963V188.751C247.302 189.013 247.406 189.265 247.592 189.45C247.777 189.636 248.029 189.74 248.291 189.74C248.553 189.74 248.805 189.636 248.99 189.45C249.176 189.265 249.28 189.013 249.28 188.751Z" fill="#456ECA"/>
<path d="M268.069 201.805C268.035 201.545 267.899 201.31 267.691 201.15C267.484 200.991 267.221 200.92 266.962 200.954C266.833 200.976 266.71 201.022 266.599 201.092C266.488 201.161 266.393 201.252 266.317 201.359C266.242 201.465 266.188 201.586 266.16 201.713C266.131 201.841 266.128 201.973 266.151 202.101C266.182 202.331 266.199 202.562 266.2 202.793V205.76C266.2 206.022 266.304 206.274 266.49 206.459C266.675 206.645 266.927 206.749 267.189 206.749C267.451 206.749 267.703 206.645 267.888 206.459C268.074 206.274 268.178 206.022 268.178 205.76V202.793C268.163 202.462 268.127 202.131 268.069 201.805Z" fill="#456ECA"/>
<path d="M267.14 208.519C266.878 208.519 266.626 208.623 266.441 208.809C266.255 208.994 266.151 209.246 266.151 209.508V213.306C266.151 213.568 266.255 213.819 266.441 214.005C266.626 214.19 266.878 214.295 267.14 214.295C267.402 214.295 267.654 214.19 267.839 214.005C268.025 213.819 268.129 213.568 268.129 213.306V209.508C268.129 209.246 268.025 208.994 267.839 208.809C267.654 208.623 267.402 208.519 267.14 208.519Z" fill="#456ECA"/>
<path d="M266.279 197.879C265.311 196.773 264.033 195.984 262.611 195.614C262.485 195.582 262.353 195.574 262.225 195.593C262.096 195.611 261.972 195.654 261.86 195.72C261.748 195.786 261.65 195.874 261.572 195.978C261.493 196.082 261.437 196.2 261.404 196.326C261.372 196.452 261.364 196.583 261.382 196.712C261.401 196.841 261.444 196.965 261.51 197.077C261.576 197.189 261.664 197.287 261.768 197.365C261.872 197.443 261.99 197.5 262.116 197.533C263.155 197.801 264.089 198.376 264.796 199.184C264.889 199.29 265.003 199.374 265.131 199.432C265.259 199.49 265.397 199.52 265.538 199.52C265.728 199.52 265.914 199.465 266.073 199.362C266.233 199.259 266.359 199.112 266.438 198.939C266.516 198.765 266.543 198.573 266.515 198.385C266.486 198.197 266.405 198.022 266.279 197.879Z" fill="#456ECA"/>
<path d="M248.291 174.53C248.029 174.53 247.777 174.426 247.592 174.24C247.406 174.055 247.302 173.804 247.302 173.541V171.563C247.302 171.301 247.406 171.05 247.592 170.864C247.777 170.679 248.029 170.574 248.291 170.574C248.553 170.574 248.805 170.679 248.99 170.864C249.176 171.05 249.28 171.301 249.28 171.563V173.541C249.28 173.804 249.176 174.055 248.99 174.24C248.805 174.426 248.553 174.53 248.291 174.53Z" fill="#456ECA"/>
<path d="M313.985 269.852H85.0103V273.521H313.985V269.852Z" fill="#456ECA"/>
<path d="M313.985 273.521H363.668V269.852H313.985V273.521Z" fill="#456ECA"/>
<path opacity="0.2" d="M313.985 273.521H363.668V269.852H313.985V273.521Z" fill="black"/>
<path d="M347.074 277.447H101.604L93.3962 273.521H355.282L347.074 277.447Z" fill="#456ECA"/>
<path opacity="0.6" d="M347.074 277.447H101.604L93.3962 273.521H355.282L347.074 277.447Z" fill="white"/>
<path d="M109.021 277.447V394.476H112.166L116.122 277.447H109.021Z" fill="#456ECA"/>
<path d="M146.145 277.447V394.476H149.29L153.246 277.447H146.145Z" fill="#456ECA"/>
<path d="M347.074 277.447V394.476H343.939L339.974 277.447H347.074Z" fill="#456ECA"/>
<path d="M309.96 277.447V394.476H306.815L302.859 277.447H309.96Z" fill="#456ECA"/>
<path d="M235.237 225.43L224.903 267.528L224.616 269.852H295.897L296.194 267.528L306.519 225.43H235.237Z" fill="#456ECA"/>
<path opacity="0.3" d="M235.237 225.43L224.903 267.528L224.616 269.852H295.897L296.194 267.528L306.519 225.43H235.237Z" fill="black"/>
<path d="M304.333 225.43H233.042L222.717 267.528H293.999L304.333 225.43Z" fill="#456ECA"/>
<path d="M292.486 265.6L301.881 227.358H234.555L225.17 265.6H292.486Z" fill="white"/>
<path d="M275.427 267.528L275.13 269.852H196.64L196.926 267.528H275.427Z" fill="#456ECA"/>
<path opacity="0.6" d="M275.427 267.528L275.13 269.852H196.64L196.926 267.528H275.427Z" fill="white"/>
<path d="M127.148 262.198C127.098 260.692 126.509 259.253 125.486 258.146C124.464 257.038 123.078 256.336 121.58 256.165V255.028C121.579 254.962 121.565 254.898 121.538 254.837C121.511 254.777 121.473 254.723 121.425 254.678C121.377 254.633 121.321 254.598 121.259 254.575C121.198 254.551 121.132 254.541 121.066 254.544H110.386C110.32 254.541 110.253 254.551 110.191 254.574C110.129 254.597 110.072 254.632 110.023 254.677C109.975 254.722 109.935 254.776 109.908 254.837C109.88 254.897 109.864 254.962 109.862 255.028V269.862H121.58V268.24C123.08 268.072 124.469 267.368 125.492 266.258C126.515 265.148 127.103 263.706 127.148 262.198ZM121.58 266.322V258.084C122.569 258.23 123.472 258.726 124.125 259.482C124.777 260.238 125.137 261.204 125.137 262.203C125.137 263.202 124.777 264.168 124.125 264.924C123.472 265.68 122.569 266.176 121.58 266.322Z" fill="#FF6600"/>
<path d="M327.029 269.852H336.957L334.02 248.106H327.029V269.852Z" fill="#263238"/>
<path d="M312.472 269.852H331.281L334.772 244.397H315.973L312.472 269.852Z" fill="#456ECA"/>
<path opacity="0.3" d="M312.472 269.852H331.281L334.772 244.397H315.973L312.472 269.852Z" fill="black"/>
<path d="M309.96 269.852H329.531L333.031 244.397H313.461L309.96 269.852Z" fill="#456ECA"/>
<path opacity="0.4" d="M327.8 267.845L330.747 246.405H315.191L312.244 267.845H327.8Z" fill="white"/>
<path d="M179.66 232.273L178.849 233.143L177.979 234.132C177.395 234.805 176.812 235.487 176.258 236.189C175.15 237.594 174.082 239.027 173.083 240.501C171.096 243.351 169.437 246.416 168.139 249.639C167.534 251.17 167.064 252.752 166.735 254.366C166.576 255.275 166.478 255.671 166.428 256.057C166.373 256.364 166.373 256.679 166.428 256.986C166.594 257.47 166.854 257.915 167.194 258.297C167.533 258.679 167.945 258.99 168.406 259.211C169.074 259.623 169.775 259.977 170.502 260.27C170.885 260.428 171.28 260.576 171.689 260.715C172.065 260.853 172.54 260.991 172.836 261.11V266.559C172.144 266.658 171.64 266.737 171.056 266.777C170.473 266.816 169.909 266.826 169.326 266.777C168.126 266.752 166.933 266.6 165.765 266.322C164.451 266.013 163.19 265.506 162.027 264.819C160.66 264.019 159.485 262.928 158.586 261.624C157.66 260.236 157.046 258.664 156.786 257.016C156.72 256.63 156.677 256.24 156.658 255.849C156.638 255.474 156.638 255.097 156.658 254.722V254.168C156.646 254.02 156.646 253.871 156.658 253.723L156.737 252.853C156.99 250.592 157.467 248.363 158.161 246.197C159.5 242.037 161.385 238.073 163.768 234.409C164.913 232.61 166.157 230.877 167.496 229.217C168.159 228.387 168.841 227.576 169.553 226.775C169.899 226.369 170.265 225.974 170.641 225.578C171.017 225.183 171.363 224.837 171.877 224.342L179.66 232.273Z" fill="#B55B52"/>
<path d="M170.868 260.991L175.477 257.609L178.097 267.083C178.097 267.083 174.013 268.596 170.898 266.559L170.868 260.991Z" fill="#B55B52"/>
<path d="M181.875 255.335L183.675 263.266L178.097 267.083L175.477 257.609L181.875 255.335Z" fill="#B55B52"/>
<path d="M211.018 195.92C210.811 196.504 210.959 197.087 211.345 197.216C211.731 197.345 212.205 196.989 212.403 196.405C212.601 195.822 212.462 195.228 212.087 195.1C211.711 194.971 211.226 195.327 211.018 195.92Z" fill="#263238"/>
<path d="M210.91 197.068C210.987 199.104 211.343 201.121 211.968 203.06C211.47 203.203 210.947 203.237 210.435 203.158C209.923 203.079 209.434 202.891 209.001 202.606L210.91 197.068Z" fill="#A02724"/>
<path d="M210.069 191.945C210.143 191.97 210.223 191.97 210.297 191.945C210.73 191.8 211.192 191.761 211.645 191.829C212.097 191.898 212.526 192.073 212.897 192.341C212.972 192.395 213.064 192.419 213.155 192.408C213.246 192.397 213.33 192.352 213.39 192.283C213.45 192.213 213.481 192.123 213.478 192.031C213.475 191.939 213.437 191.852 213.372 191.787C212.908 191.441 212.368 191.211 211.797 191.116C211.225 191.022 210.64 191.065 210.089 191.243C210.017 191.268 209.954 191.314 209.91 191.376C209.866 191.438 209.842 191.513 209.842 191.589C209.842 191.665 209.866 191.74 209.91 191.802C209.954 191.864 210.017 191.91 210.089 191.935L210.069 191.945Z" fill="#263238"/>
<path d="M189.331 198.076C190.439 203.703 191.537 214.018 187.601 217.775C187.601 217.775 189.144 223.482 199.606 223.482C211.107 223.482 205.105 217.775 205.105 217.775C198.825 216.272 198.983 211.615 200.081 207.243L189.331 198.076Z" fill="#B55B52"/>
<path d="M186.098 219.734C185.267 217.924 184.367 215.857 186.236 215.214C188.303 214.502 199.616 213.77 203.513 215.105C204.028 215.246 204.51 215.487 204.93 215.816C205.351 216.145 205.702 216.554 205.963 217.02C206.223 217.486 206.388 217.999 206.448 218.529C206.508 219.06 206.461 219.597 206.311 220.109L186.098 219.734Z" fill="#263238"/>
<path d="M225.605 229.385C228.028 233.747 230.629 238.236 233.259 242.548C235.89 246.86 238.649 251.152 241.596 255.068C242.328 256.057 243.089 256.996 243.841 257.936C244.216 258.42 244.612 258.816 244.998 259.261L245.571 259.913L245.72 260.082L245.789 260.161L245.858 260.25C246.319 260.695 246.873 261.033 247.48 261.239C248.415 261.564 249.378 261.799 250.358 261.941C255.165 262.426 260.011 262.37 264.806 261.773L266.309 267.014C264.974 267.607 263.728 268.003 262.403 268.497C261.078 268.992 259.772 269.318 258.447 269.654C255.638 270.359 252.759 270.744 249.863 270.802C248.238 270.828 246.615 270.665 245.027 270.317C243.078 269.93 241.24 269.112 239.648 267.924L238.985 267.38L238.827 267.241L238.728 267.142L238.54 266.955L237.769 266.193C237.264 265.689 236.711 265.204 236.256 264.67C235.267 263.632 234.337 262.593 233.477 261.525C230.022 257.35 226.834 252.96 223.934 248.383C222.49 246.128 221.099 243.85 219.76 241.549C218.416 239.225 217.12 236.951 215.864 234.498L225.605 229.385Z" fill="#B55B52"/>
<path d="M173.825 219.516C166.606 221.168 158.339 240.837 158.339 240.837L172.826 250.726C176.43 245.559 179.627 240.12 182.389 234.459C186.671 225.499 181.202 217.825 173.825 219.516Z" fill="#FF6600"/>
<path opacity="0.2" d="M178.987 232.056L172.144 250.291L172.817 250.766C172.817 250.766 175.783 246.603 178.987 240.986V232.056Z" fill="black"/>
<path d="M216.942 219.902C216.942 219.902 225.13 229.158 217.397 286.417H176.228C175.951 280.098 179.917 249.283 173.825 219.506C178.375 218.63 182.976 218.049 187.601 217.766C193.431 217.424 199.275 217.424 205.105 217.766C209.1 218.168 213.058 218.882 216.942 219.902Z" fill="#FF6600"/>
<path opacity="0.2" d="M212.363 236.466C213.437 242.965 216.246 249.053 220.492 254.089C220.66 250.4 220.73 247.087 220.72 244.13L212.363 236.466Z" fill="black"/>
<path d="M208.794 226.152C207.805 233.44 222.144 252.052 222.144 252.052L236.572 242.162C236.572 242.162 232.567 231.907 225.833 225.183C218.159 217.469 209.921 218.221 208.794 226.152Z" fill="#FF6600"/>
<path d="M263.184 261.822L269.058 259.409L275.101 263.978C275.101 263.978 269.335 269.081 264.094 267.093L263.184 261.822Z" fill="#B55B52"/>
<path d="M272.935 259.172L277.365 262.336L275.071 263.978L269.029 259.409L272.935 259.172Z" fill="#B55B52"/>
<path d="M191.893 187.871C189.836 195.228 188.254 199.431 190.607 204.386C194.138 211.852 204.175 211.644 208.408 205.058C212.205 199.125 214.935 188.088 208.882 182.778C207.554 181.597 205.945 180.776 204.21 180.393C202.474 180.009 200.67 180.076 198.967 180.586C197.265 181.097 195.721 182.034 194.483 183.309C193.245 184.584 192.353 186.154 191.893 187.871Z" fill="#B55B52"/>
<path d="M207.557 187.95C204.591 196.395 201.1 205.671 192.575 203.911C187.077 202.774 186.642 193.923 184.664 189.898C182.913 186.367 183.022 179.267 186.642 179.178C185.02 176.824 193.218 168.211 198.815 172.76C200.249 170.782 210.583 164.957 218.238 174.204C225.447 182.946 221.916 190.234 207.557 187.95Z" fill="#263238"/>
<path d="M200.882 193.349C200.684 195.236 201.108 197.135 202.089 198.759C203.404 200.875 205.332 200.064 206.044 197.898C206.677 195.921 206.746 192.509 204.917 191.134C203.087 189.76 201.159 191.075 200.882 193.349Z" fill="#B55B52"/>
<path d="M264.054 388.889C265.043 388.889 266.032 388.75 266.319 388.305C266.401 388.188 266.444 388.048 266.444 387.905C266.444 387.761 266.401 387.622 266.319 387.504C266.187 387.296 265.983 387.144 265.745 387.079C264.46 386.733 261.79 388.266 261.661 388.335C261.627 388.352 261.6 388.379 261.584 388.413C261.568 388.447 261.564 388.486 261.572 388.523C261.579 388.558 261.595 388.591 261.62 388.617C261.644 388.643 261.676 388.662 261.711 388.671C262.484 388.812 263.268 388.885 264.054 388.889ZM265.281 387.395C265.395 387.379 265.512 387.379 265.627 387.395C265.701 387.409 265.772 387.44 265.834 387.484C265.895 387.528 265.946 387.586 265.983 387.652C266.111 387.88 266.072 387.989 265.983 388.048C265.627 388.552 263.679 388.562 262.245 388.355C263.185 387.841 264.216 387.515 265.281 387.395Z" fill="#456ECA"/>
<path d="M261.73 388.671H261.809C262.739 388.255 264.578 386.594 264.43 385.704C264.43 385.496 264.252 385.249 263.758 385.19C263.58 385.174 263.401 385.194 263.231 385.249C263.062 385.303 262.904 385.391 262.769 385.506C261.78 386.307 261.582 388.384 261.572 388.473C261.569 388.505 261.573 388.537 261.585 388.566C261.597 388.595 261.617 388.621 261.641 388.641C261.669 388.657 261.699 388.667 261.73 388.671ZM263.609 385.556H263.718C264.044 385.556 264.064 385.724 264.074 385.763C264.163 386.288 262.907 387.593 261.958 388.157C262.037 387.286 262.382 386.461 262.947 385.793C263.131 385.635 263.367 385.551 263.609 385.556Z" fill="#456ECA"/>
<path d="M252.781 388.493H260.474L262.225 370.663H254.531L252.781 388.493Z" fill="#B55B52"/>
<path d="M260.91 387.603H252.514C252.359 387.604 252.209 387.657 252.089 387.754C251.969 387.851 251.885 387.986 251.851 388.137L250.328 394.941C250.289 395.107 250.288 395.279 250.326 395.445C250.363 395.611 250.439 395.767 250.545 395.899C250.652 396.032 250.788 396.138 250.942 396.21C251.097 396.283 251.265 396.319 251.436 396.315C254.462 396.266 258.843 396.088 262.65 396.088C267.11 396.088 270.957 396.325 276.179 396.325C279.343 396.325 280.223 393.131 278.898 392.844C272.876 391.529 267.961 391.391 262.759 388.177C262.207 387.819 261.567 387.62 260.91 387.603Z" fill="#263238"/>
<path opacity="0.2" d="M262.215 370.673L261.325 379.86H253.621L254.521 370.673H262.215Z" fill="black"/>
<path d="M233.21 388.879C233.536 388.922 233.868 388.899 234.185 388.812C234.503 388.726 234.8 388.577 235.059 388.374C235.15 388.249 235.199 388.099 235.199 387.944C235.199 387.79 235.15 387.639 235.059 387.514C235.001 387.405 234.919 387.311 234.82 387.238C234.721 387.164 234.607 387.113 234.486 387.089C233.358 386.822 231.232 388.276 231.143 388.335C231.115 388.357 231.093 388.386 231.079 388.418C231.065 388.451 231.06 388.487 231.064 388.523C231.071 388.557 231.088 388.588 231.112 388.613C231.137 388.637 231.168 388.654 231.202 388.661C231.862 388.805 232.535 388.878 233.21 388.879ZM234.199 387.415C234.271 387.405 234.344 387.405 234.416 387.415C234.487 387.426 234.554 387.452 234.613 387.494C234.671 387.535 234.719 387.589 234.753 387.653C234.921 387.959 234.822 388.078 234.753 388.127C234.426 388.552 232.854 388.562 231.697 388.374C232.441 387.871 233.29 387.543 234.179 387.415H234.199Z" fill="#456ECA"/>
<path d="M231.252 388.671H231.331C232.132 388.236 233.675 386.555 233.507 385.704C233.481 385.568 233.409 385.445 233.302 385.357C233.196 385.268 233.062 385.22 232.923 385.22C232.785 385.203 232.645 385.215 232.512 385.256C232.379 385.297 232.256 385.365 232.152 385.457C231.262 386.189 231.074 388.424 231.064 388.503C231.063 388.536 231.071 388.569 231.087 388.598C231.103 388.628 231.125 388.653 231.153 388.671C231.185 388.681 231.22 388.681 231.252 388.671ZM232.804 385.556H232.884C233.121 385.556 233.141 385.694 233.151 385.744C233.25 386.248 232.261 387.524 231.469 388.127C231.523 387.249 231.84 386.408 232.379 385.714C232.498 385.612 232.648 385.556 232.804 385.556Z" fill="#456ECA"/>
<path d="M222.431 388.493H230.124L233.991 370.663H226.297L222.431 388.493Z" fill="#B55B52"/>
<path d="M230.668 387.603H222.025C221.872 387.604 221.723 387.658 221.605 387.755C221.486 387.852 221.404 387.987 221.372 388.137L219.85 394.941C219.814 395.108 219.816 395.281 219.857 395.447C219.897 395.613 219.974 395.767 220.082 395.899C220.191 396.031 220.327 396.137 220.482 396.209C220.637 396.281 220.806 396.318 220.977 396.315C223.993 396.266 225.467 396.088 229.264 396.088C231.608 396.088 234.604 396.325 237.838 396.325C241.072 396.325 241.487 393.131 240.162 392.844C234.228 391.549 233.823 389.759 231.924 388.048C231.574 387.751 231.127 387.593 230.668 387.603Z" fill="#263238"/>
<g opacity="0.2">
<path d="M226.297 370.673H233.991L231.993 379.86H224.3L226.297 370.673Z" fill="black"/>
</g>
<path d="M217.397 286.427C217.397 286.427 275.051 292.528 274.418 321.939C274.01 340.409 270.458 358.675 263.916 375.954H252.484C252.484 375.954 253.067 357.293 252.682 327.18C252.563 318.151 234.337 315.174 216.527 314.126C208.985 313.652 201.725 311.079 195.567 306.699C189.409 302.318 184.598 296.304 181.677 289.334L180.461 286.427H217.397Z" fill="#263238"/>
<path d="M266.715 372.888C266.774 372.888 265.973 378.297 265.973 378.297H250.15L249.715 373.471L266.715 372.888Z" fill="#456ECA"/>
<path d="M205.055 286.427C205.055 286.427 246.847 300.271 247.905 317.439C249.883 349.025 234.347 375.954 234.347 375.954H222.806C222.806 375.954 227.187 362.603 228.74 333.984C230.718 298.036 163.639 333.924 176.209 286.427H205.055Z" fill="#263238"/>
<path d="M237.838 372.888C237.897 372.888 236.384 378.297 236.384 378.297H220.562L220.848 373.471L237.838 372.888Z" fill="#456ECA"/>
<path d="M235.198 316.707H170.918C170.918 314.761 171.691 312.895 173.067 311.519C174.443 310.142 176.31 309.369 178.256 309.369H227.86C229.806 309.369 231.672 310.142 233.049 311.519C234.425 312.895 235.198 314.761 235.198 316.707Z" fill="#456ECA"/>
<path d="M173.894 316.697L164.203 397.947H166.28L178.572 316.697H173.894Z" fill="#456ECA"/>
<path opacity="0.4" d="M173.894 316.697L164.203 397.947H166.28L178.572 316.697H173.894Z" fill="black"/>
<path d="M186.859 316.697L186.671 397.947H188.738L191.537 316.697H186.859Z" fill="#456ECA"/>
<path opacity="0.4" d="M186.859 316.697L186.671 397.947H188.738L191.537 316.697H186.859Z" fill="black"/>
<path d="M232.221 316.697L241.912 397.947H239.836L227.553 316.697H232.221Z" fill="#456ECA"/>
<path opacity="0.4" d="M232.221 316.697L241.912 397.947H239.836L227.553 316.697H232.221Z" fill="black"/>
<path d="M219.256 316.697L219.444 397.947H217.377L214.579 316.697H219.256Z" fill="#456ECA"/>
<path opacity="0.4" d="M219.256 316.697L219.444 397.947H217.377L214.579 316.697H219.256Z" fill="black"/>
</g>
<defs>
<filter id="filter0_d_49_616" x="0" y="0" width="479" height="475" filterUnits="userSpaceOnUse" color-interpolation-filters="sRGB">
<feFlood flood-opacity="0" result="BackgroundImageFix"/>
<feColorMatrix in="SourceAlpha" type="matrix" values="0 0 0 0 0 0 0 0 0 0 0 0 0 0 0 0 0 0 127 0" result="hardAlpha"/>
<feOffset dy="4"/>
<feGaussianBlur stdDeviation="15"/>
<feComposite in2="hardAlpha" operator="out"/>
<feColorMatrix type="matrix" values="0 0 0 0 0 0 0 0 0 0 0 0 0 0 0 0 0 0 0.15 0"/>
<feBlend mode="normal" in2="BackgroundImageFix" result="effect1_dropShadow_49_616"/>
<feBlend mode="normal" in="SourceGraphic" in2="effect1_dropShadow_49_616" result="shape"/>
</filter>
</defs>
</svg>
