<svg width="581" height="516" viewBox="0 0 581 516" fill="none" xmlns="http://www.w3.org/2000/svg">
<g filter="url(#filter0_d_683_3510)">
<rect x="30.7709" y="26" width="520.229" height="455.538" rx="20" fill="white"/>
<path d="M352.334 112.813C351.335 109.897 350.01 107.075 348.378 104.39L350.835 97.2796L334.948 83.233L326.9 85.404C323.861 83.9622 320.667 82.7913 317.365 81.9086L313.409 75.3955H290.924L286.98 81.9086C283.677 82.7893 280.483 83.9603 277.445 85.404L269.397 83.233L253.498 97.2796L255.955 104.39C254.333 107.077 253.012 109.899 252.011 112.813L244.578 116.309V136.174L252.011 139.658C253.009 142.574 254.33 145.396 255.955 148.082L253.498 155.192L269.397 169.239L277.445 167.068C280.486 168.503 283.68 169.671 286.98 170.552L290.924 177.065H313.409L317.365 170.552C320.665 169.668 323.858 168.501 326.9 167.068L334.948 169.239L350.847 155.192L348.39 148.082C350.024 145.398 351.349 142.576 352.346 139.658L359.78 136.174V116.309L352.334 112.813ZM302.166 154.454C295.848 154.454 289.672 152.799 284.418 149.698C279.165 146.596 275.07 142.188 272.652 137.031C270.234 131.874 269.602 126.199 270.834 120.724C272.067 115.25 275.109 110.221 279.577 106.273C284.045 102.326 289.737 99.6382 295.934 98.5492C302.131 97.4602 308.554 98.0191 314.392 100.155C320.229 102.291 325.218 105.909 328.729 110.55C332.239 115.192 334.112 120.648 334.112 126.23C334.112 133.716 330.747 140.895 324.756 146.188C318.765 151.48 310.639 154.454 302.166 154.454Z" fill="#456ECA"/>
<path opacity="0.2" d="M352.334 112.813C351.335 109.897 350.01 107.075 348.378 104.39L350.835 97.2796L334.948 83.233L326.9 85.404C323.861 83.9622 320.667 82.7913 317.365 81.9086L313.409 75.3955H290.924L286.98 81.9086C283.677 82.7893 280.483 83.9603 277.445 85.404L269.397 83.233L253.498 97.2796L255.955 104.39C254.333 107.077 253.012 109.899 252.011 112.813L244.578 116.309V136.174L252.011 139.658C253.009 142.574 254.33 145.396 255.955 148.082L253.498 155.192L269.397 169.239L277.445 167.068C280.486 168.503 283.68 169.671 286.98 170.552L290.924 177.065H313.409L317.365 170.552C320.665 169.668 323.858 168.501 326.9 167.068L334.948 169.239L350.847 155.192L348.39 148.082C350.024 145.398 351.349 142.576 352.346 139.658L359.78 136.174V116.309L352.334 112.813ZM302.166 154.454C295.848 154.454 289.672 152.799 284.418 149.698C279.165 146.596 275.07 142.188 272.652 137.031C270.234 131.874 269.602 126.199 270.834 120.724C272.067 115.25 275.109 110.221 279.577 106.273C284.045 102.326 289.737 99.6382 295.934 98.5492C302.131 97.4602 308.554 98.0191 314.392 100.155C320.229 102.291 325.218 105.909 328.729 110.55C332.239 115.192 334.112 120.648 334.112 126.23C334.112 133.716 330.747 140.895 324.756 146.188C318.765 151.48 310.639 154.454 302.166 154.454Z" fill="white"/>
<path d="M302.167 116.886C300.072 116.886 298.024 117.435 296.282 118.463C294.541 119.491 293.183 120.952 292.382 122.662C291.58 124.372 291.37 126.253 291.779 128.068C292.188 129.884 293.196 131.551 294.677 132.859C296.159 134.168 298.046 135.059 300.1 135.42C302.155 135.781 304.285 135.596 306.22 134.888C308.155 134.18 309.809 132.98 310.973 131.442C312.137 129.903 312.758 128.094 312.758 126.243C312.758 123.761 311.642 121.381 309.656 119.626C307.67 117.872 304.976 116.886 302.167 116.886Z" fill="#456ECA"/>
<path d="M512.347 144.327C510.919 140.157 509.03 136.121 506.707 132.277L510.221 122.117L487.527 102.067L476.015 105.183C471.68 103.107 467.113 101.434 462.388 100.189L456.749 90.8105H424.618L418.966 100.189C414.243 101.438 409.677 103.111 405.34 105.183L393.84 102.067L371.121 122.139L374.635 132.299C372.302 136.138 370.412 140.175 368.995 144.348L358.367 149.331V177.717L368.983 182.711C370.398 186.882 372.288 190.915 374.623 194.749L371.109 204.899L393.827 224.97L405.328 221.866C409.669 223.931 414.239 225.597 418.966 226.837L424.618 236.227H456.749L462.388 226.848C467.11 225.594 471.675 223.921 476.015 221.855L487.527 224.959L510.246 204.888L506.732 194.728C509.048 190.888 510.929 186.856 512.347 182.689L522.963 177.696V149.309L512.347 144.327ZM440.677 214.962C429.156 214.962 417.894 211.943 408.314 206.288C398.734 200.633 391.268 192.596 386.859 183.192C382.45 173.788 381.297 163.44 383.544 153.457C385.792 143.474 391.34 134.304 399.487 127.106C407.633 119.909 418.013 115.007 429.313 113.021C440.613 111.036 452.325 112.055 462.97 115.95C473.614 119.845 482.712 126.442 489.112 134.905C495.513 143.368 498.93 153.318 498.93 163.497C498.93 170.255 497.423 176.948 494.495 183.192C491.568 189.436 487.277 195.109 481.868 199.888C476.459 204.667 470.037 208.458 462.97 211.044C455.902 213.63 448.327 214.962 440.677 214.962Z" fill="#456ECA"/>
<path d="M440.678 119.251C430.77 119.253 421.086 121.851 412.85 126.715C404.614 131.579 398.195 138.492 394.406 146.579C390.616 154.666 389.626 163.564 391.56 172.148C393.494 180.733 398.266 188.617 405.272 194.806C412.279 200.994 421.205 205.208 430.922 206.915C440.638 208.622 450.71 207.745 459.863 204.395C469.015 201.045 476.838 195.372 482.342 188.094C487.846 180.817 490.784 172.26 490.784 163.508C490.767 151.773 485.483 140.522 476.089 132.226C466.696 123.929 453.96 119.262 440.678 119.251ZM440.678 201.87C432.089 201.872 423.693 199.624 416.55 195.41C409.408 191.196 403.84 185.205 400.552 178.196C397.264 171.186 396.402 163.472 398.076 156.03C399.75 148.588 403.885 141.751 409.957 136.385C416.029 131.019 423.766 127.364 432.19 125.883C440.613 124.402 449.344 125.161 457.279 128.064C465.214 130.968 471.997 135.885 476.768 142.194C481.54 148.502 484.087 155.92 484.087 163.508C484.074 173.677 479.497 183.426 471.359 190.617C463.221 197.809 452.188 201.856 440.678 201.87Z" fill="#456ECA"/>
<path opacity="0.2" d="M440.678 119.251C430.77 119.253 421.086 121.851 412.85 126.715C404.614 131.579 398.195 138.492 394.406 146.579C390.616 154.666 389.626 163.564 391.56 172.148C393.494 180.733 398.266 188.617 405.272 194.806C412.279 200.994 421.205 205.208 430.922 206.915C440.638 208.622 450.71 207.745 459.863 204.395C469.015 201.045 476.838 195.372 482.342 188.094C487.846 180.817 490.784 172.26 490.784 163.508C490.767 151.773 485.483 140.522 476.089 132.226C466.696 123.929 453.96 119.262 440.678 119.251ZM440.678 201.87C432.089 201.872 423.693 199.624 416.55 195.41C409.408 191.196 403.84 185.205 400.552 178.196C397.264 171.186 396.402 163.472 398.076 156.03C399.75 148.588 403.885 141.751 409.957 136.385C416.029 131.019 423.766 127.364 432.19 125.883C440.613 124.402 449.344 125.161 457.279 128.064C465.214 130.968 471.997 135.885 476.768 142.194C481.54 148.502 484.087 155.92 484.087 163.508C484.074 173.677 479.497 183.426 471.359 190.617C463.221 197.809 452.188 201.856 440.678 201.87Z" fill="black"/>
<path d="M325.586 239.017C325.26 239.017 324.947 238.903 324.717 238.699C324.486 238.495 324.357 238.219 324.357 237.931V235.76C324.357 235.472 324.486 235.196 324.717 234.993C324.947 234.789 325.26 234.675 325.586 234.675C325.911 234.675 326.224 234.789 326.454 234.993C326.685 235.196 326.814 235.472 326.814 235.76V237.931C326.814 238.219 326.685 238.495 326.454 238.699C326.224 238.903 325.911 239.017 325.586 239.017Z" fill="#456ECA"/>
<path d="M306.455 210.966C305.327 210.325 304.444 209.398 303.924 208.306C303.795 208.042 303.552 207.833 303.249 207.726C302.946 207.619 302.608 207.623 302.308 207.737C302.008 207.85 301.772 208.065 301.651 208.332C301.53 208.6 301.534 208.899 301.663 209.164C302.385 210.647 303.586 211.908 305.115 212.79C305.313 212.903 305.544 212.963 305.779 212.963C306.045 212.965 306.304 212.891 306.518 212.751C306.732 212.611 306.889 212.414 306.965 212.189C307.042 211.964 307.033 211.723 306.941 211.502C306.849 211.282 306.678 211.094 306.455 210.966Z" fill="#456ECA"/>
<path d="M302.167 197.408C302.493 197.408 302.806 197.293 303.036 197.09C303.266 196.886 303.396 196.61 303.396 196.322V192.165C303.396 191.877 303.266 191.601 303.036 191.397C302.806 191.193 302.493 191.079 302.167 191.079C301.841 191.079 301.529 191.193 301.298 191.397C301.068 191.601 300.939 191.877 300.939 192.165V196.322C300.939 196.61 301.068 196.886 301.298 197.09C301.529 197.293 301.841 197.408 302.167 197.408Z" fill="#456ECA"/>
<path d="M314.958 211.922H310.239C309.914 211.922 309.601 212.036 309.371 212.24C309.14 212.443 309.011 212.719 309.011 213.007C309.011 213.295 309.14 213.571 309.371 213.775C309.601 213.979 309.914 214.093 310.239 214.093H314.958C315.283 214.093 315.596 213.979 315.826 213.775C316.057 213.571 316.186 213.295 316.186 213.007C316.186 212.719 316.057 212.443 315.826 212.24C315.596 212.036 315.283 211.922 314.958 211.922Z" fill="#456ECA"/>
<path d="M303.396 204.648V200.491C303.396 200.203 303.266 199.927 303.036 199.723C302.806 199.52 302.493 199.405 302.167 199.405C301.841 199.405 301.529 199.52 301.298 199.723C301.068 199.927 300.939 200.203 300.939 200.491V204.648C300.939 204.936 301.068 205.212 301.298 205.416C301.529 205.619 301.841 205.734 302.167 205.734C302.493 205.734 302.806 205.619 303.036 205.416C303.266 205.212 303.396 204.936 303.396 204.648Z" fill="#456ECA"/>
<path d="M326.741 218.978C326.698 218.693 326.529 218.435 326.271 218.26C326.013 218.085 325.687 218.007 325.364 218.044C325.204 218.068 325.051 218.119 324.914 218.195C324.776 218.272 324.657 218.371 324.564 218.488C324.47 218.605 324.403 218.738 324.368 218.878C324.333 219.017 324.329 219.162 324.357 219.303C324.396 219.555 324.417 219.809 324.418 220.063V223.32C324.418 223.608 324.548 223.884 324.778 224.087C325.009 224.291 325.321 224.405 325.647 224.405C325.973 224.405 326.285 224.291 326.516 224.087C326.746 223.884 326.876 223.608 326.876 223.32V220.063C326.857 219.699 326.812 219.337 326.741 218.978Z" fill="#456ECA"/>
<path d="M325.586 226.348C325.26 226.348 324.947 226.462 324.717 226.666C324.486 226.869 324.357 227.145 324.357 227.433V231.602C324.357 231.889 324.486 232.166 324.717 232.369C324.947 232.573 325.26 232.687 325.586 232.687C325.911 232.687 326.224 232.573 326.454 232.369C326.685 232.166 326.814 231.889 326.814 231.602V227.433C326.814 227.145 326.685 226.869 326.454 226.666C326.224 226.462 325.911 226.348 325.586 226.348Z" fill="#456ECA"/>
<path d="M324.517 214.669C323.314 213.455 321.725 212.589 319.958 212.183C319.802 212.147 319.639 212.139 319.479 212.159C319.319 212.179 319.165 212.227 319.025 212.299C318.886 212.372 318.765 212.468 318.667 212.582C318.57 212.696 318.499 212.826 318.459 212.964C318.419 213.103 318.41 213.247 318.432 213.388C318.455 213.529 318.509 213.665 318.591 213.788C318.673 213.911 318.782 214.019 318.911 214.105C319.04 214.191 319.187 214.253 319.344 214.289C320.635 214.583 321.795 215.215 322.674 216.102C322.789 216.217 322.93 216.31 323.089 216.374C323.248 216.437 323.421 216.47 323.595 216.471C323.831 216.47 324.062 216.41 324.26 216.297C324.459 216.184 324.616 216.022 324.713 215.832C324.81 215.642 324.844 215.431 324.809 215.225C324.774 215.018 324.672 214.825 324.517 214.669Z" fill="#456ECA"/>
<path d="M302.167 189.039C301.841 189.039 301.529 188.925 301.298 188.721C301.068 188.518 300.939 188.242 300.939 187.954V185.783C300.939 185.495 301.068 185.219 301.298 185.015C301.529 184.812 301.841 184.697 302.167 184.697C302.493 184.697 302.806 184.812 303.036 185.015C303.266 185.219 303.396 185.495 303.396 185.783V187.954C303.396 188.242 303.266 188.518 303.036 188.721C302.806 188.925 302.493 189.039 302.167 189.039Z" fill="#456ECA"/>
<path d="M383.789 293.672H99.2971V297.699H383.789V293.672Z" fill="#456ECA"/>
<path d="M383.789 297.699H445.519V293.672H383.789V297.699Z" fill="#456ECA"/>
<path opacity="0.2" d="M383.789 297.699H445.519V293.672H383.789V297.699Z" fill="black"/>
<path d="M424.901 302.009H119.915L109.716 297.699H435.099L424.901 302.009Z" fill="#456ECA"/>
<path opacity="0.6" d="M424.901 302.009H119.915L109.716 297.699H435.099L424.901 302.009Z" fill="white"/>
<path d="M129.13 302.009V430.469H133.037L137.952 302.009H129.13Z" fill="#456ECA"/>
<path d="M175.255 302.009V430.469H179.162L184.077 302.009H175.255Z" fill="#456ECA"/>
<path d="M424.901 302.009V430.469H421.006L416.079 302.009H424.901Z" fill="#456ECA"/>
<path d="M378.788 302.009V430.469H374.881L369.966 302.009H378.788Z" fill="#456ECA"/>
<path d="M285.948 244.91L273.108 291.121L272.752 293.672H361.316L361.685 291.121L374.512 244.91H285.948Z" fill="#456ECA"/>
<path opacity="0.3" d="M285.948 244.91L273.108 291.121L272.752 293.672H361.316L361.685 291.121L374.512 244.91H285.948Z" fill="black"/>
<path d="M371.797 244.91H283.22L270.393 291.121H358.957L371.797 244.91Z" fill="#456ECA"/>
<path d="M357.077 289.003L368.75 247.026H285.1L273.44 289.003H357.077Z" fill="white"/>
<path d="M335.882 291.121L335.513 293.672H237.992L238.348 291.121H335.882Z" fill="#456ECA"/>
<path opacity="0.6" d="M335.882 291.121L335.513 293.672H237.992L238.348 291.121H335.882Z" fill="white"/>
<path d="M151.652 285.27C151.59 283.616 150.857 282.037 149.587 280.822C148.317 279.606 146.595 278.835 144.734 278.648V277.4C144.732 277.327 144.715 277.256 144.681 277.19C144.648 277.124 144.601 277.064 144.541 277.015C144.482 276.965 144.412 276.927 144.335 276.902C144.258 276.876 144.177 276.865 144.095 276.868H130.825C130.743 276.865 130.661 276.876 130.583 276.901C130.506 276.927 130.435 276.965 130.375 277.014C130.314 277.064 130.265 277.123 130.231 277.189C130.197 277.255 130.177 277.327 130.174 277.4V293.682H144.734V291.902C146.598 291.717 148.323 290.945 149.594 289.726C150.865 288.508 151.595 286.926 151.652 285.27ZM144.734 289.796V280.754C145.962 280.914 147.084 281.458 147.895 282.288C148.706 283.118 149.153 284.178 149.153 285.275C149.153 286.372 148.706 287.432 147.895 288.262C147.084 289.092 145.962 289.636 144.734 289.796Z" fill="#FF6600"/>
<path d="M399.995 293.671H412.331L408.682 269.801H399.995V293.671Z" fill="#263238"/>
<path d="M381.909 293.672H405.279L409.616 265.73H386.259L381.909 293.672Z" fill="#456ECA"/>
<path opacity="0.3" d="M381.909 293.672H405.279L409.616 265.73H386.259L381.909 293.672Z" fill="black"/>
<path d="M378.788 293.672H403.104L407.453 265.73H383.138L378.788 293.672Z" fill="#456ECA"/>
<path opacity="0.4" d="M400.954 291.469L404.615 267.935H385.288L381.626 291.469H400.954Z" fill="white"/>
<path d="M216.895 252.423L215.887 253.378L214.806 254.463C214.081 255.202 213.356 255.951 212.668 256.721C211.292 258.263 209.965 259.837 208.724 261.454C206.255 264.582 204.194 267.947 202.581 271.484C201.829 273.166 201.245 274.902 200.836 276.673C200.639 277.672 200.516 278.106 200.455 278.529C200.387 278.867 200.387 279.212 200.455 279.55C200.661 280.081 200.984 280.57 201.406 280.989C201.828 281.408 202.34 281.749 202.912 281.992C203.742 282.444 204.613 282.833 205.517 283.154C205.992 283.327 206.484 283.49 206.992 283.642C207.459 283.794 208.048 283.946 208.417 284.076V290.058C207.557 290.166 206.93 290.253 206.205 290.297C205.48 290.34 204.78 290.351 204.055 290.297C202.565 290.27 201.082 290.103 199.632 289.797C197.998 289.458 196.432 288.902 194.987 288.147C193.289 287.269 191.829 286.072 190.711 284.641C189.561 283.117 188.798 281.392 188.475 279.582C188.393 279.159 188.34 278.731 188.315 278.302C188.291 277.889 188.291 277.476 188.315 277.064V276.456C188.302 276.294 188.302 276.13 188.315 275.968L188.414 275.012C188.728 272.531 189.321 270.084 190.183 267.707C191.847 263.14 194.19 258.789 197.15 254.767C198.572 252.793 200.118 250.89 201.782 249.068C202.605 248.157 203.453 247.266 204.338 246.387C204.768 245.942 205.222 245.508 205.689 245.074C206.156 244.639 206.586 244.26 207.225 243.717L216.895 252.423Z" fill="#B55B52"/>
<path d="M205.972 283.947L211.698 280.234L214.954 290.634C214.954 290.634 209.88 292.295 206.009 290.058L205.972 283.947Z" fill="#B55B52"/>
<path d="M219.648 277.737L221.884 286.443L214.954 290.633L211.698 280.234L219.648 277.737Z" fill="#B55B52"/>
<path d="M255.857 212.52C255.599 213.16 255.783 213.8 256.263 213.942C256.742 214.083 257.332 213.692 257.577 213.051C257.823 212.411 257.651 211.76 257.184 211.619C256.717 211.477 256.115 211.868 255.857 212.52Z" fill="#263238"/>
<path d="M255.722 213.778C255.818 216.014 256.26 218.227 257.037 220.357C256.418 220.513 255.768 220.55 255.132 220.464C254.496 220.377 253.888 220.171 253.351 219.857L255.722 213.778Z" fill="#A02724"/>
<path d="M254.678 208.156C254.769 208.183 254.868 208.183 254.96 208.156C255.499 207.997 256.073 207.953 256.635 208.029C257.197 208.104 257.73 208.296 258.192 208.59C258.284 208.649 258.398 208.675 258.512 208.664C258.625 208.652 258.729 208.603 258.804 208.526C258.878 208.449 258.917 208.351 258.913 208.25C258.909 208.149 258.862 208.054 258.781 207.982C258.205 207.602 257.533 207.35 256.824 207.246C256.114 207.142 255.387 207.19 254.702 207.385C254.612 207.412 254.535 207.463 254.48 207.531C254.425 207.599 254.395 207.681 254.395 207.765C254.395 207.848 254.425 207.93 254.48 207.998C254.535 208.066 254.612 208.118 254.702 208.145L254.678 208.156Z" fill="#263238"/>
<path d="M228.912 214.886C230.288 221.062 231.652 232.384 226.762 236.509C226.762 236.509 228.679 242.773 241.678 242.773C255.968 242.773 248.51 236.509 248.51 236.509C240.707 234.859 240.904 229.747 242.268 224.949L228.912 214.886Z" fill="#B55B52"/>
<path d="M224.894 238.658C223.862 236.672 222.744 234.403 225.066 233.697C227.634 232.916 241.69 232.113 246.531 233.578C247.171 233.732 247.77 233.997 248.293 234.358C248.815 234.719 249.251 235.168 249.575 235.679C249.899 236.191 250.104 236.754 250.178 237.336C250.253 237.919 250.195 238.508 250.008 239.071L224.894 238.658Z" fill="#263238"/>
<path d="M273.981 249.254C276.991 254.041 280.222 258.969 283.491 263.702C286.759 268.435 290.187 273.146 293.849 277.445C294.758 278.53 295.704 279.562 296.638 280.593C297.105 281.125 297.596 281.559 298.075 282.048L298.788 282.764L298.972 282.949L299.058 283.035L299.144 283.133C299.717 283.622 300.405 283.993 301.159 284.219C302.321 284.576 303.518 284.834 304.735 284.989C310.707 285.522 316.729 285.46 322.686 284.805L324.554 290.558C322.895 291.209 321.347 291.644 319.7 292.186C318.054 292.729 316.432 293.087 314.786 293.456C311.296 294.23 307.718 294.652 304.12 294.716C302.101 294.744 300.085 294.566 298.112 294.184C295.691 293.759 293.407 292.861 291.428 291.557L290.605 290.96L290.408 290.808L290.285 290.699L290.052 290.493L289.094 289.657C288.467 289.103 287.779 288.571 287.214 287.985C285.985 286.846 284.83 285.706 283.761 284.533C279.468 279.95 275.508 275.132 271.904 270.107C270.11 267.632 268.382 265.131 266.719 262.606C265.048 260.055 263.438 257.558 261.878 254.866L273.981 249.254Z" fill="#B55B52"/>
<path d="M209.646 238.42C200.677 240.233 190.405 261.824 190.405 261.824L208.405 272.68C212.882 267.007 216.854 261.037 220.287 254.823C225.607 244.988 218.812 236.564 209.646 238.42Z" fill="#FF6600"/>
<path opacity="0.2" d="M216.06 252.185L207.557 272.202L208.393 272.723C208.393 272.723 212.079 268.153 216.06 261.987V252.185Z" fill="black"/>
<path d="M263.217 238.844C263.217 238.844 273.391 249.004 263.782 311.856H212.632C212.288 304.919 217.215 271.094 209.646 238.409C215.299 237.448 221.016 236.81 226.762 236.499C234.005 236.124 241.267 236.124 248.51 236.499C253.474 236.94 258.391 237.724 263.217 238.844Z" fill="#FF6600"/>
<path opacity="0.2" d="M257.528 257.026C258.862 264.16 262.352 270.843 267.628 276.37C267.837 272.321 267.923 268.685 267.91 265.439L257.528 257.026Z" fill="black"/>
<path d="M253.093 245.703C251.864 253.703 269.68 274.133 269.68 274.133L287.607 263.278C287.607 263.278 282.631 252.021 274.263 244.639C264.729 236.172 254.494 236.997 253.093 245.703Z" fill="#FF6600"/>
<path d="M320.671 284.858L327.97 282.209L335.477 287.224C335.477 287.224 328.314 292.825 321.802 290.643L320.671 284.858Z" fill="#B55B52"/>
<path d="M332.786 281.949L338.29 285.423L335.44 287.225L327.932 282.21L332.786 281.949Z" fill="#B55B52"/>
<path d="M232.094 203.683C229.538 211.759 227.572 216.373 230.497 221.811C234.883 230.007 247.354 229.779 252.613 222.549C257.331 216.036 260.722 203.922 253.203 198.092C251.552 196.797 249.553 195.896 247.397 195.475C245.241 195.054 242.999 195.127 240.884 195.687C238.769 196.247 236.851 197.276 235.312 198.675C233.774 200.075 232.666 201.799 232.094 203.683Z" fill="#B55B52"/>
<path d="M251.557 203.77C247.871 213.04 243.533 223.223 232.942 221.29C226.11 220.042 225.57 210.327 223.112 205.909C220.938 202.033 221.073 194.239 225.57 194.142C223.555 191.558 233.741 182.103 240.695 187.097C242.477 184.925 255.316 178.532 264.827 188.681C273.784 198.277 269.397 206.278 251.557 203.77Z" fill="#263238"/>
<path d="M243.264 209.697C243.017 211.767 243.544 213.852 244.763 215.634C246.397 217.957 248.793 217.067 249.677 214.69C250.464 212.519 250.55 208.774 248.277 207.265C246.004 205.756 243.608 207.2 243.264 209.697Z" fill="#B55B52"/>
<path d="M321.752 424.337C322.981 424.337 324.21 424.185 324.566 423.697C324.667 423.568 324.722 423.414 324.722 423.257C324.722 423.1 324.667 422.947 324.566 422.818C324.402 422.589 324.148 422.422 323.853 422.351C322.256 421.971 318.938 423.653 318.779 423.729C318.737 423.748 318.703 423.778 318.683 423.816C318.663 423.853 318.658 423.895 318.668 423.936C318.676 423.974 318.697 424.01 318.727 424.039C318.758 424.068 318.797 424.089 318.84 424.098C319.801 424.253 320.775 424.333 321.752 424.337ZM323.276 422.698C323.418 422.68 323.563 422.68 323.706 422.698C323.799 422.713 323.886 422.747 323.963 422.795C324.039 422.844 324.103 422.907 324.148 422.98C324.308 423.23 324.259 423.349 324.148 423.415C323.706 423.968 321.285 423.979 319.504 423.751C320.672 423.187 321.953 422.83 323.276 422.698Z" fill="#456ECA"/>
<path d="M318.865 424.098H318.963C320.118 423.642 322.403 421.818 322.219 420.841C322.219 420.614 321.998 420.342 321.384 420.277C321.163 420.26 320.941 420.282 320.73 420.342C320.519 420.401 320.323 420.497 320.155 420.624C318.926 421.504 318.681 423.783 318.668 423.881C318.664 423.916 318.669 423.951 318.684 423.983C318.699 424.015 318.723 424.044 318.754 424.065C318.788 424.083 318.826 424.094 318.865 424.098ZM321.199 420.679H321.335C321.74 420.679 321.765 420.863 321.777 420.907C321.887 421.482 320.327 422.915 319.147 423.534C319.245 422.578 319.674 421.672 320.376 420.939C320.605 420.766 320.898 420.673 321.199 420.679Z" fill="#456ECA"/>
<path d="M307.745 423.903H317.304L319.479 404.331H309.92L307.745 423.903Z" fill="#B55B52"/>
<path d="M317.845 422.926H307.413C307.221 422.927 307.035 422.985 306.885 423.092C306.736 423.198 306.632 423.346 306.59 423.512L304.698 430.98C304.649 431.162 304.648 431.352 304.695 431.534C304.742 431.716 304.835 431.887 304.968 432.032C305.1 432.178 305.269 432.295 305.461 432.374C305.653 432.453 305.862 432.493 306.074 432.489C309.834 432.435 315.277 432.24 320.007 432.24C325.549 432.24 330.328 432.5 336.816 432.5C340.748 432.5 341.841 428.994 340.195 428.679C332.712 427.235 326.605 427.083 320.142 423.555C319.457 423.163 318.662 422.945 317.845 422.926Z" fill="#263238"/>
<path opacity="0.2" d="M319.467 404.342L318.361 414.426H308.789L309.908 404.342H319.467Z" fill="black"/>
<path d="M283.429 424.327C283.835 424.374 284.247 424.349 284.641 424.254C285.035 424.159 285.405 423.995 285.727 423.773C285.84 423.636 285.901 423.471 285.901 423.301C285.901 423.131 285.84 422.966 285.727 422.829C285.654 422.71 285.553 422.606 285.429 422.525C285.306 422.445 285.165 422.389 285.014 422.362C283.614 422.069 280.972 423.665 280.861 423.73C280.826 423.754 280.799 423.785 280.782 423.822C280.764 423.858 280.758 423.897 280.763 423.936C280.772 423.974 280.793 424.008 280.823 424.035C280.854 424.062 280.893 424.08 280.935 424.088C281.754 424.246 282.591 424.326 283.429 424.327ZM284.658 422.72C284.748 422.709 284.839 422.709 284.928 422.72C285.016 422.732 285.1 422.761 285.172 422.806C285.245 422.852 285.304 422.911 285.346 422.981C285.555 423.317 285.432 423.448 285.346 423.502C284.941 423.969 282.987 423.979 281.549 423.773C282.474 423.22 283.528 422.86 284.633 422.72H284.658Z" fill="#456ECA"/>
<path d="M280.997 424.098H281.095C282.09 423.621 284.007 421.775 283.798 420.842C283.766 420.692 283.677 420.557 283.544 420.46C283.412 420.363 283.245 420.31 283.073 420.31C282.902 420.291 282.728 420.305 282.562 420.35C282.397 420.395 282.245 420.47 282.115 420.57C281.009 421.374 280.775 423.827 280.763 423.914C280.762 423.95 280.772 423.986 280.792 424.018C280.811 424.051 280.839 424.078 280.874 424.098C280.914 424.109 280.957 424.109 280.997 424.098ZM282.926 420.679H283.024C283.319 420.679 283.343 420.831 283.356 420.885C283.479 421.439 282.25 422.839 281.267 423.501C281.333 422.538 281.727 421.615 282.397 420.853C282.544 420.741 282.732 420.679 282.926 420.679Z" fill="#456ECA"/>
<path d="M270.037 423.903H279.596L284.4 404.331H274.841L270.037 423.903Z" fill="#B55B52"/>
<path d="M280.271 422.926H269.533C269.342 422.928 269.158 422.986 269.01 423.093C268.863 423.2 268.761 423.348 268.722 423.512L266.829 430.981C266.785 431.164 266.788 431.354 266.838 431.536C266.888 431.718 266.984 431.888 267.119 432.033C267.253 432.178 267.423 432.294 267.616 432.373C267.808 432.452 268.018 432.492 268.23 432.49C271.978 432.435 273.808 432.24 278.527 432.24C281.439 432.24 285.162 432.501 289.179 432.501C293.197 432.501 293.713 428.994 292.067 428.68C284.695 427.258 284.191 425.293 281.832 423.415C281.397 423.089 280.842 422.915 280.271 422.926Z" fill="#263238"/>
<g opacity="0.2">
<path d="M274.841 404.342H284.4L281.918 414.426H272.359L274.841 404.342Z" fill="black"/>
</g>
<path d="M263.782 311.866C263.782 311.866 335.415 318.564 334.628 350.847C334.121 371.122 329.708 391.173 321.58 410.138H307.376C307.376 410.138 308.101 389.655 307.622 356.601C307.474 346.69 284.83 343.422 262.701 342.272C253.33 341.751 244.31 338.927 236.659 334.119C229.009 329.31 223.031 322.708 219.402 315.058L217.89 311.866H263.782Z" fill="#263238"/>
<path d="M325.057 406.773C325.131 406.773 324.136 412.711 324.136 412.711H304.477L303.936 407.414L325.057 406.773Z" fill="#456ECA"/>
<path d="M248.448 311.866C248.448 311.866 300.373 327.064 301.687 345.908C304.145 380.58 284.842 410.138 284.842 410.138H270.503C270.503 410.138 275.946 395.484 277.875 364.069C280.333 324.61 196.99 364.004 212.607 311.866H248.448Z" fill="#263238"/>
<path d="M289.18 406.773C289.253 406.773 287.373 412.711 287.373 412.711H267.714L268.071 407.414L289.18 406.773Z" fill="#456ECA"/>
<path d="M285.899 345.104H206.034C206.034 342.968 206.995 340.919 208.704 339.409C210.414 337.898 212.733 337.05 215.151 337.05H276.782C279.2 337.05 281.519 337.898 283.229 339.409C284.939 340.919 285.899 342.968 285.899 345.104Z" fill="#456ECA"/>
<path d="M209.732 345.095L197.691 434.281H200.271L215.544 345.095H209.732Z" fill="#456ECA"/>
<path opacity="0.4" d="M209.732 345.095L197.691 434.281H200.271L215.544 345.095H209.732Z" fill="black"/>
<path d="M225.84 345.095L225.607 434.281H228.175L231.652 345.095H225.84Z" fill="#456ECA"/>
<path opacity="0.4" d="M225.84 345.095L225.607 434.281H228.175L231.652 345.095H225.84Z" fill="black"/>
<path d="M282.201 345.095L294.242 434.281H291.662L276.401 345.095H282.201Z" fill="#456ECA"/>
<path opacity="0.4" d="M282.201 345.095L294.242 434.281H291.662L276.401 345.095H282.201Z" fill="black"/>
<path d="M266.092 345.095L266.326 434.281H263.758L260.281 345.095H266.092Z" fill="#456ECA"/>
<path opacity="0.4" d="M266.092 345.095L266.326 434.281H263.758L260.281 345.095H266.092Z" fill="black"/>
</g>
<defs>
<filter id="filter0_d_683_3510" x="0.770874" y="0" width="580.229" height="515.538" filterUnits="userSpaceOnUse" color-interpolation-filters="sRGB">
<feFlood flood-opacity="0" result="BackgroundImageFix"/>
<feColorMatrix in="SourceAlpha" type="matrix" values="0 0 0 0 0 0 0 0 0 0 0 0 0 0 0 0 0 0 127 0" result="hardAlpha"/>
<feOffset dy="4"/>
<feGaussianBlur stdDeviation="15"/>
<feComposite in2="hardAlpha" operator="out"/>
<feColorMatrix type="matrix" values="0 0 0 0 0 0 0 0 0 0 0 0 0 0 0 0 0 0 0.15 0"/>
<feBlend mode="normal" in2="BackgroundImageFix" result="effect1_dropShadow_683_3510"/>
<feBlend mode="normal" in="SourceGraphic" in2="effect1_dropShadow_683_3510" result="shape"/>
</filter>
</defs>
</svg>
