<svg width="44" height="45" viewBox="0 0 44 45" fill="none" xmlns="http://www.w3.org/2000/svg">
<path d="M21.7737 9.83545C14.8622 9.83545 9.26172 15.2618 9.26172 21.9584C9.26172 28.6551 14.8622 34.0814 21.7737 34.0814C28.6852 34.0814 34.2856 28.6551 34.2856 21.9584C34.2856 15.2618 28.6825 9.83545 21.7737 9.83545ZM15.3899 20.364C15.3817 20.5696 15.4443 20.6381 15.6646 20.6381C17.0028 20.6249 18.3438 20.6302 19.6874 20.6302C20.4082 20.6302 20.9087 21.1072 20.9114 21.8003C20.9169 22.106 20.9441 22.4144 20.7673 22.6937C20.5225 23.0864 20.1662 23.2682 19.701 23.2735C18.3628 23.2735 17.0191 23.2788 15.6782 23.2709C15.4524 23.2709 15.379 23.3315 15.3871 23.5529V23.6846C15.3899 23.9271 15.3953 24.1643 15.3953 24.4041C15.3953 24.4568 15.3953 24.5122 15.3953 24.5649C15.3953 24.8126 15.3899 25.0603 15.3871 25.3054C15.3871 25.3397 15.3899 25.366 15.3953 25.395V25.3977C15.3953 25.4056 15.4007 25.4135 15.4035 25.4214C15.4089 25.4504 15.4198 25.4767 15.4361 25.5005C15.4443 25.5163 15.4551 25.5294 15.4687 25.5426C15.4796 25.5505 15.4905 25.5611 15.5014 25.569C15.5231 25.5874 15.5476 25.6059 15.5748 25.6217C15.5803 25.6243 15.583 25.6243 15.5857 25.6243C17.1388 26.4887 18.6838 27.3505 20.2314 28.2202C20.6993 28.4785 21.1644 28.7394 21.6322 29.0029C21.7438 29.0662 21.809 29.0583 21.9151 28.9977C23.9252 27.8697 25.938 26.747 27.9535 25.6243C28.0841 25.5532 28.1493 25.4741 28.1493 25.3186C28.1439 25.0129 28.1412 24.7098 28.1412 24.4068C28.1412 24.1116 28.1439 23.819 28.1493 23.5265C28.1548 23.3289 28.0705 23.2814 27.8828 23.2841C26.5092 23.2893 25.141 23.2682 23.7701 23.292C23.131 23.3051 22.557 22.807 22.6223 22.1772C22.6522 21.8846 22.6223 21.5737 22.7012 21.2917C22.8127 20.8832 23.2126 20.6407 23.6586 20.6407H29.9146C30.1458 20.6407 30.358 20.7171 30.5239 20.8463C30.7388 21.015 30.8748 21.2706 30.8748 21.5658C30.8748 21.9031 30.8775 22.2404 30.8775 22.5778C30.8802 23.9192 30.8802 25.258 30.8802 26.5994C30.8802 26.9289 30.7088 27.1555 30.4205 27.3189C30.1621 27.4639 29.9037 27.6062 29.6453 27.7511C28.1303 28.5971 26.6153 29.4431 25.1029 30.2917C24.1809 30.8082 23.2588 31.3248 22.3367 31.8387C21.9586 32.0521 21.586 32.0521 21.2052 31.8413C20.8815 31.6595 20.5551 31.475 20.2314 31.2931C19.4318 30.8477 18.6375 30.405 17.8378 29.9596C17.5686 29.8094 17.2966 29.6592 17.0273 29.5063C16.9647 29.4694 16.9049 29.4352 16.8423 29.4035C16.6193 29.277 16.3963 29.1505 16.1732 29.0267C16.1596 29.0188 16.1433 29.0109 16.1297 29.0029C15.8849 28.8633 15.6374 28.7289 15.3926 28.5892C15.1913 28.4785 14.99 28.3678 14.7942 28.2518C14.2447 27.9409 13.6953 27.6325 13.1486 27.3242C12.8303 27.1423 12.6617 26.8603 12.6617 26.494V21.9611C12.6617 20.4879 12.6699 19.0173 12.6563 17.5441C12.6508 17.0803 12.8439 16.7587 13.2574 16.5268C14.9819 15.5701 16.7063 14.6056 18.4281 13.641C19.3447 13.1297 20.2668 12.6211 21.1807 12.1019C21.5751 11.8753 21.9505 11.8753 22.3476 12.0967C24.9969 13.5857 27.6516 15.0668 30.3063 16.5453C30.7034 16.7666 30.8884 17.0855 30.8802 17.5309C30.8666 18.0975 30.872 18.6694 30.8802 19.2387C30.8802 19.3889 30.8312 19.4416 30.6762 19.4416C30.1676 19.4337 29.6644 19.4469 29.1612 19.439C28.5764 19.4311 28.2391 19.1253 28.1412 18.5666C28.1249 18.4639 28.0297 18.34 27.9372 18.2899C26.1501 17.2805 24.3658 16.2817 22.5761 15.2803C22.3884 15.1775 22.1898 15.0773 22.0103 14.9614C21.8471 14.8533 21.7084 14.8586 21.5343 14.9587C20.4409 15.5781 19.3393 16.1921 18.2404 16.8088C17.3673 17.2937 16.4996 17.7865 15.6238 18.2609C15.4524 18.3611 15.3871 18.4744 15.3899 18.6668C15.4007 19.2255 15.4007 19.7974 15.3899 20.364Z" fill="white"/>
<path d="M7.56634 10.5497C9.26089 10.5497 10.6018 11.8621 10.6018 13.5145C10.5991 15.1274 9.23641 16.4372 7.56362 16.4372C5.88267 16.4372 4.52539 15.1169 4.52539 13.4829C4.52811 11.8621 5.88811 10.5497 7.56634 10.5497Z" fill="white"/>
<path d="M39.0208 30.4366C39.0181 32.0759 37.6526 33.3725 35.9363 33.3699C34.2663 33.3672 32.9416 32.0337 32.9443 30.3628C32.9471 28.7816 34.3315 27.477 35.9989 27.4823C37.6717 27.4876 39.0235 28.8079 39.0208 30.4366Z" fill="white"/>
<path d="M36.4363 11.3271C38.1254 11.3271 39.48 12.6369 39.48 14.2709C39.48 15.9048 38.1227 17.2146 36.4336 17.212C34.7309 17.2094 33.4035 15.8943 33.4063 14.2155C33.409 12.6343 34.7799 11.3271 36.4363 11.3271Z" fill="white"/>
<path d="M7.09627 32.5898C5.41803 32.5898 4.06348 31.2747 4.06348 29.6486C4.06348 28.0146 5.42075 26.7022 7.10715 26.7048C8.80986 26.7075 10.1399 28.0199 10.1372 29.7013C10.1372 31.2879 8.76362 32.5924 7.09627 32.5898Z" fill="white"/>
<path d="M21.2951 41.0337C19.6359 41.0337 18.2895 39.7292 18.2949 38.1163C18.3004 36.4534 19.6441 35.1778 21.3141 35.1857C23.0495 35.1962 24.3252 36.4982 24.3306 38.1189C24.336 39.7292 22.9652 41.0574 21.2951 41.0337Z" fill="white"/>
<path d="M22.249 2.88319C23.9109 2.88319 25.2546 4.18772 25.2518 5.79797C25.2464 7.47674 23.8782 8.73648 22.2381 8.73121C20.5381 8.72594 19.2298 7.44775 19.2189 5.80851C19.2026 4.19563 20.5762 2.86474 22.249 2.88319Z" fill="white"/>
<path d="M6.39207 25.7745C5.92967 25.9406 5.48631 26.0987 5.02663 26.2647C4.59959 24.7204 4.40375 23.1233 4.44999 21.4972C4.49623 19.8685 4.78727 18.2846 5.29863 16.7614C5.74471 16.9511 6.18263 17.1356 6.63415 17.328C6.20167 18.6799 5.94327 20.0925 5.89975 21.542C5.85351 22.981 6.03575 24.4015 6.39207 25.7745Z" fill="white"/>
<path d="M34.6524 10.7368C34.2552 11.0214 33.8745 11.2929 33.4746 11.5775C31.4373 9.44278 28.9513 7.94585 26.0518 7.14205C26.1361 6.68085 26.215 6.23019 26.302 5.75317C29.5769 6.62814 32.3649 8.30691 34.6524 10.7368Z" fill="white"/>
<path d="M8.875 33.1643C9.09804 33.0246 9.30748 32.906 9.5006 32.769C9.68828 32.6346 9.85964 32.4791 10.05 32.3236C12.1063 34.4794 14.5924 35.9737 17.5164 36.7854C17.4593 37.0173 17.3913 37.2413 17.3505 37.468C17.3097 37.692 17.2988 37.9213 17.2716 38.1769C13.9723 37.2914 11.1843 35.6153 8.875 33.1643Z" fill="white"/>
<path d="M38.2427 27.1845C38.0143 27.0712 37.8075 26.9526 37.5899 26.8604C37.3723 26.7681 37.1411 26.6996 36.9072 26.6153C37.3479 25.2396 37.6063 23.8296 37.6498 22.388C37.6933 20.9438 37.5138 19.526 37.1547 18.1476C37.6171 17.9816 38.0632 17.8182 38.5229 17.6522C39.3851 20.8384 39.2899 24.0194 38.2427 27.1845Z" fill="white"/>
<path d="M18.1829 5.53442C18.2373 6.00353 18.289 6.45946 18.3434 6.93911C16.9181 7.24745 15.5309 7.74555 14.2199 8.43603C12.9116 9.12652 11.7257 9.9804 10.6785 10.9687C10.3031 10.663 9.93863 10.3678 9.56055 10.0595C11.9786 7.75346 14.8618 6.23018 18.1829 5.53442Z" fill="white"/>
<path d="M32.8681 32.9508C33.2516 33.2618 33.6161 33.5543 33.9887 33.8548C31.5679 36.1634 28.682 37.6867 25.3663 38.3824C25.3119 37.9107 25.2575 37.4521 25.2031 36.9804C28.1407 36.3373 30.7084 34.9775 32.8681 32.9508Z" fill="white"/>
</svg>
