<svg width="37" height="36" viewBox="0 0 37 36" fill="none" xmlns="http://www.w3.org/2000/svg">
<path d="M20.0848 3.00136C21.2098 2.99716 22.3348 3.00816 23.4595 3.03436L23.7586 3.04486C24.1039 3.05686 24.4446 3.07186 24.8562 3.08986C26.4966 3.16486 27.6158 3.41686 28.5979 3.78736C29.6154 4.16836 30.4725 4.68436 31.3297 5.51836C32.1134 6.26777 32.72 7.17428 33.1072 8.17486C33.488 9.13036 33.747 10.2209 33.8241 11.8169C33.8426 12.2159 33.858 12.5489 33.8704 12.8849L33.8796 13.1759C33.907 14.2696 33.9188 15.3638 33.9151 16.4579L33.9166 17.5769V19.5419C33.9204 20.6365 33.9086 21.7311 33.8812 22.8254L33.8719 23.1164C33.8596 23.4524 33.8442 23.7839 33.8257 24.1844C33.7486 25.7804 33.4865 26.8694 33.1072 27.8249C32.7213 28.8265 32.1146 29.7338 31.3297 30.4829C30.5588 31.2453 29.6266 31.8355 28.5979 32.2124C27.6158 32.5829 26.4966 32.8349 24.8562 32.9099C24.4446 32.9279 24.1039 32.9429 23.7586 32.9549L23.4595 32.9639C22.3348 32.9905 21.2098 33.002 20.0848 32.9984L18.9347 32.9999H16.9167C15.7916 33.0036 14.6666 32.9921 13.542 32.9654L13.2429 32.9564C12.8769 32.9435 12.511 32.9284 12.1452 32.9114C10.5049 32.8364 9.38562 32.5814 8.40204 32.2124C7.37326 31.8364 6.4414 31.2461 5.67175 30.4829C4.88711 29.7333 4.27997 28.8262 3.89266 27.8249C3.51187 26.8694 3.25287 25.7804 3.17579 24.1844C3.15862 23.8284 3.1432 23.4724 3.12954 23.1164L3.12183 22.8254C3.09341 21.7311 3.08056 20.6365 3.08329 19.5419V16.4579C3.07898 15.3638 3.09029 14.2697 3.1172 13.1759L3.128 12.8849C3.14033 12.5489 3.15575 12.2159 3.17425 11.8169C3.25133 10.2194 3.51033 9.13186 3.89112 8.17486C4.27865 7.17379 4.88698 6.26752 5.67329 5.51986C6.44242 4.75599 7.37369 4.16472 8.40204 3.78736C9.38562 3.41686 10.5033 3.16486 12.1452 3.08986L13.2429 3.04486L13.542 3.03736C14.6661 3.00972 15.7906 2.99722 16.9151 2.99986L20.0848 3.00136ZM18.5 10.5014C17.4786 10.4873 16.4646 10.6709 15.5168 11.0415C14.569 11.412 13.7064 11.9622 12.979 12.6599C12.2516 13.3577 11.6741 14.1892 11.2798 15.106C10.8856 16.0228 10.6826 17.0068 10.6826 18.0006C10.6826 18.9944 10.8856 19.9784 11.2798 20.8952C11.6741 21.8121 12.2516 22.6435 12.979 23.3413C13.7064 24.039 14.569 24.5892 15.5168 24.9598C16.4646 25.3303 17.4786 25.5139 18.5 25.4999C20.5443 25.4999 22.505 24.7097 23.9506 23.3032C25.3962 21.8966 26.2083 19.989 26.2083 17.9999C26.2083 16.0107 25.3962 14.1031 23.9506 12.6966C22.505 11.29 20.5443 10.5014 18.5 10.5014ZM18.5 13.5014C19.1143 13.4903 19.7248 13.5986 20.2957 13.8197C20.8666 14.0408 21.3865 14.3704 21.825 14.7892C22.2635 15.208 22.6118 15.7076 22.8497 16.2589C23.0875 16.8101 23.2101 17.402 23.2102 17.9998C23.2103 18.5977 23.0879 19.1896 22.8503 19.7409C22.6126 20.2923 22.2645 20.792 21.8261 21.211C21.3877 21.6299 20.8679 21.9597 20.2971 22.181C19.7263 22.4023 19.1159 22.5107 18.5015 22.4999C17.2749 22.4999 16.0985 22.0258 15.2311 21.1818C14.3638 20.3379 13.8765 19.1933 13.8765 17.9999C13.8765 16.8064 14.3638 15.6618 15.2311 14.8179C16.0985 13.974 17.2749 13.4999 18.5015 13.4999L18.5 13.5014ZM26.5937 8.25136C26.0963 8.27073 25.626 8.47658 25.2811 8.82581C24.9363 9.17505 24.7437 9.64056 24.7437 10.1249C24.7437 10.6092 24.9363 11.0747 25.2811 11.4239C25.626 11.7731 26.0963 11.979 26.5937 11.9984C27.1048 11.9984 27.595 11.8008 27.9564 11.4492C28.3178 11.0976 28.5208 10.6206 28.5208 10.1234C28.5208 9.62608 28.3178 9.14916 27.9564 8.79753C27.595 8.4459 27.1048 8.24836 26.5937 8.24836V8.25136Z" fill="white"/>
</svg>
