<svg xmlns="http://www.w3.org/2000/svg" width="94" height="77" viewBox="0 0 94 77" fill="none">
  <path d="M67.5977 28.4545C67.5709 29.6993 67.5798 30.9527 67.5977 32.1976C67.5977 32.529 67.486 32.6394 67.1421 32.6394C66.0077 32.6224 64.8823 32.6479 63.7568 32.6309C62.4483 32.6139 61.698 31.9427 61.4791 30.7148C61.4434 30.4896 61.2335 30.2177 61.0236 30.1072C57.0353 27.8979 53.0471 25.7056 49.05 23.5133C48.6301 23.2881 48.1925 23.0714 47.7861 22.8165C47.4198 22.5828 47.1072 22.5913 46.7231 22.808C44.2802 24.1676 41.8193 25.5144 39.3719 26.8612C37.4247 27.9234 35.4864 29.0026 33.5258 30.0435C33.1417 30.2602 32.9943 30.5151 33.0033 30.9315C33.0211 32.1763 33.0211 33.4297 32.9943 34.6746C32.9765 35.1249 33.1149 35.2736 33.6062 35.2736C36.5985 35.2481 39.5863 35.2566 42.5875 35.2566C44.1953 35.2566 45.3118 36.3018 45.3208 37.8228C45.3297 38.4941 45.3922 39.1697 44.9992 39.7815C44.4499 40.644 43.6549 41.0433 42.6232 41.0518C39.631 41.0518 36.6342 41.0603 33.6419 41.0433C33.1373 41.0433 32.9765 41.175 32.9943 41.6594V41.9483C33.0033 42.4794 33.0122 43.002 33.0122 43.5246C33.0122 43.6435 33.0122 43.7625 33.0122 43.8772C33.0077 44.421 33.0033 44.9606 32.9943 45.496C32.9943 45.5724 33.0033 45.6319 33.0122 45.6914V52.6932C32.5656 52.451 32.1145 52.2046 31.6768 51.954C30.4531 51.2742 29.225 50.5944 28.0012 49.9188C27.2867 49.5195 26.9115 48.8992 26.9115 48.1004V38.1627C26.9115 34.9337 26.9294 31.709 26.9026 28.48C26.8936 27.4603 27.3224 26.7593 28.2469 26.2537C32.0967 24.1548 35.9464 22.0432 39.7873 19.9274C41.8372 18.8057 43.8916 17.6926 45.9326 16.5497C46.8124 16.0526 47.6521 16.0526 48.5408 16.5412C54.4584 19.8042 60.3849 23.0502 66.3114 26.2962C67.2047 26.7805 67.6155 27.4773 67.5977 28.4545Z" fill="#FFA500"/>
  <path d="M67.5843 39.5094C67.5843 38.7702 67.5798 38.0309 67.5798 37.2916C67.5798 36.6501 67.2761 36.085 66.7982 35.7154C66.4275 35.4307 65.9586 35.2607 65.4405 35.2607H51.475C50.4791 35.2607 49.5814 35.7918 49.3358 36.6883C49.1616 37.3044 49.2241 37.9841 49.1616 38.6299C49.0142 40.015 50.296 41.1027 51.7207 41.0729C54.7844 41.022 57.8392 41.0644 60.903 41.0559C61.3228 41.0474 61.5059 41.1494 61.497 41.587C61.4836 42.2286 61.4746 42.8744 61.4746 43.5202C61.4746 44.1872 61.4791 44.8543 61.497 45.5213C61.497 45.8612 61.3496 46.0354 61.0593 46.1926C56.5575 48.6568 52.069 51.1168 47.5761 53.5896C47.3394 53.7213 47.1921 53.7383 46.9464 53.5981C45.9058 53.0245 44.8608 52.4509 43.8202 51.8858C40.3634 49.9824 36.9156 48.0918 33.4499 46.1969C33.4409 46.1969 33.432 46.1969 33.4231 46.1884C33.3606 46.1544 33.3025 46.1204 33.2578 46.0736C33.231 46.0566 33.2042 46.0354 33.1864 46.0142C33.1596 45.9887 33.1328 45.9589 33.1149 45.9249C33.0792 45.874 33.0524 45.8102 33.0435 45.7507C33.0345 45.7337 33.0256 45.7168 33.0256 45.6998V45.6955V52.6973C33.5749 53.0032 34.1243 53.2964 34.6736 53.6023C34.7049 53.6193 34.7406 53.6363 34.7718 53.6575C35.2676 53.9295 35.7678 54.2056 36.2635 54.4818C36.402 54.5498 36.5359 54.6305 36.6744 54.707C37.2773 55.0384 37.8802 55.3698 38.4832 55.6969C40.2651 56.6699 42.0426 57.6471 43.8246 58.62C44.5481 59.0194 45.2806 59.4188 45.9996 59.8224C46.8482 60.2812 47.6833 60.2812 48.523 59.8139C50.5818 58.6837 52.6407 57.5536 54.6951 56.4192C58.0715 54.5625 61.4523 52.7016 64.8331 50.8492C65.4093 50.5348 65.9899 50.2161 66.566 49.9017C67.2046 49.5448 67.5887 49.0477 67.5887 48.3254C67.5887 45.3854 67.5887 42.4495 67.5843 39.5094Z" fill="#FFA500"/>
  <path d="M20.1498 16.7959C23.3788 16.8001 25.9424 19.2559 25.9379 22.3489C25.9334 25.3697 23.3342 27.8212 20.1409 27.8212C16.9342 27.8212 14.3439 25.3485 14.3484 22.2894C14.3484 19.2516 16.9476 16.7959 20.1498 16.7959Z" fill="#FFA500"/>
  <path d="M80.1608 54.0488C80.1563 57.1163 77.5526 59.5465 74.2745 59.5423C71.0857 59.5381 68.5623 57.0398 68.5668 53.9085C68.5757 50.9472 71.2152 48.5042 74.3951 48.5127C77.5839 48.5255 80.1653 50.9982 80.1608 54.0488Z" fill="#FFA500"/>
  <path d="M75.2302 18.2539C78.4548 18.2539 81.0406 20.7096 81.0362 23.7644C81.0362 26.8235 78.4458 29.2792 75.2258 29.275C71.9789 29.2707 69.4422 26.8065 69.4466 23.6582C69.4556 20.7011 72.0727 18.2539 75.2302 18.2539Z" fill="#FFA500"/>
  <path d="M19.2522 58.0849C16.0544 58.0849 13.4686 55.6207 13.4686 52.5744C13.4686 49.5111 16.0544 47.0553 19.2745 47.0596C22.5258 47.0638 25.0625 49.5238 25.0581 52.6721C25.0491 55.6462 22.432 58.0849 19.2522 58.0849Z" fill="#FFA500"/>
  <path d="M46.3435 73.9024C43.177 73.9024 40.609 71.4552 40.6224 68.4386C40.6314 65.3243 43.1994 62.9323 46.3792 62.9493C49.6886 62.9663 52.1226 65.405 52.1316 68.4429C52.1405 71.4552 49.5234 73.9449 46.3435 73.9024Z" fill="#FFA500"/>
  <path d="M48.1612 2.43989C51.3277 2.43989 53.8957 4.88288 53.8867 7.90369C53.8778 11.0477 51.2696 13.4057 48.1344 13.3972C44.892 13.3845 42.3955 10.9925 42.3731 7.92069C42.3508 4.89563 44.9724 2.40165 48.1612 2.43989Z" fill="#FFA500"/>
  <path d="M17.9079 45.3179C17.0236 45.628 16.1795 45.9254 15.2997 46.2356C14.4868 43.3422 14.1117 40.3511 14.201 37.3048C14.2903 34.2543 14.8441 31.2845 15.8177 28.4336C16.6707 28.7862 17.5014 29.1346 18.3634 29.4958C17.5372 32.028 17.0459 34.6749 16.961 37.3856C16.8807 40.0835 17.229 42.7432 17.9079 45.3179Z" fill="#FFA500"/>
  <path d="M71.8271 17.1488C71.0678 17.6799 70.3399 18.1897 69.5806 18.7208C65.6951 14.7228 60.9521 11.9187 55.4186 10.4146C55.5749 9.55217 55.7313 8.70668 55.8965 7.81445C62.1401 9.4502 67.4592 12.5942 71.8271 17.1488Z" fill="#FFA500"/>
  <path d="M22.6464 59.1602C23.0751 58.8968 23.4726 58.6759 23.8388 58.421C24.1961 58.1661 24.5266 57.8771 24.8884 57.584C28.8141 61.6245 33.5571 64.4201 39.1308 65.9411C39.0191 66.3788 38.8941 66.7951 38.8137 67.22C38.7377 67.6406 38.7154 68.0655 38.6618 68.5456C32.3691 66.8929 27.05 63.7488 22.6464 59.1602Z" fill="#FFA500"/>
  <path d="M78.6736 47.9558C78.2404 47.7434 77.8429 47.5225 77.4276 47.3483C77.0122 47.1741 76.5745 47.0466 76.1235 46.8894C76.9631 44.3105 77.4544 41.672 77.5392 38.9699C77.6241 36.2677 77.2802 33.608 76.5969 31.0248C77.4767 30.7104 78.3297 30.4088 79.2095 30.0986C80.8531 36.068 80.6744 42.0247 78.6736 47.9558Z" fill="#FFA500"/>
  <path d="M40.3991 7.40234C40.5019 8.28182 40.6001 9.13581 40.7073 10.0323C37.9874 10.6101 35.339 11.5448 32.838 12.8364C30.3415 14.128 28.0816 15.7298 26.0853 17.5822C25.3707 17.0086 24.674 16.4563 23.9505 15.8785C28.564 11.5576 34.0707 8.70669 40.3991 7.40234Z" fill="#FFA500"/>
  <path d="M68.4194 58.7607C69.1519 59.3428 69.8441 59.8909 70.5587 60.456C65.9408 64.7811 60.434 67.632 54.1056 68.9363C54.0029 68.0569 53.9001 67.1944 53.7974 66.3064C59.4024 65.104 64.2972 62.5591 68.4194 58.7607Z" fill="#FFA500"/>
</svg>